<svg width="161" height="161" viewBox="0 0 161 161" fill="none" xmlns="http://www.w3.org/2000/svg">
<circle cx="80.5" cy="80.5" r="80.5" fill="#F96261"/>
<path d="M71.4998 83.5L61.5 93.5V83.5H56.5C53.7386 83.5 51.5 81.2614 51.5 78.5V58.5C51.5 55.7386 53.7386 53.5 56.5 53.5H86.5C89.2614 53.5 91.5 55.7386 91.5 58.5V78.5C91.5 81.2614 89.2614 83.5 86.5 83.5H71.4998Z" stroke="white" stroke-width="3" stroke-miterlimit="10" stroke-linecap="round" stroke-linejoin="round"/>
<path d="M76 93.5C76 96.2614 78.2386 98.5 81 98.5H91.0003L101 108.5V98.5H105.5C108.261 98.5 110.5 96.2614 110.5 93.5V73.5C110.5 70.7386 108.261 68.5 105.5 68.5H100.5" stroke="white" stroke-width="3" stroke-miterlimit="10" stroke-linecap="round" stroke-linejoin="round"/>
</svg>
