<svg width="161" height="161" viewBox="0 0 161 161" fill="none" xmlns="http://www.w3.org/2000/svg">
<circle cx="80.5" cy="80.5" r="80.5" fill="#F96261"/>
<g clip-path="url(#clip0_8704_524)">
<mask id="mask0_8704_524" style="mask-type:luminance" maskUnits="userSpaceOnUse" x="46" y="46" width="70" height="70">
<path d="M46 46H116V116H46V46Z" fill="white"/>
</mask>
<g mask="url(#mask0_8704_524)">
<path d="M104.299 48.0909V57.7012H94.6885" stroke="white" stroke-width="3" stroke-miterlimit="10" stroke-linecap="round" stroke-linejoin="round"/>
<path d="M57.7014 113.909V104.299H67.3117" stroke="white" stroke-width="3" stroke-miterlimit="10" stroke-linecap="round" stroke-linejoin="round"/>
<path d="M52.4687 97.4727C49.664 92.6254 48.0509 87.0027 48.0509 81.0001C48.0509 62.8027 62.8027 48.0509 81.0001 48.0509C90.0993 48.0509 98.3298 51.745 104.29 57.7098" stroke="white" stroke-width="3" stroke-miterlimit="10" stroke-linecap="round" stroke-linejoin="round"/>
<path d="M109.531 64.5274C112.336 69.3747 113.949 74.9974 113.949 81C113.949 99.1974 99.1974 113.949 81 113.949C71.9008 113.949 63.6702 110.255 57.7097 104.29" stroke="white" stroke-width="3" stroke-miterlimit="10" stroke-linecap="round" stroke-linejoin="round"/>
<path d="M93.9884 81C93.9884 80.1056 93.8977 79.2325 93.7255 78.3891L97.2592 76.349L93.1577 69.2448L89.6094 71.2934C88.3113 70.1411 86.7855 69.244 85.1017 68.6833V64.5938H76.8985V68.6833C75.2147 69.244 73.6889 70.1411 72.3908 71.2934L68.8425 69.2448L64.741 76.349L68.2747 78.3891C68.1025 79.2325 68.0118 80.1056 68.0118 81C68.0118 81.8944 68.1025 82.7675 68.2747 83.6109L64.741 85.651L68.8425 92.7552L72.3908 90.7066C73.6889 91.8589 75.2147 92.7562 76.8985 93.3167V97.4062H85.1017V93.3167C86.7855 92.7562 88.3113 91.8589 89.6094 90.7066L93.1577 92.7552L97.2592 85.651L93.7255 83.6109C93.8977 82.7675 93.9884 81.8944 93.9884 81Z" stroke="white" stroke-width="3" stroke-miterlimit="10" stroke-linecap="round" stroke-linejoin="round"/>
<path d="M86.4687 81C86.4687 84.0203 84.0204 86.4688 81 86.4688C77.9796 86.4688 75.5312 84.0203 75.5312 81C75.5312 77.9797 77.9796 75.5313 81 75.5313C84.0204 75.5313 86.4687 77.9797 86.4687 81Z" stroke="white" stroke-width="3" stroke-miterlimit="10" stroke-linecap="round" stroke-linejoin="round"/>
</g>
</g>
<defs>
<clipPath id="clip0_8704_524">
<rect width="70" height="70" fill="white" transform="translate(46 46)"/>
</clipPath>
</defs>
</svg>
