<svg width="1920" height="300" viewBox="0 0 1920 300" fill="none" xmlns="http://www.w3.org/2000/svg">
<rect width="1920" height="300" fill="white"/>
<g clip-path="url(#clip0_732_357)">
<path opacity="0.1" d="M650.818 278.919C970.581 306.586 1298.5 297.081 1533 288C1767.5 278.919 1835.5 269.223 1920 300V-601.463H0V296.277C144.759 262.897 351.988 253.063 650.818 278.919Z" fill="url(#paint0_linear_732_357)"/>
<g clip-path="url(#clip1_732_357)">
<path d="M1920 0H0V300H1920V0Z" fill="#303360"/>
<path opacity="0.2" d="M1474.53 -43C1471.97 -11.6357 1482.14 21.1369 1494.04 51.169C1509.81 90.9263 1528.91 131.521 1525.63 173.924C1524.01 194.84 1516.78 215.356 1504.82 232.96C1482.68 265.58 1446.31 286.439 1411.19 306.156C1334.76 349.092 1258.33 392.046 1181.9 434.982C1134.64 461.531 1086.08 489.184 1053.4 531.206C1032.99 557.47 1029.56 597.779 1030.04 630H1920V-43H1474.51H1474.53Z" fill="#6D66FF"/>
<path d="M1030.12 622.662C1053.07 568.938 1097.94 523.346 1149.2 489.18C1212.28 447.126 1285.19 419.85 1356.46 391.011C1427.73 362.173 1499.3 330.699 1556.63 282.151C1594.02 250.489 1626.32 205.819 1616.87 159.812C1610.02 126.418 1582.73 100.121 1555.58 77.155C1528.44 54.1707 1499.13 31.0357 1485.76 -0.645489C1480.21 -13.8036 1478.66 -28.9007 1481.17 -43H1919.6V622.662H1030.12Z" fill="url(#paint1_linear_732_357)"/>
<path d="M1919.6 302.971C1882.56 255.515 1818.99 225.584 1759.09 230.799C1731.08 233.227 1701.21 244.277 1687.69 268.974C1677.58 287.422 1678.52 309.804 1672.46 329.965C1661.32 367.124 1627.11 393.383 1590.76 406.73C1554.41 420.076 1515.22 422.9 1476.97 428.811C1438.7 434.721 1399.49 444.548 1369.5 469.076C1341.76 491.778 1324.4 525.435 1316.34 560.411C1311.64 580.816 1309.89 601.692 1309.91 622.663H1919.59V302.971H1919.6Z" fill="url(#paint2_linear_732_357)"/>
<path d="M1550.39 -43C1548.03 -17.0414 1560.48 3.08171 1581.11 20.9836C1603.3 40.2407 1633.95 48.1281 1661.43 60.2132C1726.54 88.8261 1776.95 144.64 1795.8 208.943C1802.52 231.853 1805.47 255.891 1815.84 277.614C1833.2 313.983 1877.34 339.697 1919.6 345.739V-43H1550.39Z" fill="url(#paint3_linear_732_357)"/>
<path opacity="0.2" d="M1454.63 -43C1440.96 -24.5146 1433.79 -1.88789 1435.09 20.4941C1436.78 50.1235 1453.25 78.7551 1478.85 96.6381C1494.21 107.368 1512.49 114.314 1527.04 125.966C1575.35 164.65 1570.77 243.862 1625.21 274.809C1656.95 292.862 1698.27 287.252 1733.04 274.866C1767.81 262.48 1800.3 243.938 1836.76 236.803C1864.11 231.457 1897.5 236.163 1919.62 250.526V-43H1454.65H1454.63Z" fill="#6D66FF"/>
<path opacity="0.35" d="M1896.04 6.60421C1896.04 12.8915 1890.95 17.974 1884.67 17.974C1878.38 17.974 1873.3 12.8915 1873.3 6.60421C1873.3 0.316918 1878.38 -4.76562 1884.67 -4.76562C1890.95 -4.76562 1896.04 0.316918 1896.04 6.60421Z" fill="#6D66FF"/>
<path opacity="0.35" d="M1734.86 133.7C1748.67 133.7 1759.86 122.508 1759.86 108.702C1759.86 94.8954 1748.67 83.7031 1734.86 83.7031C1721.06 83.7031 1709.86 94.8954 1709.86 108.702C1709.86 122.508 1721.06 133.7 1734.86 133.7Z" fill="#6D66FF"/>
<path d="M1636.13 91.1588C1632.01 91.1588 1628.67 87.8081 1628.67 83.7044C1628.67 79.6007 1632.03 76.25 1636.13 76.25C1640.23 76.25 1643.58 79.6007 1643.58 83.7044C1643.58 87.8081 1640.23 91.1588 1636.13 91.1588ZM1636.13 78.6972C1633.38 78.6972 1631.14 80.9372 1631.14 83.6856C1631.14 86.4339 1633.38 88.674 1636.13 88.674C1638.88 88.674 1641.12 86.4339 1641.12 83.6856C1641.12 80.9372 1638.88 78.6972 1636.13 78.6972Z" fill="white"/>
<path d="M1701.83 221.517H1696.84V216.528C1696.84 215.851 1696.29 215.305 1695.61 215.305C1694.94 215.305 1694.39 215.851 1694.39 216.528V221.517H1689.4C1688.72 221.517 1688.18 222.063 1688.18 222.74C1688.18 223.418 1688.72 223.964 1689.4 223.964H1694.39V228.952C1694.39 229.63 1694.94 230.176 1695.61 230.176C1696.29 230.176 1696.84 229.63 1696.84 228.952V223.964H1701.83C1702.5 223.964 1703.05 223.418 1703.05 222.74C1703.05 222.063 1702.5 221.517 1701.83 221.517Z" fill="white"/>
<path d="M1844.25 138.012C1841.52 138.012 1840.16 135.998 1839.07 134.379C1838.02 132.798 1837.3 131.838 1835.95 131.838C1834.59 131.838 1833.88 132.798 1832.82 134.379C1831.73 135.998 1830.38 138.012 1827.67 138.012C1824.95 138.012 1823.58 135.998 1822.49 134.379C1821.43 132.798 1820.72 131.838 1819.36 131.838C1818.01 131.838 1817.29 132.798 1816.24 134.379C1815.15 135.998 1813.79 138.012 1811.08 138.012C1808.37 138.012 1807 135.998 1805.92 134.379C1804.87 132.798 1804.15 131.838 1802.8 131.838C1802.12 131.838 1801.58 131.292 1801.58 130.614C1801.58 129.937 1802.12 129.391 1802.8 129.391C1805.53 129.391 1806.88 131.405 1807.96 133.024C1809.01 134.605 1809.73 135.565 1811.08 135.565C1812.44 135.565 1813.15 134.605 1814.21 133.024C1815.3 131.405 1816.65 129.391 1819.36 129.391C1822.07 129.391 1823.45 131.405 1824.54 133.024C1825.59 134.605 1826.31 135.565 1827.67 135.565C1829.02 135.565 1829.74 134.605 1830.79 133.024C1831.88 131.405 1833.24 129.391 1835.95 129.391C1838.66 129.391 1840.03 131.405 1841.12 133.024C1842.18 134.605 1842.89 135.565 1844.25 135.565C1845.61 135.565 1846.32 134.605 1847.37 133.024C1848.47 131.405 1849.82 129.391 1852.55 129.391C1853.23 129.391 1853.77 129.937 1853.77 130.614C1853.77 131.292 1853.23 131.838 1852.55 131.838C1851.2 131.838 1850.48 132.798 1849.43 134.379C1848.33 135.998 1846.98 138.012 1844.25 138.012Z" fill="white"/>
<path opacity="0.2" d="M1053.35 622.662H1051.26C1078.09 559.902 1131.23 514.856 1170.91 488.408C1227.42 450.741 1292.66 424.556 1355.74 399.238C1363.29 396.207 1370.82 393.195 1378.33 390.145C1447.64 362.116 1520.15 330.623 1578.26 281.436C1598.84 264.004 1615.25 244.804 1625.74 225.904C1638.33 203.202 1642.51 181.008 1638.2 160C1631.54 127.529 1604.96 101.344 1577.21 77.8515C1575.29 76.2327 1573.37 74.6138 1571.45 72.9949C1545.98 51.5541 1519.65 29.3603 1507.15 -0.287827C1501.57 -13.5024 1499.9 -28.5618 1502.48 -43H1504.36C1501.84 -28.9195 1503.42 -13.8977 1508.86 -1.00315C1521.19 28.2497 1547.35 50.274 1572.65 71.5831C1574.57 73.202 1576.51 74.8208 1578.41 76.4397C1590.86 86.9813 1605.16 99.6688 1616.8 113.975C1629.28 129.317 1636.86 144.245 1640.03 159.605C1644.43 181.084 1640.18 203.673 1627.38 226.789C1616.8 245.877 1600.23 265.266 1579.49 282.829C1521.17 332.204 1448.51 363.754 1379.07 391.84C1371.56 394.889 1364.01 397.901 1356.48 400.932C1293.47 426.213 1228.32 452.36 1171.98 489.914C1132.52 516.211 1080.04 560.298 1053.41 622.643L1053.35 622.662Z" fill="white"/>
<path opacity="0.2" d="M342.07 609C345.135 571.298 332.922 531.902 318.627 495.801C299.69 448.01 276.75 399.212 280.684 348.24C282.628 323.098 291.319 298.436 305.682 277.274C332.281 238.062 375.965 212.988 418.139 189.286C509.944 137.674 601.749 86.0395 693.554 34.4275C750.32 2.51312 808.641 -30.7281 847.888 -81.242C872.406 -112.813 876.523 -161.268 875.951 -200H-193V609H342.093H342.07Z" fill="#6D66FF"/>
<path d="M669.398 -92.9801C645.269 -36.486 598.078 11.4567 544.177 47.3841C477.845 91.6055 401.18 120.288 326.238 150.613C251.295 180.939 176.035 214.036 115.741 265.086C76.4285 298.381 42.4608 345.354 52.3977 393.732C59.603 428.848 88.3052 456.501 116.849 480.65C145.393 504.82 176.214 529.147 190.268 562.462C196.107 576.298 197.73 592.174 195.098 607H-265.941V-92.9801H669.398Z" fill="url(#paint4_linear_732_357)"/>
<path d="M-265.941 243.192C-226.985 293.095 -160.138 324.568 -97.1518 319.085C-67.6973 316.532 -36.2831 304.912 -22.0705 278.942C-11.4407 259.543 -12.4305 236.007 -6.05658 214.807C5.66187 175.732 41.6288 148.118 79.8524 134.084C118.076 120.049 159.289 117.08 199.511 110.865C239.754 104.649 280.986 94.3164 312.519 68.5239C341.697 44.6515 359.947 9.25861 368.419 -27.5199C373.368 -48.9774 375.209 -70.9297 375.189 -92.981H-265.921V243.192H-265.941Z" fill="url(#paint5_linear_732_357)"/>
<path opacity="0.3" d="M700.021 -92.9796C697.369 -51.0149 676.466 -8.99078 641.944 17.0986C582.876 61.7555 499.759 59.3208 425.231 49.6807C350.704 40.0407 272.119 25.8083 202.442 52.9666C167.643 66.526 137.832 89.5868 104.518 106.214C32.2869 142.28 -56.5913 146.061 -131.871 116.27C-188.325 93.9219 -235.1 54.9659 -265.999 4.48943V-92.9995H700.021V-92.9796Z" fill="#6D66FF"/>
<path opacity="0.3" d="M1571.83 411.982C1564.34 356.861 1528.54 303.39 1472.9 272.232C1377.69 218.899 1248.98 229.977 1134.17 249.75C1019.36 269.523 898.629 295.739 788.379 266.498C733.317 251.9 685.227 224.293 632.22 205.506C517.292 164.754 379.146 168.176 264.793 214.609C179.036 249.439 109.629 305.267 65.7709 374.794L73.6201 503.428L1571.83 412.008L1571.83 411.982Z" fill="#6D66FF"/>
<path d="M122.313 607C124.787 579.703 111.703 558.543 90.0076 539.718C66.6697 519.468 34.4439 511.174 5.54366 498.466C-62.9262 468.378 -115.936 409.686 -135.751 342.068C-142.818 317.978 -145.925 292.7 -156.832 269.857C-175.083 231.613 -221.502 204.574 -265.941 198.22V607H122.313Z" fill="url(#paint6_linear_732_357)"/>
<path opacity="0.2" d="M223.008 607C237.379 587.562 244.921 563.768 243.555 540.232C241.773 509.076 224.453 478.968 197.532 460.163C181.38 448.88 162.159 441.576 146.858 429.323C96.0646 388.645 100.875 305.349 43.6284 272.806C10.2546 253.823 -33.1949 259.722 -69.7557 272.747C-106.316 285.772 -140.482 305.269 -178.824 312.772C-207.586 318.393 -242.702 313.445 -265.961 298.341V607H222.988H223.008Z" fill="#6D66FF"/>
<path opacity="0.45" d="M277.398 68.2565C266.772 72.6256 261.699 84.7822 266.068 95.4089C270.437 106.036 282.594 111.108 293.221 106.739C303.847 102.37 308.92 90.2135 304.551 79.5867C300.182 68.96 288.025 63.8873 277.398 68.2565Z" fill="#6D66FF"/>
<path d="M341.816 67.9756H347.061V73.2212C347.061 73.9338 347.636 74.5078 348.348 74.5078C349.061 74.5078 349.635 73.9338 349.635 73.2212V67.9756H354.88C355.593 67.9756 356.167 67.4016 356.167 66.6889C356.167 65.9763 355.593 65.4023 354.88 65.4023H349.635V60.1567C349.635 59.444 349.061 58.87 348.348 58.87C347.636 58.87 347.061 59.444 347.061 60.1567V65.4023H341.816C341.103 65.4023 340.529 65.9763 340.529 66.6889C340.529 67.4016 341.103 67.9756 341.816 67.9756Z" fill="white"/>
<path d="M105.17 160.473C108.041 160.473 109.466 162.591 110.614 164.293C111.722 165.956 112.475 166.966 113.9 166.966C115.325 166.966 116.077 165.956 117.186 164.293C118.334 162.591 119.759 160.473 122.609 160.473C125.46 160.473 126.905 162.591 128.053 164.293C129.162 165.956 129.914 166.966 131.339 166.966C132.764 166.966 133.516 165.956 134.625 164.293C135.773 162.591 137.198 160.473 140.049 160.473C142.899 160.473 144.344 162.591 145.472 164.293C146.581 165.956 147.333 166.966 148.758 166.966C149.471 166.966 150.045 167.54 150.045 168.252C150.045 168.965 149.471 169.539 148.758 169.539C145.888 169.539 144.463 167.421 143.335 165.719C142.226 164.056 141.474 163.046 140.049 163.046C138.623 163.046 137.871 164.056 136.763 165.719C135.615 167.421 134.189 169.539 131.339 169.539C128.489 169.539 127.043 167.421 125.915 165.719C124.807 164.056 124.055 163.046 122.629 163.046C121.204 163.046 120.452 164.056 119.343 165.719C118.195 167.421 116.77 169.539 113.92 169.539C111.069 169.539 109.624 167.421 108.476 165.719C107.368 164.056 106.615 163.046 105.19 163.046C103.765 163.046 103.013 164.056 101.904 165.719C100.756 167.421 99.3309 169.539 96.4607 169.539C95.7481 169.539 95.174 168.965 95.174 168.252C95.174 167.54 95.7481 166.966 96.4607 166.966C97.8859 166.966 98.6381 165.956 99.7466 164.293C100.895 162.591 102.32 160.473 105.19 160.473H105.17Z" fill="white"/>
<path opacity="0.2" d="M644.972 -92.9801H647.169C618.962 -26.9846 563.081 20.3842 521.354 48.1957C461.93 87.8049 393.322 115.339 326.99 141.963C319.052 145.15 311.134 148.317 303.236 151.524C230.352 180.998 154.103 214.115 92.9966 265.838C71.361 284.168 54.1 304.359 43.0744 324.233C29.8317 348.105 25.4373 371.443 29.9702 393.534C36.9775 427.68 64.9277 455.214 94.1051 479.918C96.1241 481.62 98.1432 483.323 100.162 485.025C126.945 507.571 154.637 530.909 167.781 562.086C173.64 575.982 175.402 591.817 172.69 607H170.711C173.363 592.194 171.7 576.397 165.98 562.838C153.014 532.077 125.499 508.917 98.8954 486.51C96.8763 484.807 94.8375 483.105 92.8382 481.403C79.7539 470.318 64.71 456.976 52.4769 441.932C39.353 425.799 31.3757 410.102 28.0502 393.95C23.4183 371.364 27.8918 347.61 41.3522 323.302C52.4768 303.231 69.8961 282.842 91.7099 264.374C153.034 212.452 229.441 179.276 302.464 149.742C310.362 146.536 318.3 143.369 326.218 140.182C392.471 113.597 460.98 86.1025 520.226 46.6121C561.715 18.9589 616.903 -27.4003 644.912 -92.9603L644.972 -92.9801Z" fill="white"/>
</g>
</g>
<defs>
<linearGradient id="paint0_linear_732_357" x1="960.004" y1="-601.463" x2="960.004" y2="300" gradientUnits="userSpaceOnUse">
<stop stop-color="#7094FB"/>
<stop offset="1" stop-color="#F31E61"/>
</linearGradient>
<linearGradient id="paint1_linear_732_357" x1="1030.12" y1="289.831" x2="1919.6" y2="289.831" gradientUnits="userSpaceOnUse">
<stop stop-color="#6D66FF"/>
<stop offset="1" stop-color="#2C2A89"/>
</linearGradient>
<linearGradient id="paint2_linear_732_357" x1="1309.93" y1="426.439" x2="1919.6" y2="426.439" gradientUnits="userSpaceOnUse">
<stop stop-color="#6D66FF"/>
<stop offset="1" stop-color="#2C2A89"/>
</linearGradient>
<linearGradient id="paint3_linear_732_357" x1="1550.1" y1="151.379" x2="738.139" y2="151.379" gradientUnits="userSpaceOnUse">
<stop stop-color="#6D66FF"/>
<stop offset="1" stop-color="#2C2A89"/>
</linearGradient>
<linearGradient id="paint4_linear_732_357" x1="669.398" y1="257.01" x2="-265.941" y2="257.01" gradientUnits="userSpaceOnUse">
<stop stop-color="#6D66FF"/>
<stop offset="1" stop-color="#2C2A89"/>
</linearGradient>
<linearGradient id="paint5_linear_732_357" x1="375.17" y1="113.359" x2="-265.941" y2="113.359" gradientUnits="userSpaceOnUse">
<stop stop-color="#6D66FF"/>
<stop offset="1" stop-color="#2C2A89"/>
</linearGradient>
<linearGradient id="paint6_linear_732_357" x1="122.61" y1="402.6" x2="976.434" y2="402.6" gradientUnits="userSpaceOnUse">
<stop stop-color="#6D66FF"/>
<stop offset="1" stop-color="#2C2A89"/>
</linearGradient>
<clipPath id="clip0_732_357">
<rect width="1920" height="300" fill="white"/>
</clipPath>
<clipPath id="clip1_732_357">
<rect width="1920" height="300" fill="white"/>
</clipPath>
</defs>
</svg>
