<svg width="516" height="509" viewBox="0 0 516 509" fill="none" xmlns="http://www.w3.org/2000/svg">
<path d="M464.897 285.228C488.395 437.783 361.312 509 233.533 509C105.755 509 2.16992 408.814 2.16992 285.228C2.16992 161.642 232.643 8.67627 360.422 8.67627C488.2 8.67627 568.649 192.321 464.897 285.228Z" fill="#FAEEED"/>
<path d="M346.792 491.649C362.826 487.128 372.161 470.458 367.641 454.417C363.122 438.375 346.461 429.036 330.427 433.557C314.393 438.079 305.058 454.748 309.577 470.79C314.096 486.831 330.758 496.17 346.792 491.649Z" stroke="#FE7146" stroke-opacity="0.2" stroke-width="5.24" stroke-miterlimit="10"/>
<path d="M337.89 476.682L337.207 476.264C337.054 476.172 333.355 473.919 329.636 470.606C324.439 465.977 321.881 461.675 322.034 457.821C322.248 452.479 326.762 448.309 332.102 448.513H332.163C334.772 448.615 337.166 449.757 338.889 451.643C340.753 449.9 343.25 448.951 345.869 449.064H345.889C348.467 449.176 350.852 450.287 352.605 452.183C354.357 454.08 355.275 456.547 355.183 459.126C355.03 463.041 352.136 467.139 346.592 471.33C342.628 474.327 338.756 476.244 338.603 476.325L337.88 476.682H337.89Z" fill="#FE7146" fill-opacity="0.2"/>
<path d="M72.6281 79.6909C89.0584 76.9401 100.149 61.3846 97.3994 44.9466C94.65 28.5086 79.1017 17.413 62.6715 20.1638C46.2412 22.9146 35.1507 38.4701 37.9002 54.9081C40.6497 71.3461 56.1979 82.4417 72.6281 79.6909Z" stroke="#FE7146" stroke-opacity="0.2" stroke-width="5.24" stroke-miterlimit="10"/>
<path d="M66.929 64.0155L66.2462 63.5975C66.0934 63.5058 62.3943 61.2527 58.6748 57.9393C53.4778 53.3107 50.92 49.0084 51.0729 45.1546C51.2869 39.8124 55.8012 35.6426 61.1409 35.8465H61.202C63.8108 35.9485 66.2055 37.0903 67.9276 38.9764C69.7925 37.2331 72.2993 36.2849 74.908 36.3971H74.9284C77.5065 36.5092 79.9012 37.6205 81.6438 39.5168C83.3965 41.413 84.3136 43.8803 84.2219 46.4596C84.0691 50.3745 81.175 54.4729 75.6315 58.6631C71.6675 61.6605 67.7952 63.5771 67.6423 63.6587L66.9188 64.0155H66.929Z" fill="#FE7146" fill-opacity="0.2"/>
<path d="M381.535 366.29C366.107 366.29 353.604 378.799 353.604 394.235C353.604 409.67 366.107 422.179 381.535 422.179C396.963 422.179 409.467 409.67 409.467 394.235C409.467 378.799 396.963 366.29 381.535 366.29ZM396.892 391.034C396.749 394.653 394.069 398.445 388.943 402.33C385.275 405.103 381.688 406.887 381.535 406.958L380.873 407.284L380.241 406.897C380.098 406.805 376.674 404.726 373.23 401.657C368.42 397.365 366.056 393.389 366.189 389.81C366.382 384.865 370.57 380.991 375.513 381.195H375.574C377.989 381.297 380.21 382.347 381.8 384.091C383.532 382.48 385.846 381.603 388.261 381.695H388.281C390.676 381.797 392.887 382.826 394.507 384.58C396.128 386.334 396.973 388.617 396.892 391.013V391.034Z" fill="#FE7146" fill-opacity="0.2"/>
<path d="M27.9316 151.173C12.5035 151.173 0 163.683 0 179.118C0 194.553 12.5035 207.063 27.9316 207.063C43.3597 207.063 55.8632 194.553 55.8632 179.118C55.8632 163.683 43.3597 151.173 27.9316 151.173ZM43.2884 175.917C43.1457 179.536 40.4657 183.329 35.34 187.213C31.6715 189.986 28.0845 191.77 27.9316 191.842L27.2692 192.168L26.6374 191.78C26.4948 191.689 23.0708 189.609 19.6265 186.54C14.8167 182.248 12.4525 178.272 12.585 174.693C12.7786 169.749 16.9669 165.875 21.9091 166.079H21.9703C24.3854 166.181 26.6069 167.231 28.1966 168.974C29.9289 167.363 32.2421 166.486 34.6572 166.578H34.6776C37.0723 166.69 39.2836 167.71 40.9039 169.463C42.5241 171.217 43.3699 173.501 43.2884 175.896V175.917Z" fill="#FE7146" fill-opacity="0.2"/>
<path d="M349.72 334.686L352.635 340.578L359.136 341.526L354.428 346.114L355.539 352.598L349.72 349.54L343.901 352.598L345.012 346.114L340.314 341.526L346.816 340.578L349.72 334.686Z" fill="#FE7146" fill-opacity="0.2"/>
<path d="M450.564 187.876L454.722 196.307L464.015 197.653L457.29 204.209L458.879 213.466L450.564 209.102L442.259 213.466L443.849 204.209L437.123 197.653L446.417 196.307L450.564 187.876Z" fill="#FE7146" fill-opacity="0.2"/>
<path d="M170.332 23.7339L174.489 32.1652L183.783 33.511L177.057 40.0664L178.647 49.3235L170.332 44.9601L162.027 49.3235L163.616 40.0664L156.891 33.511L166.184 32.1652L170.332 23.7339Z" fill="#FE7146" fill-opacity="0.2"/>
<path d="M53.6324 399.169L57.7901 407.59L67.0836 408.936L60.358 415.501L61.9477 424.759L53.6324 420.385L45.3273 424.759L46.917 415.501L40.1914 408.936L49.485 407.59L53.6324 399.169Z" fill="#FE7146" fill-opacity="0.2"/>
<path d="M409.967 442.753L414.125 451.184L423.408 452.53L416.692 459.085L418.272 468.343L409.967 463.979L401.652 468.343L403.241 459.085L396.516 452.53L405.809 451.184L409.967 442.753Z" fill="#FE7146" fill-opacity="0.2"/>
<path d="M58.3199 106.774L62.4776 115.196L71.7711 116.552L65.0455 123.107L66.6352 132.364L58.3199 128.001L50.0148 132.364L51.5943 123.107L44.8789 116.552L54.1623 115.196L58.3199 106.774Z" fill="#FE7146" fill-opacity="0.2"/>
<path d="M345.227 266.286C329.798 266.286 317.295 278.795 317.295 294.231C317.295 309.666 329.798 322.176 345.227 322.176C360.655 322.176 373.158 309.666 373.158 294.231C373.158 278.795 360.655 266.286 345.227 266.286ZM329.809 293.996C326.986 293.996 324.703 291.713 324.703 288.889C324.703 286.065 326.986 283.781 329.809 283.781C332.631 283.781 334.914 286.065 334.914 288.889C334.914 291.713 332.631 293.996 329.809 293.996ZM352.839 307.128C352.309 297.31 338.134 297.31 337.604 307.128C337.472 309.534 333.732 309.544 333.854 307.128C334.17 301.214 338.796 295.413 345.216 295.76C351.646 296.107 356.232 300.695 356.579 307.128C356.711 309.544 352.961 309.534 352.828 307.128H352.839ZM360.644 293.996C357.822 293.996 355.539 291.713 355.539 288.889C355.539 286.065 357.822 283.781 360.644 283.781C363.467 283.781 365.75 286.065 365.75 288.889C365.75 291.713 363.467 293.996 360.644 293.996Z" fill="#FE7146" fill-opacity="0.2"/>
<path d="M269.656 380.256C251.986 380.256 237.658 394.591 237.658 412.269C237.658 429.947 251.986 444.281 269.656 444.281C287.326 444.281 301.653 429.947 301.653 412.269C301.653 394.591 287.326 380.256 269.656 380.256ZM251.996 412.004C248.766 412.004 246.147 409.384 246.147 406.152C246.147 402.92 248.766 400.3 251.996 400.3C255.226 400.3 257.845 402.92 257.845 406.152C257.845 409.384 255.226 412.004 251.996 412.004ZM269.656 429.193C262.288 428.795 257.04 423.534 256.643 416.174C256.49 413.411 260.78 413.421 260.933 416.174C261.534 427.429 277.777 427.429 278.379 416.174C278.531 413.421 282.822 413.411 282.669 416.174C282.302 422.943 277.003 429.59 269.656 429.193ZM287.316 412.004C284.085 412.004 281.466 409.384 281.466 406.152C281.466 402.92 284.085 400.3 287.316 400.3C290.546 400.3 293.165 402.92 293.165 406.152C293.165 409.384 290.546 412.004 287.316 412.004Z" fill="#FE7146" fill-opacity="0.2"/>
<path d="M399.4 239.994C412.801 236.995 421.235 223.695 418.237 210.287C415.239 196.88 401.945 188.443 388.544 191.442C375.143 194.442 366.71 207.742 369.708 221.149C372.705 234.556 385.999 242.994 399.4 239.994Z" stroke="#FE7146" stroke-opacity="0.2" stroke-width="4.32" stroke-miterlimit="10"/>
<path d="M381.25 206.104C378.926 206.104 377.041 207.991 377.041 210.315C377.041 212.64 378.926 214.526 381.25 214.526C383.573 214.526 385.458 212.64 385.458 210.315C385.458 207.991 383.573 206.104 381.25 206.104Z" fill="#FE7146" fill-opacity="0.2"/>
<path d="M406.685 206.104C404.362 206.104 402.477 207.991 402.477 210.315C402.477 212.64 404.362 214.526 406.685 214.526C409.009 214.526 410.894 212.64 410.894 210.315C410.894 207.991 409.009 206.104 406.685 206.104Z" fill="#FE7146" fill-opacity="0.2"/>
<path d="M403.629 225.353C403.578 221.285 401.061 217.717 397.26 216.279C393.459 214.842 389.169 216.045 386.662 219.052C385.164 220.847 384.349 223.018 384.319 225.363C384.288 227.708 387.956 227.728 387.987 225.363C388.028 222.091 390.657 219.368 393.979 219.368C397.301 219.368 399.92 222.091 399.971 225.363C400.001 227.718 403.67 227.728 403.639 225.363L403.629 225.353Z" fill="#FE7146" fill-opacity="0.2"/>
<path d="M444.698 378.149C459.639 375.701 469.767 361.6 467.32 346.653C464.874 331.705 450.779 321.572 435.839 324.02C420.899 326.468 410.77 340.569 413.217 355.516C415.664 370.464 429.758 380.596 444.698 378.149Z" stroke="#FE7146" stroke-opacity="0.2" stroke-width="4.76" stroke-miterlimit="10"/>
<path d="M426.23 340.505C423.673 340.505 421.594 342.585 421.594 345.144C421.594 347.703 423.673 349.783 426.23 349.783C428.788 349.783 430.867 347.703 430.867 345.144C430.867 342.585 428.788 340.505 426.23 340.505Z" fill="#FE7146" fill-opacity="0.2"/>
<path d="M454.264 340.505C451.706 340.505 449.627 342.585 449.627 345.144C449.627 347.703 451.706 349.783 454.264 349.783C456.821 349.783 458.9 347.703 458.9 345.144C458.9 342.585 456.821 340.505 454.264 340.505Z" fill="#FE7146" fill-opacity="0.2"/>
<path d="M429.604 353.096C429.665 357.582 432.426 361.517 436.625 363.108C440.65 364.637 445.552 363.363 448.313 360.049C449.964 358.071 450.871 355.676 450.901 353.096C450.932 350.517 446.897 350.486 446.856 353.096C446.805 356.705 443.911 359.713 440.253 359.703C436.594 359.692 433.7 356.705 433.649 353.096C433.608 350.496 429.573 350.486 429.604 353.096Z" fill="#FE7146" fill-opacity="0.2"/>
<path d="M68.4895 377.041C83.6995 374.5 93.9707 360.104 91.4309 344.887C88.8911 329.67 74.502 319.394 59.2921 321.935C44.0821 324.476 33.8109 338.872 36.3507 354.089C38.8905 369.306 53.2795 379.582 68.4895 377.041Z" stroke="#FE7146" stroke-opacity="0.2" stroke-width="4.85" stroke-miterlimit="10"/>
<path d="M82.0521 353.168C82.0521 351.506 80.9108 350.13 79.372 349.732C80.9108 349.345 82.0521 347.958 82.0521 346.296C82.0521 344.329 80.4624 342.738 78.4957 342.738H66.1756V333.899C66.1756 331.819 64.484 330.127 62.4052 330.127C60.3264 330.127 58.6348 331.819 58.6348 333.899V359.927C58.6348 362.007 60.3264 363.699 62.4052 363.699C62.4765 363.699 62.5478 363.679 62.6192 363.679C62.8434 363.72 63.0675 363.75 63.3019 363.75H78.4957C80.4624 363.75 82.0521 362.16 82.0521 360.192C82.0521 358.388 80.707 356.909 78.9644 356.685C80.707 356.451 82.0521 354.983 82.0521 353.178V353.168Z" fill="#FE7146" fill-opacity="0.2"/>
<path d="M57.3098 341.729H50.1562V364.424H57.3098V341.729Z" fill="#FE7146" fill-opacity="0.2"/>
<path d="M467.501 234.314C450.85 234.314 437.338 247.822 437.338 264.491C437.338 281.16 450.84 294.669 467.501 294.669C484.162 294.669 497.664 281.16 497.664 264.491C497.664 247.822 484.162 234.314 467.501 234.314ZM460.378 280.63H452.644V256.121H460.378V280.63ZM487.097 268.478C487.097 270.425 485.64 272.015 483.765 272.27C485.64 272.525 487.097 274.116 487.097 276.063C487.097 278.183 485.375 279.906 483.255 279.906H466.849C466.594 279.906 466.35 279.876 466.115 279.835C466.034 279.835 465.962 279.855 465.881 279.855C463.629 279.855 461.815 278.03 461.815 275.788V247.68C461.815 245.427 463.639 243.612 465.881 243.612C468.123 243.612 469.947 245.437 469.947 247.68V257.233H483.255C485.375 257.233 487.097 258.955 487.097 261.076C487.097 262.87 485.864 264.359 484.203 264.787C485.864 265.215 487.097 266.704 487.097 268.498V268.478Z" fill="#FE7146" fill-opacity="0.2"/>
<path d="M473.614 460.839C490.276 460.839 503.778 447.33 503.778 430.661C503.778 413.992 490.276 400.484 473.614 400.484C456.953 400.484 443.451 413.992 443.451 430.661C443.451 447.33 456.953 460.839 473.614 460.839ZM480.738 414.523H488.472V439.032H480.738V414.523ZM454.019 426.675C454.019 424.728 455.476 423.137 457.351 422.882C455.476 422.628 454.019 421.037 454.019 419.09C454.019 416.969 455.741 415.246 457.86 415.246H474.267C474.521 415.246 474.766 415.277 475 415.318C475.082 415.318 475.153 415.297 475.235 415.297C477.487 415.297 479.301 417.122 479.301 419.365V447.483C479.301 449.736 477.477 451.551 475.235 451.551C472.993 451.551 471.169 449.726 471.169 447.483V437.93H457.86C455.741 437.93 454.019 436.208 454.019 434.087C454.019 432.293 455.252 430.804 456.913 430.376C455.252 429.948 454.019 428.459 454.019 426.665V426.675Z" fill="#FE7146" fill-opacity="0.2"/>
<mask id="mask0_8639_1078" style="mask-type:alpha" maskUnits="userSpaceOnUse" x="2" y="0" width="463" height="509">
<path d="M464.897 285.228C464.897 408.814 361.312 509 233.533 509C105.755 509 2.16992 408.814 2.16992 285.228C2.16992 161.642 24.0547 0 151.833 0C279.612 0 464.897 161.642 464.897 285.228Z" fill="#FAEEED"/>
</mask>
<g mask="url(#mask0_8639_1078)">
<path d="M122.671 331.277C122.671 331.277 68.1731 379.69 65.833 430.981C63.4929 482.272 74.399 534.304 74.399 534.304H251.149C251.149 534.304 263.612 441.828 244.923 396.304C226.235 350.791 201.321 305.986 201.321 305.986L122.682 331.277H122.671Z" fill="#22689E"/>
<path opacity="0.5" d="M250.589 415.516C236.978 435.373 206.396 458.43 180.398 468.096C180.215 494.085 177.8 508.755 172.594 534.304H251.136C251.136 534.304 260.647 463.703 250.578 415.516H250.589Z" fill="#003154"/>
<path opacity="0.5" d="M131.922 346.559C153.026 354.496 176.995 357.363 199.516 358.996C209.273 359.704 219.041 360.016 228.788 359.951C214.447 329.591 201.308 305.986 201.308 305.986L122.669 331.277C122.669 331.277 119.621 333.994 114.93 338.806C120.436 341.695 126.05 344.358 131.911 346.559H131.922Z" fill="#003154"/>
<path d="M120.769 344.048C120.769 344.048 119.502 346.303 117.441 350.234" stroke="#3387C1" stroke-width="1.09" stroke-miterlimit="10"/>
<path d="M111.077 362.788C101.051 383.322 86.4848 416.721 83.9086 442.216C81.1928 469.075 84.7459 501.551 87.3114 519.646" stroke="#3387C1" stroke-width="1.09" stroke-miterlimit="10"/>
<path d="M120.77 451.354C125.804 452.503 130.806 453.792 135.83 455.016L143.333 456.928L150.825 458.883C155.817 460.182 160.808 461.535 165.789 462.878C170.78 464.209 175.74 465.627 180.72 466.991H180.087C181.375 466.593 182.717 466.078 184.027 465.573C185.336 465.058 186.656 464.531 187.945 463.941C189.243 463.372 190.531 462.781 191.809 462.158C193.097 461.557 194.353 460.902 195.609 460.246C196.875 459.613 198.121 458.915 199.366 458.238C200.622 457.572 201.845 456.853 203.069 456.123C204.293 455.403 205.527 454.694 206.719 453.91L210.336 451.634L213.878 449.249C215.07 448.476 216.219 447.617 217.378 446.79C218.537 445.952 219.707 445.147 220.845 444.288L224.237 441.678L225.944 440.379L227.608 439.026L230.935 436.319C232.052 435.417 233.093 434.44 234.177 433.506L237.429 430.703L234.424 433.774C233.404 434.773 232.417 435.825 231.365 436.792L228.209 439.724L226.631 441.184L224.999 442.591L221.714 445.373C220.609 446.296 219.46 447.155 218.333 448.057C217.195 448.938 216.068 449.84 214.898 450.667L211.399 453.191L207.814 455.596C206.622 456.413 205.388 457.143 204.164 457.905C202.94 458.668 201.706 459.42 200.45 460.118C199.194 460.826 197.96 461.567 196.671 462.223C195.394 462.888 194.117 463.576 192.818 464.188C191.53 464.832 190.22 465.444 188.9 466.035C187.59 466.636 186.248 467.184 184.896 467.732C183.543 468.269 182.202 468.763 180.753 469.203L180.441 469.3L180.119 469.203C175.16 467.785 170.179 466.4 165.231 464.94C160.272 463.49 155.323 462.061 150.375 460.569L142.957 458.335L135.551 456.058C130.634 454.49 125.697 452.987 120.791 451.344L120.77 451.354Z" fill="#003154"/>
<path d="M190.489 363.067C191.52 371.368 191.981 379.734 192.303 388.111C192.378 390.205 192.411 392.299 192.432 394.393C192.454 396.487 192.464 398.582 192.432 400.676C192.411 404.864 192.303 409.052 192.121 413.241C192.046 415.335 191.917 417.429 191.799 419.523C191.659 421.617 191.53 423.711 191.326 425.795C190.951 429.972 190.489 434.139 189.92 438.306C189.652 440.39 189.33 442.462 188.997 444.535C188.654 446.608 188.299 448.68 187.913 450.742C187.516 452.804 187.108 454.866 186.646 456.917C186.217 458.979 185.68 461.009 185.197 463.06L183.598 461.729C188.997 459.151 194.439 456.649 199.871 454.125L199.27 454.834C199.785 453.008 200.268 451.107 200.708 449.228C201.148 447.338 201.567 445.448 201.953 443.547C202.737 439.745 203.413 435.922 204.014 432.088C204.315 430.166 204.594 428.243 204.852 426.321L205.571 420.543C205.785 418.61 206.011 416.688 206.183 414.744C206.376 412.811 206.526 410.878 206.676 408.934C206.816 406.99 206.945 405.057 207.031 403.114C207.138 401.17 207.192 399.226 207.256 397.282C207.353 393.394 207.342 389.507 207.299 385.619C207.224 381.732 207.084 377.833 206.805 373.956C206.687 372.013 206.505 370.069 206.333 368.136C206.183 366.192 205.936 364.259 205.743 362.315C206.043 364.237 206.387 366.16 206.655 368.093C206.923 370.026 207.17 371.959 207.374 373.903C207.814 377.78 208.104 381.678 208.34 385.587C208.437 387.542 208.544 389.496 208.566 391.451C208.63 393.405 208.619 395.36 208.641 397.314C208.619 399.269 208.619 401.223 208.555 403.178C208.512 405.132 208.437 407.087 208.34 409.042C208.233 410.996 208.136 412.951 207.986 414.895C207.857 416.849 207.685 418.793 207.514 420.747C207.127 424.646 206.633 428.523 206.065 432.4C205.496 436.276 204.841 440.132 204.079 443.977C203.692 445.899 203.295 447.821 202.866 449.733C202.426 451.655 201.975 453.545 201.449 455.468L201.32 455.951L200.848 456.176C195.438 458.732 190.038 461.31 184.596 463.812L182.428 464.811L182.997 462.48C183.49 460.461 184.038 458.453 184.467 456.423C184.94 454.404 185.358 452.364 185.766 450.323C186.174 448.283 186.539 446.232 186.893 444.181C187.237 442.129 187.569 440.078 187.859 438.005C188.46 433.882 188.954 429.747 189.362 425.602C189.781 421.456 190.156 417.3 190.425 413.144C190.715 408.988 190.908 404.81 191.037 400.643C191.176 396.477 191.208 392.299 191.241 388.121C191.262 383.944 191.219 379.766 191.101 375.589C190.972 371.411 190.811 367.234 190.521 363.067H190.489Z" fill="#003154"/>
<path d="M181.267 468.097C181.267 468.097 181.267 468.355 181.288 468.849C181.299 469.332 181.331 470.052 181.321 470.975C181.321 472.812 181.342 475.432 181.224 478.579C181.181 480.147 181.106 481.854 180.999 483.648C180.902 485.441 180.805 487.342 180.666 489.297C180.483 491.251 180.301 493.27 180.108 495.321C179.882 497.373 179.732 499.456 179.421 501.539C179.131 503.612 178.83 505.685 178.541 507.736C178.39 508.756 178.24 509.766 178.1 510.764C177.918 511.763 177.725 512.74 177.542 513.707C177.188 515.64 176.802 517.498 176.437 519.259C176.072 521.02 175.771 522.696 175.342 524.21C174.569 527.26 173.839 529.773 173.377 531.545C172.873 533.306 172.594 534.305 172.594 534.305C172.594 534.305 172.755 533.274 173.023 531.459C173.324 529.655 173.699 527.067 174.258 523.995C174.569 522.47 174.741 520.773 174.977 519.001C175.202 517.229 175.428 515.35 175.707 513.417C175.835 512.45 175.975 511.473 176.104 510.474C176.211 509.476 176.308 508.466 176.415 507.446C176.63 505.406 176.855 503.344 177.081 501.271C177.349 499.209 177.467 497.126 177.65 495.085C177.832 493.045 178.004 491.036 178.176 489.093C178.294 487.149 178.444 485.269 178.583 483.487C178.734 481.704 178.852 480.018 178.916 478.461C178.991 476.903 179.099 475.475 179.185 474.208C179.249 472.941 179.313 471.845 179.356 470.932C179.453 469.107 179.517 468.076 179.517 468.076H181.235L181.267 468.097Z" fill="#003154"/>
<path d="M125.738 54.7719C125.738 54.7719 145.822 34.2705 181.181 49.9499C216.539 65.6293 194.438 132.75 211.72 154.862C225.062 171.938 251.49 197.068 219.76 231.229C188.029 265.391 140.208 214.744 141.818 158.47C143.428 102.197 125.749 54.7611 125.749 54.7611L125.738 54.7719Z" fill="#001433"/>
<path d="M125.738 56.2865C125.738 56.2865 148.044 32.5848 182.823 51.5075C225.782 74.8654 192.645 131.644 211.72 153.649C227.392 171.734 255.515 190.624 222.54 231.316C192.892 267.894 140.637 214.97 142.291 159.147C143.944 103.325 125.749 56.2865 125.749 56.2865H125.738Z" stroke="#001433" stroke-width="1.12" stroke-miterlimit="10"/>
<path d="M114.08 135.758C114.08 135.758 132.758 194.244 106.845 192.429C80.9326 190.625 55.0201 193.031 70.0802 237.652C85.1511 282.274 224.364 243.076 224.364 215.347C224.364 187.618 205.686 183.387 177.358 194.244C149.031 205.101 159.282 150.234 159.282 150.234L114.08 135.769V135.758Z" fill="#FFB199"/>
<path d="M120.564 174.484C127.992 180.97 135.871 186.705 145.993 189.497C151.586 191.033 157.189 191.881 162.76 192.139C153.453 181.475 159.282 150.234 159.282 150.234L114.08 135.769C114.08 135.769 121.143 157.881 120.553 174.494L120.564 174.484Z" fill="#F2957C"/>
<path d="M84.5534 100.189L82.75 152.038C82.75 152.038 119.515 171.337 119.515 169.522C119.515 167.707 127.351 121.292 127.351 121.292L84.5641 100.189H84.5534Z" fill="#003154"/>
<path d="M103.629 121.314C103.629 121.314 82.4508 122.732 92.7771 141.214C103.662 160.695 115.083 147.862 115.083 147.862L103.619 121.314H103.629Z" fill="#F2957C"/>
<path d="M96.8115 124.31C96.8115 124.31 96.0064 139.184 111.271 145.617C126.535 152.05 104.036 118.285 104.036 118.285L96.8008 124.31H96.8115Z" fill="#003154"/>
<path d="M122.927 74.8667C122.927 74.8667 183.887 51.1436 185.808 126.716C187.612 197.864 115.896 178.565 102.639 127.919C90.4558 81.3962 122.927 74.856 122.927 74.856V74.8667Z" fill="#FFB199"/>
<path d="M106.859 201.481C106.859 201.481 121.318 224.796 150.247 223.991C179.175 223.185 186.41 190.227 186.41 190.227C186.41 190.227 215.339 179.369 223.776 200.279C232.213 221.188 222.574 334.939 222.574 334.939C222.574 334.939 181.591 352.218 130.163 339.363C130.163 339.363 61.8608 251.741 65.8754 214.358C69.89 176.974 106.859 201.492 106.859 201.492V201.481Z" fill="#FFA94D"/>
<path d="M224.688 265.832C201.523 264.629 178.702 263.458 156.15 257.562C133.876 251.742 113.159 242.603 93.6332 230.435C84.2944 224.614 75.2239 218.418 66.1535 212.189C66.0461 212.887 65.9495 213.607 65.8636 214.348C61.849 251.731 130.151 339.353 130.151 339.353C181.579 352.219 222.562 334.928 222.562 334.928C222.562 334.928 225.482 300.423 226.706 265.928C226.04 265.896 225.364 265.864 224.699 265.832H224.688Z" fill="#EF8E35"/>
<path d="M140.605 145.208L176.769 139.978C176.769 139.978 168.332 160.071 140.605 145.208Z" fill="white"/>
<path d="M159.079 111.842C159.423 112.701 159.787 113.528 160.142 114.355C160.517 115.171 160.872 115.987 161.269 116.782C161.645 117.577 162.052 118.361 162.482 119.123C162.89 119.896 163.351 120.637 163.824 121.346C164.285 122.076 164.79 122.764 165.326 123.43C165.605 123.752 165.863 124.085 166.142 124.407C166.421 124.729 166.711 125.03 167.012 125.32C167.613 125.9 168.246 126.458 168.922 126.963C169.266 127.21 169.609 127.446 169.964 127.672C170.307 127.919 170.693 128.101 171.058 128.316L172.271 129.035L171.284 129.787C170.79 130.163 170.286 130.517 169.781 130.872C169.277 131.226 168.772 131.591 168.257 131.935C167.226 132.633 166.185 133.31 165.101 133.943C165.885 132.966 166.722 132.042 167.57 131.13C167.988 130.668 168.429 130.227 168.858 129.776C169.287 129.325 169.717 128.885 170.168 128.455L170.404 129.927C169.953 129.755 169.491 129.615 169.051 129.401C168.6 129.218 168.182 128.971 167.763 128.735C167.355 128.477 166.936 128.23 166.55 127.94C166.153 127.661 165.788 127.349 165.423 127.027C164.715 126.372 164.028 125.685 163.448 124.922C162.868 124.16 162.332 123.365 161.859 122.549C161.398 121.722 161 120.863 160.635 120.004C160.292 119.134 160.002 118.242 159.755 117.34C159.53 116.438 159.326 115.525 159.219 114.613C159.09 113.7 159.036 112.765 159.079 111.842Z" fill="#E5826C"/>
<path d="M160.291 105.011C160.291 105.011 160.366 104.496 160.613 103.636C160.871 102.777 161.279 101.553 161.987 100.178C162.685 98.793 163.64 97.225 165.036 95.7538C165.723 95.0128 166.528 94.304 167.472 93.6918C168.395 93.0689 169.512 92.5749 170.714 92.3172C171.905 92.0594 173.226 92.0702 174.385 92.4138C175.577 92.7038 176.586 93.3052 177.444 93.9388C178.292 94.5939 178.979 95.3242 179.559 96.0437C179.827 96.4196 180.085 96.7847 180.332 97.1284C180.568 97.4828 180.751 97.8587 180.944 98.1916C181.352 98.8574 181.62 99.5233 181.856 100.103C182.114 100.672 182.275 101.199 182.404 101.628C182.661 102.487 182.769 102.992 182.769 102.992C182.769 102.992 182.393 102.627 181.802 101.972C181.513 101.639 181.148 101.252 180.74 100.812C180.321 100.372 179.87 99.8777 179.355 99.3836C178.861 98.8574 178.26 98.3742 177.68 97.8479C177.069 97.3539 176.414 96.8814 175.727 96.484C175.383 96.3015 175.029 96.1404 174.675 95.9793C174.31 95.8826 173.956 95.7108 173.591 95.6786C172.872 95.5175 172.142 95.5282 171.412 95.7001C170.671 95.8397 169.93 96.1404 169.2 96.5485C168.481 96.9566 167.773 97.4398 167.107 97.9768C166.442 98.503 165.819 99.083 165.229 99.6414C164.649 100.211 164.091 100.758 163.597 101.295C162.61 102.358 161.783 103.293 161.193 103.948C160.602 104.614 160.27 104.99 160.27 104.99L160.291 105.011Z" fill="#001433"/>
<path d="M149.837 107.825C149.837 107.825 149.3 107.503 148.355 106.987C147.411 106.483 146.069 105.785 144.459 105.065C142.827 104.378 140.927 103.648 138.866 103.207C137.836 102.982 136.784 102.821 135.71 102.778C134.637 102.713 133.563 102.778 132.512 102.939C131.449 103.078 130.429 103.39 129.431 103.755C128.926 103.927 128.465 104.184 127.971 104.378C127.509 104.636 127.048 104.883 126.586 105.13C126.146 105.42 125.706 105.699 125.287 105.978C124.879 106.289 124.472 106.59 124.085 106.88C123.688 107.181 123.344 107.514 122.969 107.814C122.593 108.104 122.26 108.416 121.938 108.727C121.294 109.329 120.693 109.898 120.199 110.435C119.684 110.961 119.223 111.412 118.868 111.82C118.149 112.615 117.688 113.055 117.688 113.055C117.688 113.055 117.87 112.464 118.256 111.444C118.439 110.929 118.707 110.317 119.061 109.64L119.609 108.545C119.824 108.18 120.081 107.793 120.339 107.396C120.822 106.579 121.477 105.763 122.185 104.915C122.572 104.507 122.969 104.099 123.377 103.669C123.817 103.272 124.289 102.885 124.761 102.488C125.255 102.123 125.792 101.768 126.329 101.414C126.898 101.113 127.456 100.759 128.078 100.512C129.291 99.9747 130.612 99.5773 131.964 99.3625C133.317 99.18 134.68 99.1155 136 99.2874C137.32 99.4162 138.576 99.7277 139.746 100.136C140.916 100.522 141.979 101.049 142.945 101.575C143.911 102.123 144.759 102.713 145.521 103.293C147.035 104.453 148.108 105.602 148.817 106.44C149.515 107.288 149.837 107.825 149.837 107.825Z" fill="#001433"/>
<path d="M145.693 121.539C146.155 124.503 145.522 127.059 144.287 127.252C143.053 127.445 141.679 125.201 141.217 122.237C140.756 119.273 141.389 116.717 142.624 116.523C143.858 116.33 145.232 118.575 145.693 121.539Z" fill="#001433"/>
<path d="M179.623 115.461C180.085 118.425 179.451 120.981 178.217 121.174C176.983 121.368 175.609 119.123 175.147 116.159C174.685 113.195 175.319 110.639 176.553 110.446C177.788 110.252 179.162 112.497 179.623 115.461Z" fill="#001433"/>
<path d="M143.813 150.438C143.813 150.438 145.821 151.308 148.816 152.393C150.318 152.93 152.068 153.509 153.957 153.993C154.902 154.261 155.89 154.422 156.877 154.626C157.875 154.787 158.895 154.949 159.904 154.981C160.913 155.077 161.922 155.045 162.91 154.981C163.887 154.852 164.853 154.766 165.754 154.497C166.216 154.39 166.645 154.229 167.064 154.089C167.504 153.961 167.89 153.767 168.288 153.585C168.695 153.424 169.039 153.187 169.404 152.994C169.78 152.811 170.102 152.575 170.413 152.36C171.068 151.952 171.583 151.458 172.098 151.061C172.549 150.61 172.989 150.245 173.311 149.901C173.945 149.214 174.331 148.816 174.331 148.816C174.331 148.816 174.116 149.31 173.698 150.18C173.472 150.61 173.161 151.093 172.785 151.673C172.367 152.199 171.926 152.854 171.304 153.413C170.714 154.025 169.994 154.616 169.168 155.142C168.749 155.4 168.32 155.679 167.847 155.894C167.386 156.141 166.892 156.334 166.377 156.506C165.357 156.882 164.262 157.129 163.146 157.279C162.03 157.386 160.881 157.451 159.743 157.365C157.478 157.204 155.278 156.699 153.324 156.001C152.336 155.679 151.424 155.26 150.565 154.863C149.707 154.465 148.923 154.036 148.215 153.617C145.359 151.963 143.803 150.406 143.803 150.406L143.813 150.438Z" fill="#E5826C"/>
<path d="M76.7173 57.3835C76.7173 57.3835 90.5752 38.6971 126.739 48.341C162.903 57.9849 141.81 122.507 103.843 130.948C65.8757 139.389 94.4073 159.493 113.697 149.849C113.697 149.849 142.54 178.899 120.116 201.494C101.202 220.556 95.8135 190.035 79.5404 195.469C63.2673 200.893 64.0723 221.394 73.7117 246.717C73.7117 246.717 29.7227 243.7 33.3294 204.512C36.9468 165.324 77.3184 163.509 68.8813 115.279C60.4441 67.0488 76.7173 57.3942 76.7173 57.3942V57.3835Z" fill="#003154"/>
<path d="M73.7134 246.706C73.7134 246.706 22.0172 240.95 27.9532 202.041C33.8893 163.133 74.293 163.723 68.7327 115.074C63.1723 66.4254 79.9822 57.7587 79.9822 57.7587C79.9822 57.7587 94.9243 39.9208 130.455 51.691" stroke="#003154" stroke-width="1.12" stroke-miterlimit="10"/>
<path d="M101.236 135.157C101.236 135.157 144.624 127.522 144.624 72.0532" stroke="#003154" stroke-width="1.12" stroke-miterlimit="10"/>
<path d="M299.098 152.641C296.683 151.438 292.464 157.463 292.464 157.463C292.464 157.463 297.885 146.605 294.879 145.402C291.863 144.2 288.857 152.641 288.857 152.641C288.857 152.641 291.874 142.395 288.256 141.783C284.639 141.182 279.819 155.046 279.819 155.046C279.819 155.046 290.06 123.698 285.841 123.698C284.553 123.698 279.809 132.644 273.83 145.069C272.112 142.675 268.548 140.387 263.546 150.826C259.95 158.322 261.12 164.024 263.213 167.858C251.642 193.257 240.049 220.159 240.049 220.159C240.049 220.159 262.945 248.5 273.196 229.201C283.437 209.903 301.524 153.833 299.109 152.63L299.098 152.641Z" fill="#FFB199"/>
<path d="M251.759 193.385C245.039 208.56 240.037 220.169 240.037 220.169C240.037 220.169 262.933 248.51 273.184 229.212C276.802 222.403 281.396 210.998 285.722 199.045C274.333 197.477 262.923 195.78 251.759 193.385Z" fill="#F2957C"/>
<path d="M266.487 145.961C267.228 144.855 268.258 143.909 269.557 143.383C270.212 143.168 270.921 143.018 271.629 143.136C271.801 143.158 271.983 143.179 272.155 143.211L272.649 143.394C272.992 143.501 273.293 143.673 273.583 143.877C273.883 144.06 274.173 144.253 274.42 144.5C274.667 144.736 274.957 144.951 275.182 145.209C275.611 145.746 276.105 146.24 276.449 146.831C277.232 147.969 277.876 149.118 278.542 150.278C279.197 151.448 279.83 152.63 280.41 153.854C280.699 154.466 280.979 155.089 281.215 155.733C281.44 156.389 281.676 157.044 281.73 157.838C281.73 158.225 281.751 158.73 281.333 159.202C280.893 159.664 280.313 159.685 279.916 159.653C279.111 159.557 278.456 159.288 277.823 158.998C276.567 158.407 275.418 157.699 274.28 156.968L274.828 155.937C275.322 156.174 275.729 156.421 276.148 156.721C276.567 157.001 276.942 157.334 277.329 157.656C277.672 158.01 278.059 158.343 278.359 158.74C278.671 159.127 278.993 159.514 279.25 159.954L279.648 160.588L279.959 161.275L280.259 161.962L280.463 162.682L280.667 163.401C280.71 163.648 280.732 163.895 280.764 164.142C280.818 164.636 280.914 165.12 280.871 165.614C280.85 166.108 280.85 166.602 280.818 167.085L280.56 168.524C280.496 169.007 280.335 169.469 280.195 169.931L279.733 171.305L279.122 172.616C278.907 173.045 278.735 173.496 278.488 173.904C277.994 174.731 277.49 175.537 276.985 176.342C277.404 175.483 277.812 174.624 278.241 173.786C278.445 173.357 278.585 172.906 278.757 172.465L279.25 171.144L279.594 169.78C279.712 169.329 279.851 168.878 279.884 168.417L280.055 167.031C280.055 166.569 280.045 166.108 280.034 165.646C280.055 165.184 279.937 164.733 279.873 164.282C279.83 164.056 279.798 163.831 279.755 163.605L279.54 162.961L279.325 162.317L279.025 161.704L278.724 161.092L278.349 160.523C278.123 160.137 277.812 159.793 277.522 159.449C277.243 159.095 276.878 158.816 276.567 158.493C276.213 158.214 275.869 157.924 275.483 157.677C275.118 157.419 274.71 157.194 274.345 157.011L274.892 155.98C276.009 156.689 277.136 157.366 278.306 157.903C278.885 158.16 279.486 158.397 280.002 158.461C280.259 158.483 280.42 158.429 280.442 158.397C280.495 158.375 280.549 158.15 280.528 157.881C280.506 157.344 280.313 156.711 280.098 156.12C279.873 155.519 279.626 154.917 279.358 154.316C278.821 153.113 278.22 151.932 277.608 150.761L276.685 149C276.384 148.398 276.041 147.851 275.708 147.292C275.407 146.712 274.967 146.24 274.592 145.714C274.388 145.456 274.141 145.263 273.926 145.026C273.711 144.779 273.454 144.597 273.196 144.425C272.939 144.232 272.681 144.06 272.38 143.952L271.951 143.759L271.5 143.662C270.888 143.501 270.255 143.587 269.632 143.738C268.409 144.124 267.314 144.962 266.455 145.971L266.487 145.961Z" fill="#E5826C"/>
<path d="M279.638 161.748C279.97 162.145 280.357 162.489 280.775 162.768C281.001 162.886 281.205 163.036 281.441 163.112C281.666 163.219 281.903 163.273 282.149 163.305C282.386 163.359 282.633 163.305 282.869 163.305C283.094 163.219 283.33 163.187 283.545 163.069C283.749 162.929 283.974 162.843 284.146 162.682L284.683 162.188L285.134 161.597C285.295 161.415 285.434 161.2 285.552 160.985L285.928 160.341C286.068 160.137 286.143 159.89 286.261 159.664C286.465 159.202 286.701 158.762 286.851 158.268L287.366 156.84L288.182 157.183C287.517 158.708 286.894 160.287 286.39 161.866C286.143 162.661 285.928 163.455 285.799 164.25C285.735 164.647 285.692 165.034 285.703 165.399C285.703 165.764 285.788 166.097 285.906 166.247C285.928 166.269 285.992 166.333 285.971 166.312L286.1 166.387C286.1 166.387 286.1 166.366 286.078 166.366C286.1 166.366 286.207 166.366 286.336 166.301C286.593 166.183 286.883 165.925 287.152 165.657C287.688 165.088 288.171 164.422 288.622 163.734C289.535 162.36 290.34 160.867 291.07 159.385L292.132 159.804C291.628 161.34 291.188 162.929 290.866 164.518C290.705 165.313 290.565 166.108 290.501 166.903C290.469 167.3 290.469 167.697 290.501 168.062C290.533 168.438 290.619 168.803 290.791 169.04C290.876 169.147 290.962 169.244 291.091 169.276C291.091 169.276 291.209 169.308 291.123 169.297H291.585C291.724 169.244 291.843 169.244 292.004 169.147C292.154 169.04 292.326 168.986 292.465 168.846C293.056 168.363 293.581 167.74 294.032 167.064C294.945 165.71 295.685 164.228 296.351 162.725C295.868 164.314 295.235 165.85 294.419 167.311C294.215 167.676 293.979 168.03 293.743 168.385C293.485 168.728 293.206 169.061 292.873 169.351C292.723 169.512 292.508 169.62 292.315 169.748C292.122 169.877 291.821 169.942 291.574 170.017H291.113C290.93 170.017 290.941 169.995 290.855 169.974C290.576 169.899 290.34 169.706 290.168 169.501C289.846 169.072 289.739 168.599 289.674 168.159C289.61 167.719 289.599 167.278 289.61 166.849C289.631 165.99 289.728 165.152 289.857 164.325C290.147 162.671 290.544 161.05 291.027 159.439L292.089 159.858C291.349 161.415 290.544 162.918 289.599 164.379C289.127 165.109 288.622 165.818 287.978 166.473C287.656 166.795 287.313 167.128 286.797 167.364C286.551 167.482 286.218 167.568 285.831 167.515C285.724 167.493 285.606 167.45 285.509 167.418L285.359 167.332C285.144 167.203 285.069 167.107 284.951 166.978C284.565 166.441 284.522 165.893 284.5 165.421C284.5 164.937 284.554 164.486 284.629 164.046C284.79 163.165 285.048 162.338 285.327 161.522C285.885 159.89 286.572 158.333 287.345 156.797L288.161 157.141L287.56 158.59C287.377 159.074 287.109 159.535 286.873 160.008C286.744 160.233 286.647 160.48 286.497 160.695L286.057 161.361C285.799 161.823 285.391 162.199 285.048 162.596L284.414 163.101C284.2 163.273 283.931 163.359 283.695 163.487C283.448 163.606 283.159 163.627 282.901 163.692C282.633 163.681 282.343 163.713 282.085 163.638C281.817 163.573 281.559 163.498 281.334 163.369C281.087 163.273 280.883 163.09 280.668 162.94C280.271 162.607 279.917 162.22 279.627 161.791L279.638 161.748Z" fill="#E5826C"/>
<path d="M58.6406 232.831C58.6406 232.831 98.819 347.795 134.575 361.455L152.254 328.496C152.254 328.496 109.263 228.406 93.5914 216.754C77.9194 205.102 58.6406 232.831 58.6406 232.831Z" fill="#FFB199"/>
<path d="M98.2286 280.148C107.417 275.691 114.995 269.301 121.275 261.655C110.68 240.552 99.9139 221.458 93.5914 216.765C77.9194 205.113 58.6406 232.842 58.6406 232.842C58.6406 232.842 67.3032 257.628 80.1628 285.539C86.335 284.551 92.3999 282.973 98.2286 280.148Z" fill="#F2957C"/>
<path d="M95.2014 201.483C95.2014 201.483 74.7097 178.973 59.0377 203.094C43.3657 227.214 71.0923 277.055 71.0923 277.055C71.0923 277.055 97.6059 273.844 121.318 250.927C121.318 250.927 105.646 212.738 95.2014 201.483Z" fill="#FFA94D"/>
<path d="M270.655 205.563L185.76 219.258C182.476 219.788 180.244 222.88 180.773 226.165L201.369 353.955C201.899 357.24 204.99 359.474 208.273 358.944L293.169 345.248C296.452 344.719 298.685 341.626 298.155 338.341L277.559 210.551C277.029 207.266 273.939 205.033 270.655 205.563Z" fill="#DDD3D3"/>
<path d="M297.456 339.289L212.569 352.971C209.285 353.497 206.193 351.263 205.657 347.977L185.068 220.19C185.025 219.943 185.036 219.696 185.025 219.46C182.138 220.298 180.249 223.144 180.742 226.183L201.331 353.97C201.857 357.256 204.948 359.49 208.244 358.963L293.13 345.282C296.168 344.788 298.283 342.103 298.165 339.106C297.928 339.171 297.703 339.257 297.456 339.3V339.289Z" fill="#A39D9C"/>
<path d="M241.853 263.836C242.165 257.768 244.269 255.395 244.301 255.362L243.635 254.729L242.981 254.095C242.841 254.246 240.308 256.984 240.007 263.965C239.964 263.965 239.921 263.965 239.878 263.975C233.073 265.071 228.446 271.482 229.541 278.291C230.636 285.1 237.045 289.728 243.85 288.633C250.656 287.537 255.282 281.126 254.187 274.317C253.2 268.174 247.875 263.814 241.843 263.825L241.853 263.836Z" fill="white"/>
<path d="M240.136 258.981C240.136 258.981 239.224 250.411 227.846 255.781C227.846 255.781 232.655 263.728 240.136 258.981Z" fill="white"/>
<path d="M201.674 250.518C201.674 250.518 251.9 258.959 204.487 243.688C204.487 243.688 191.627 238.06 174.753 251.323C159.564 263.265 120.727 311.485 112.645 342.736C122.187 355.065 132.159 363.667 141.004 362.668C160.573 360.467 193.237 272.63 193.237 272.63C193.237 272.63 241.048 292.723 196.447 265.392C196.447 265.392 264.749 287.901 200.869 257.756C200.869 257.756 262.345 272.222 201.674 250.518Z" fill="#FFB199"/>
</g>
<path d="M501.836 44.8267H276.483C268.734 44.8267 262.453 51.1109 262.453 58.863V104.7C262.453 112.453 268.734 118.737 276.483 118.737H501.836C509.584 118.737 515.866 112.453 515.866 104.7V58.863C515.866 51.1109 509.584 44.8267 501.836 44.8267Z" fill="#FE7146"/>
<path d="M351.722 114.055L340.494 201.057L379.772 112.186L351.722 114.055Z" fill="#FE7146"/>
<path d="M311.329 76.1034C311.147 75.5598 310.642 75.1879 310.07 75.1784L297.413 75.0735L293.401 63.0682C293.219 62.5247 292.705 62.1528 292.133 62.1528C291.561 62.1528 291.046 62.5247 290.865 63.0682L286.853 75.0735L274.195 75.1784C273.624 75.1784 273.118 75.5598 272.937 76.1034C272.756 76.6469 272.956 77.2476 273.414 77.5909L283.584 85.124L279.781 97.196C279.609 97.7396 279.809 98.3403 280.267 98.674C280.724 99.0078 281.363 99.0173 281.83 98.674L292.133 91.3221L302.436 98.674C302.665 98.8361 302.941 98.922 303.208 98.922C303.475 98.922 303.761 98.8361 303.99 98.6645C304.457 98.3308 304.647 97.73 304.476 97.1865L300.673 85.1145L310.842 77.5814C311.3 77.2381 311.5 76.6373 311.319 76.0938L311.329 76.1034Z" fill="#D63A3A"/>
<path d="M313.998 74.7679C313.817 74.2244 313.312 73.8525 312.74 73.843L300.083 73.7381L296.071 61.7328C295.889 61.1893 295.375 60.8174 294.803 60.8174C294.231 60.8174 293.716 61.1893 293.535 61.7328L289.523 73.7381L276.865 73.843C276.294 73.843 275.788 74.2244 275.607 74.7679C275.426 75.3114 275.626 75.9122 276.084 76.2555L286.254 83.7885L282.451 95.8606C282.279 96.4041 282.479 97.0048 282.937 97.3386C283.394 97.6723 284.033 97.6819 284.5 97.3386L294.803 89.9867L305.106 97.3386C305.335 97.5007 305.611 97.5865 305.878 97.5865C306.145 97.5865 306.431 97.5007 306.66 97.329C307.127 96.9953 307.317 96.3946 307.146 95.851L303.343 83.779L313.512 76.2459C313.97 75.9026 314.17 75.3019 313.989 74.7584L313.998 74.7679Z" fill="#FFA94D"/>
<path d="M359.346 76.1029C359.165 75.5593 358.66 75.1875 358.088 75.1779L345.431 75.073L341.418 63.0678C341.237 62.5242 340.722 62.1523 340.151 62.1523C339.579 62.1523 339.064 62.5242 338.883 63.0678L334.87 75.073L322.213 75.1779C321.641 75.1779 321.136 75.5593 320.955 76.1029C320.774 76.6464 320.974 77.2471 321.432 77.5904L331.601 85.1235L327.798 97.1955C327.627 97.7391 327.827 98.3398 328.284 98.6736C328.742 99.0073 329.38 99.0168 329.847 98.6736L340.151 91.3216L350.454 98.6736C350.682 98.8357 350.959 98.9215 351.226 98.9215C351.493 98.9215 351.778 98.8357 352.007 98.664C352.474 98.3303 352.665 97.7295 352.493 97.186L348.69 85.114L358.86 77.5809C359.318 77.2376 359.518 76.6369 359.337 76.0933L359.346 76.1029Z" fill="#D63A3A"/>
<path d="M362.016 74.7679C361.835 74.2244 361.33 73.8525 360.758 73.843L348.101 73.7381L344.088 61.7328C343.907 61.1893 343.392 60.8174 342.82 60.8174C342.249 60.8174 341.734 61.1893 341.553 61.7328L337.54 73.7381L324.883 73.843C324.311 73.843 323.806 74.2244 323.625 74.7679C323.444 75.3114 323.644 75.9122 324.101 76.2555L334.271 83.7885L330.468 95.8606C330.297 96.4041 330.497 97.0048 330.954 97.3386C331.412 97.6723 332.05 97.6819 332.517 97.3386L342.82 89.9867L353.124 97.3386C353.352 97.5007 353.629 97.5865 353.896 97.5865C354.162 97.5865 354.448 97.5007 354.677 97.329C355.144 96.9953 355.335 96.3946 355.163 95.851L351.36 83.779L361.53 76.2459C361.988 75.9026 362.188 75.3019 362.007 74.7584L362.016 74.7679Z" fill="#FFA94D"/>
<path d="M407.354 76.1029C407.173 75.5593 406.668 75.1875 406.096 75.1779L393.439 75.073L389.426 63.0678C389.245 62.5242 388.73 62.1523 388.158 62.1523C387.587 62.1523 387.072 62.5242 386.891 63.0678L382.878 75.073L370.221 75.1779C369.649 75.1779 369.144 75.5593 368.963 76.1029C368.782 76.6464 368.982 77.2471 369.439 77.5904L379.609 85.1235L375.806 97.1955C375.635 97.7391 375.835 98.3398 376.292 98.6736C376.75 99.0073 377.388 99.0168 377.855 98.6736L388.158 91.3216L398.461 98.6736C398.69 98.8357 398.967 98.9215 399.234 98.9215C399.5 98.9215 399.786 98.8357 400.015 98.664C400.482 98.3303 400.673 97.7295 400.501 97.186L396.698 85.114L406.868 77.5809C407.325 77.2376 407.526 76.6369 407.344 76.0933L407.354 76.1029Z" fill="#D63A3A"/>
<path d="M410.022 74.7679C409.841 74.2244 409.336 73.8525 408.764 73.843L396.107 73.7381L392.094 61.7328C391.913 61.1893 391.398 60.8174 390.826 60.8174C390.254 60.8174 389.74 61.1893 389.559 61.7328L385.546 73.7381L372.889 73.843C372.317 73.843 371.812 74.2244 371.631 74.7679C371.45 75.3114 371.65 75.9122 372.107 76.2555L382.277 83.7885L378.474 95.8606C378.302 96.4041 378.503 97.0048 378.96 97.3386C379.418 97.6723 380.056 97.6819 380.523 97.3386L390.826 89.9867L401.129 97.3386C401.358 97.5007 401.635 97.5865 401.901 97.5865C402.168 97.5865 402.454 97.5007 402.683 97.329C403.15 96.9953 403.341 96.3946 403.169 95.851L399.366 83.779L409.536 76.2459C409.993 75.9026 410.193 75.3019 410.012 74.7584L410.022 74.7679Z" fill="#FFA94D"/>
<path d="M455.372 76.1029C455.19 75.5593 454.685 75.1875 454.113 75.1779L441.456 75.073L437.444 63.0678C437.262 62.5242 436.748 62.1523 436.176 62.1523C435.604 62.1523 435.089 62.5242 434.908 63.0678L430.896 75.073L418.238 75.1779C417.667 75.1779 417.161 75.5593 416.98 76.1029C416.799 76.6464 416.999 77.2471 417.457 77.5904L427.627 85.1235L423.824 97.1955C423.652 97.7391 423.852 98.3398 424.31 98.6736C424.767 99.0073 425.406 99.0168 425.873 98.6736L436.176 91.3216L446.479 98.6736C446.708 98.8357 446.984 98.9215 447.251 98.9215C447.518 98.9215 447.804 98.8357 448.033 98.664C448.5 98.3303 448.69 97.7295 448.519 97.186L444.716 85.114L454.885 77.5809C455.343 77.2376 455.543 76.6369 455.362 76.0933L455.372 76.1029Z" fill="#D63A3A"/>
<path d="M458.041 74.7679C457.86 74.2244 457.355 73.8525 456.783 73.843L444.126 73.7381L440.113 61.7328C439.932 61.1893 439.418 60.8174 438.846 60.8174C438.274 60.8174 437.759 61.1893 437.578 61.7328L433.566 73.7381L420.908 73.843C420.336 73.843 419.831 74.2244 419.65 74.7679C419.469 75.3114 419.669 75.9122 420.127 76.2555L430.296 83.7885L426.494 95.8606C426.322 96.4041 426.522 97.0048 426.98 97.3386C427.437 97.6723 428.076 97.6819 428.543 97.3386L438.846 89.9867L449.149 97.3386C449.378 97.5007 449.654 97.5865 449.921 97.5865C450.188 97.5865 450.474 97.5007 450.702 97.329C451.17 96.9953 451.36 96.3946 451.189 95.851L447.386 83.779L457.555 76.2459C458.013 75.9026 458.213 75.3019 458.032 74.7584L458.041 74.7679Z" fill="#FFA94D"/>
<path d="M503.381 76.1029C503.2 75.5593 502.695 75.1875 502.123 75.1779L489.466 75.073L485.453 63.0678C485.272 62.5242 484.758 62.1523 484.186 62.1523C483.614 62.1523 483.099 62.5242 482.918 63.0678L478.905 75.073L466.248 75.1779C465.676 75.1779 465.171 75.5593 464.99 76.1029C464.809 76.6464 465.009 77.2471 465.467 77.5904L475.636 85.1235L471.833 97.1955C471.662 97.7391 471.862 98.3398 472.32 98.6736C472.777 99.0073 473.416 99.0168 473.883 98.6736L484.186 91.3216L494.489 98.6736C494.718 98.8357 494.994 98.9215 495.261 98.9215C495.528 98.9215 495.814 98.8357 496.042 98.664C496.509 98.3303 496.7 97.7295 496.528 97.186L492.726 85.114L502.895 77.5809C503.353 77.2376 503.553 76.6369 503.372 76.0933L503.381 76.1029Z" fill="#D63A3A"/>
<path d="M506.049 74.7679C505.868 74.2244 505.363 73.8525 504.791 73.843L492.134 73.7381L488.121 61.7328C487.94 61.1893 487.426 60.8174 486.854 60.8174C486.282 60.8174 485.767 61.1893 485.586 61.7328L481.573 73.7381L468.916 73.843C468.344 73.843 467.839 74.2244 467.658 74.7679C467.477 75.3114 467.677 75.9122 468.135 76.2555L478.304 83.7885L474.501 95.8606C474.33 96.4041 474.53 97.0048 474.987 97.3386C475.445 97.6723 476.084 97.6819 476.551 97.3386L486.854 89.9867L497.157 97.3386C497.386 97.5007 497.662 97.5865 497.929 97.5865C498.196 97.5865 498.482 97.5007 498.71 97.329C499.177 96.9953 499.368 96.3946 499.196 95.851L495.394 83.779L505.563 76.2459C506.021 75.9026 506.221 75.3019 506.04 74.7584L506.049 74.7679Z" fill="#FFA94D"/>
</svg>
