<svg width="126" height="126" viewBox="0 0 126 126" fill="none" xmlns="http://www.w3.org/2000/svg">
<path d="M45.6495 114.239L49.962 115.005L51.9127 104.017L55.024 104.569L53.0734 115.557L57.3663 116.319L56.8384 119.293L45.1216 117.213L45.6495 114.239Z" fill="white"/>
<path d="M36.8285 97.5213L39.6965 98.895L37.2601 103.982L42.3648 106.427L44.8011 101.34L47.6511 102.705L41.5256 115.494L38.6757 114.129L41.0775 109.114L35.9728 106.669L33.571 111.684L30.703 110.31L36.8285 97.5213Z" fill="white"/>
<path d="M30.0489 90.807L36.8733 96.6745L27.6286 107.427L20.8194 101.572L22.7622 99.3125L27.1753 103.107L28.9356 101.06L24.9319 97.6173L26.7444 95.5093L30.748 98.9516L32.5213 96.8891L28.093 93.0817L30.0489 90.807Z" fill="white"/>
<path d="M13.1958 90.6735L10.7993 85.9463C10.1783 84.7213 10.0051 83.5983 10.2797 82.5771C10.5543 81.5559 11.1911 80.7921 12.19 80.2857C12.8203 79.9661 13.4757 79.8581 14.156 79.9617C14.8303 80.0533 15.3923 80.3215 15.842 80.7663C15.6712 80.0755 15.7419 79.3745 16.054 78.6631C16.3541 77.9579 16.8907 77.4093 17.6637 77.0174C18.7103 76.4868 19.7594 76.4184 20.811 76.8121C21.8448 77.1999 22.6601 77.9825 23.257 79.1598L25.8434 84.2616L13.1958 90.6735ZM16.8693 85.358L16.0916 83.8239C15.8383 83.3244 15.5205 82.9922 15.1379 82.8274C14.7375 82.6567 14.3232 82.6799 13.895 82.8969C13.4788 83.1079 13.2241 83.4164 13.131 83.8224C13.0259 84.2344 13.109 84.708 13.3803 85.2432L14.14 86.7416L16.8693 85.358ZM22.1495 82.6811L21.2542 80.9151C20.9769 80.368 20.629 80.0062 20.2106 79.8297C19.7804 79.6591 19.3393 79.6884 18.8874 79.9175C18.4473 80.1406 18.1689 80.4761 18.0522 80.9239C17.9354 81.3718 18.0157 81.8693 18.293 82.4163L19.1883 84.1823L22.1495 82.6811Z" fill="white"/>
<path d="M19.7126 66.0874L21.7496 74.8538L7.93759 78.0633L5.90507 69.3163L8.80773 68.6418L10.125 74.3108L12.755 73.6997L11.5599 68.5567L14.2677 67.9275L15.4628 73.0705L18.1122 72.4548L16.7904 66.7664L19.7126 66.0874Z" fill="white"/>
<path d="M9.44128 54.8527L10.2055 57.7025C9.76472 57.7636 9.35532 57.9785 8.97733 58.3471C8.59933 58.7157 8.40556 59.28 8.39601 60.04C8.3888 60.6132 8.53626 61.0818 8.83837 61.4456C9.12716 61.8093 9.4782 61.9937 9.89151 61.9989C10.6248 62.0081 11.0839 61.5472 11.269 60.6161L11.6528 58.7208C11.9092 57.4172 12.4352 56.4171 13.2307 55.7204C14.013 55.0102 14.9241 54.6616 15.964 54.6746C17.1506 54.6896 18.1912 55.176 19.0859 56.134C19.9673 57.0918 20.3979 58.3707 20.3778 59.9705C20.3554 61.7571 19.878 63.1378 18.9457 64.1129C18.0002 65.0744 16.94 65.6078 15.7653 65.713L15.1018 62.8045C15.8092 62.7467 16.3993 62.4807 16.872 62.0066C17.3315 61.519 17.567 60.8153 17.5786 59.8954C17.5863 59.2821 17.4591 58.7938 17.1969 58.4304C16.9215 58.067 16.5638 57.8824 16.1238 57.8769C15.7638 57.8724 15.4622 58.0019 15.2188 58.2656C14.9622 58.529 14.7842 58.9002 14.6848 59.3789L14.3005 61.3143C14.0587 62.5113 13.5602 63.4518 12.8049 64.1357C12.0497 64.8063 11.1455 65.1349 10.0923 65.1217C8.78571 65.1053 7.70541 64.5916 6.85138 63.5808C5.99735 62.57 5.57905 61.3713 5.59648 59.9848C5.60704 59.1448 5.73641 58.3997 5.9846 57.7495C6.21963 57.0857 6.53289 56.5629 6.92439 56.1812C7.31588 55.7994 7.71962 55.5044 8.1356 55.2963C8.55175 55.0749 8.98698 54.927 9.44128 54.8527Z" fill="white"/>
<path d="M12.7014 41.3113L11.5713 45.543L22.3534 48.4226L21.538 51.4756L10.7559 48.596L9.63089 52.8084L6.71316 52.0291L9.7837 40.5321L12.7014 41.3113Z" fill="white"/>
<path d="M33.0687 31.2772L27.3794 38.6086L16.1768 29.9152L18.1142 27.4187L26.9308 34.2606L30.6829 29.4257L33.0687 31.2772Z" fill="white"/>
<path d="M36.8328 28.6699L34.401 30.7499L25.1838 19.9742L27.6156 17.8942L36.8328 28.6699Z" fill="white"/>
<path d="M43.1352 12.533L41.0354 14.6058C40.7644 14.2528 40.3753 14.003 39.868 13.8566C39.3608 13.7102 38.7745 13.8206 38.1091 14.1878C37.6071 14.4649 37.2727 14.8246 37.1057 15.2671C36.9323 15.6979 36.9454 16.0942 37.1452 16.4561C37.4996 17.0981 38.1272 17.2695 39.0281 16.9702L40.8655 16.3672C42.1254 15.9459 43.2548 15.9088 44.2536 16.2561C45.2577 16.5852 46.011 17.205 46.5136 18.1155C47.087 19.1544 47.1784 20.2995 46.7878 21.5507C46.3907 22.7903 45.4917 23.7967 44.0909 24.5699C42.5267 25.4332 41.0904 25.7006 39.782 25.372C38.4789 25.0252 37.4913 24.3672 36.8192 23.3979L39.0198 21.3837C39.4197 21.9702 39.9425 22.3517 40.5882 22.5283C41.2392 22.6868 41.9674 22.5437 42.7729 22.0992C43.3098 21.8028 43.6715 21.4509 43.8578 21.0434C44.0377 20.6243 44.0213 20.2222 43.8087 19.837C43.6347 19.5218 43.373 19.3236 43.0235 19.2423C42.6677 19.1494 42.257 19.1781 41.7917 19.3283L39.9193 19.9506C38.7592 20.3321 37.6952 20.3635 36.7274 20.0448C35.7712 19.7197 35.0386 19.0961 34.5296 18.1739C33.8982 17.0299 33.8108 15.8369 34.2675 14.5949C34.7242 13.353 35.5595 12.3969 36.7735 11.7268C37.5089 11.3209 38.2206 11.0651 38.9086 10.9595C39.6018 10.8358 40.2111 10.8498 40.7364 11.0014C41.2618 11.1531 41.7177 11.3583 42.1043 11.6171C42.5024 11.8694 42.8461 12.1747 43.1352 12.533Z" fill="white"/>
<path d="M56.5202 8.67351L52.2829 9.78234L55.1081 20.5788L52.0511 21.3788L49.2258 10.5823L45.0079 11.6861L44.2433 8.76444L55.7557 5.75189L56.5202 8.67351Z" fill="white"/>
<path d="M63.1929 19.9712L59.9961 20.1156L59.3559 5.9501L62.5526 5.80562L63.1929 19.9712Z" fill="white"/>
<path d="M78.7224 22.2684L75.4368 21.6683L71.3665 11.4506L69.6918 20.6189L66.6029 20.0547L69.1508 6.1055L72.9283 6.79549L76.6129 16.2311L78.1617 7.7514L81.2703 8.3192L78.7224 22.2684Z" fill="white"/>
<path d="M90.0765 28.8302L87.7991 27.6611L88.2787 26.2887C87.745 26.5693 87.0996 26.7026 86.3424 26.6886C85.5853 26.6746 84.7856 26.4514 83.9434 26.0191C82.1404 25.0936 80.9326 23.7093 80.32 21.8661C79.7254 20.0172 79.9274 18.1201 80.926 16.1747C81.9185 14.2413 83.3629 12.9894 85.2593 12.4191C87.1736 11.8431 89.0441 12.0239 90.8708 12.9616C92.5078 13.8019 93.6087 14.8541 94.1738 16.1183C94.7388 17.3825 94.9164 18.6278 94.7067 19.8539L91.5181 19.4087C91.6616 18.8079 91.5911 18.1423 91.3067 17.4118C91.0402 16.6755 90.4443 16.0699 89.5191 15.5949C88.5464 15.0956 87.507 14.9892 86.4008 15.2757C85.3125 15.5563 84.4365 16.3431 83.7728 17.6361C83.1274 18.8934 82.9838 20.0637 83.342 21.1468C83.7064 22.2181 84.4283 23.0307 85.5077 23.5848C86.4329 24.0598 87.2691 24.2117 88.0163 24.0408C88.7696 23.8579 89.3245 23.5507 89.6809 23.1192L85.891 21.1738L87.1149 18.7896L93.5381 22.0867L90.0765 28.8302Z" fill="white"/>
<path d="M96.5055 36.6536L94.4132 34.2324L105.142 24.961L107.235 27.3823L96.5055 36.6536Z" fill="white"/>
<path d="M104.313 50.2743L102.751 47.3223L108.256 37.8007L100.019 42.1607L98.5497 39.3855L111.082 32.752L112.879 36.1459L107.749 44.8804L115.368 40.8478L116.846 43.6407L104.313 50.2743Z" fill="white"/>
<path d="M116.814 66.8514L116.528 62.4807L105.392 63.2085L105.186 60.0552L116.322 59.3274L116.038 54.9767L119.051 54.7797L119.827 66.6544L116.814 66.8514Z" fill="white"/>
<path d="M102.685 79.4063L103.335 76.2934L108.856 77.4455L110.012 71.9049L104.491 70.7527L105.136 67.6594L119.017 70.5561L118.372 73.6495L112.929 72.5137L111.773 78.0543L117.216 79.1901L116.566 82.3031L102.685 79.4063Z" fill="white"/>
<path d="M97.7803 87.5933L101.85 79.5659L114.497 85.9778L110.437 93.9873L107.779 92.6398L110.411 87.4488L108.002 86.2279L105.615 90.9373L103.135 89.6802L105.523 84.9708L103.097 83.7409L100.456 88.9498L97.7803 87.5933Z" fill="white"/>
<path d="M86.8215 104.379L90.8833 112.841L88.395 114.916L82.2777 101.554L84.7814 99.4661L93.121 104.751L89.4354 95.5849L91.9851 93.4586L104.031 101.877L101.451 104.028L93.8384 98.5538L97.3959 107.41L94.9076 109.485L86.8215 104.379Z" fill="white"/>
<path d="M84.1953 110.967C84.6197 109.957 84.5371 108.825 83.9475 107.57C83.3579 106.315 82.5392 105.528 81.4912 105.21C80.4312 104.898 79.4064 104.974 78.4168 105.439C77.4272 105.904 76.7202 106.641 76.2959 107.651C75.8715 108.66 75.9541 109.793 76.5437 111.048C77.1333 112.303 77.952 113.089 79 113.407C80.0536 113.737 81.0752 113.67 82.0648 113.205C83.0544 112.74 83.7646 111.994 84.1953 110.967ZM86.9078 106.157C87.8431 108.148 87.9543 110.063 87.2413 111.9C86.5218 113.755 85.2329 115.12 83.3744 115.993C81.5159 116.866 79.649 116.984 77.7738 116.348C75.8986 115.711 74.4962 114.403 73.5664 112.424C72.6367 110.445 72.5255 108.531 73.2329 106.681C73.946 104.843 75.2317 103.488 77.0902 102.615C78.9487 101.742 80.8188 101.615 82.7004 102.234C84.5756 102.87 85.978 104.178 86.9078 106.157Z" fill="white"/>
<path d="M62.3949 106.042L71.5196 104.351L74.1031 118.294L70.996 118.87L68.9627 107.897L62.9452 109.012L62.3949 106.042Z" fill="white"/>
<path d="M63.4384 39.9944L70.4394 53.9886L86.0955 56.2465L74.7669 67.1334L77.4404 82.5136L63.4384 75.2482L49.4363 82.5136L52.1098 67.1334L40.7812 56.2465L56.4373 53.9886L63.4384 39.9944Z" fill="url(#paint0_angular_8639_2020)"/>
<defs>
<radialGradient id="paint0_angular_8639_2020" cx="0" cy="0" r="1" gradientUnits="userSpaceOnUse" gradientTransform="translate(63.4384 61.254) rotate(90) scale(21.2596 22.6571)">
<stop stop-color="#9CC4FF"/>
<stop offset="1" stop-color="#FF7F5D" stop-opacity="0.15"/>
</radialGradient>
</defs>
</svg>
