<svg width="428" height="213" viewBox="0 0 428 213" fill="none" xmlns="http://www.w3.org/2000/svg">
<mask id="mask0_8669_4994" style="mask-type:alpha" maskUnits="userSpaceOnUse" x="-126" y="0" width="645" height="213">
<rect x="-126" width="644.06" height="213" rx="9.20086" fill="#5959CD"/>
</mask>
<g mask="url(#mask0_8669_4994)">
<rect x="-99.1162" y="16.2656" width="644.06" height="213" rx="9.20086" fill="#5959CD"/>
<path opacity="0.2" d="M320.697 128.143C327.162 110.108 337.344 104.621 347.024 93.0557C358.852 78.9268 366.821 68.6603 363.758 50.4837C358.743 20.786 356.595 -53.273 435.151 -43.5956C463.309 -40.1261 485.559 -18.5347 501.736 3.02402C515.505 21.3642 540.284 22.9789 560.222 27.2558C584.729 32.5145 609.682 40.4463 632.346 52.0766C679.026 76.0138 692.968 110.447 691.072 154.491C690.494 167.802 688.619 188.761 666.151 213.287C635.834 246.389 591.782 250.829 538.757 235.62C526.624 232.14 515.145 226.685 503.208 222.572C490.802 218.306 477.895 215.502 464.846 214.236C434.388 211.29 402.817 216.615 373.612 207.515C358.165 202.704 343.982 193.899 332.809 182.182C318.855 167.551 313.895 147.16 320.719 128.121L320.697 128.143Z" fill="#EAE6FF"/>
<g clip-path="url(#clip0_8669_4994)">
<path d="M92.7949 125.895C92.6119 125.868 92.0813 125.378 90.7823 125.383C90.1099 125.383 85.2979 128.339 85.2979 128.339L80.7055 133.417L79.3149 137.041L82.2332 138.629L86.4368 129.675L90.764 127.057L92.7949 125.9V125.895Z" fill="#FFBF9D"/>
<path d="M79.2648 135.365C79.2648 135.365 72.6781 147.385 72.4951 147.142C72.3122 146.9 66.5808 141.775 66.5808 141.775C66.5808 141.775 63.7723 135.315 62.6105 132.99C61.7322 131.233 58.7271 130.172 58.7271 130.172L60.3875 151.48C60.1084 150.899 69.5677 157.327 71.6718 158.192C73.6798 159.015 75.7885 157.094 77.3254 156.119C78.8623 155.145 85.6091 140.073 85.6091 140.073L79.2648 135.374V135.365Z" fill="#FF725E"/>
<path d="M72.3361 153.174C72.2766 153.188 71.9976 151.98 72.0388 150.461C72.0754 148.942 72.4139 147.752 72.4733 147.766C72.5419 147.779 72.3132 148.974 72.2766 150.465C72.2355 151.957 72.4047 153.16 72.3361 153.169V153.174Z" fill="#263238"/>
<path d="M58.2284 94.2654C56.2844 93.6111 54.1895 95.3086 52.186 94.8556C50.9693 94.5811 50.0728 93.5791 49.0024 92.9385C47.4015 91.9822 45.1053 91.7718 43.422 92.5679C41.7387 93.364 40.641 94.2333 40.3619 96.0772C38.8754 95.1667 36.3001 96.9969 35.3899 98.8088C34.4796 100.621 34.6397 102.524 35.0743 104.51C35.8199 107.923 37.2378 111.185 39.2321 114.054C39.4105 114.31 39.6941 114.589 39.9777 114.47C40.1744 114.384 40.243 114.146 40.2842 113.935C40.6227 112.142 40.4488 110.302 40.3436 108.481C40.2384 106.66 40.2156 104.784 40.8376 103.073C41.4597 101.357 42.8594 99.82 44.657 99.518C45.9835 99.2938 47.3466 99.765 48.4993 100.456C49.6565 101.147 50.6628 102.057 51.756 102.84C52.8538 103.622 54.0888 104.29 55.4336 104.386C56.7784 104.482 58.2376 103.888 58.8459 102.689C59.4543 101.485 58.8596 99.7376 57.5514 99.4219C58.7636 99.3441 59.8476 98.3284 60.0077 97.125C60.1678 95.9217 59.3811 94.6589 58.2284 94.2699V94.2654Z" fill="#263238"/>
<path d="M56.3939 115.742C56.4076 113.248 56.0188 108.11 55.6117 103.461C55.1772 98.4651 50.9735 94.64 45.9603 94.6721H45.4617C40.0917 95.0244 38.0151 99.9887 38.5137 105.347L38.564 123.2L48.8923 131.866L50.754 128.219L51.3532 121.713C51.3532 121.713 56.3619 120.903 56.3893 115.737L56.3939 115.742Z" fill="#FFBF9D"/>
<path d="M51.358 121.722C51.358 121.722 47.9503 122.038 44.4648 119.883C44.4648 119.883 46.0887 123.497 51.2391 122.999L51.358 121.727V121.722Z" fill="#FF9A6C"/>
<path d="M53.3933 108.41C53.4116 108.799 53.0915 109.133 52.6889 109.16C52.2818 109.183 51.9388 108.891 51.9251 108.502C51.9068 108.113 52.2224 107.779 52.6295 107.751C53.0366 107.728 53.3796 108.021 53.3933 108.41Z" fill="#263238"/>
<path d="M54.518 106.003C54.4265 106.099 53.8639 105.692 53.0726 105.696C52.2813 105.696 51.7004 106.104 51.6135 106.008C51.5723 105.966 51.6638 105.793 51.9154 105.605C52.1624 105.417 52.5878 105.239 53.0818 105.234C53.5758 105.234 53.992 105.413 54.2344 105.596C54.4814 105.783 54.5638 105.953 54.518 105.998V106.003Z" fill="#263238"/>
<path d="M45.7 108.41C45.7183 108.799 45.3981 109.133 44.9956 109.16C44.5885 109.183 44.2454 108.891 44.2317 108.502C44.2134 108.113 44.5336 107.779 44.9361 107.751C45.3432 107.728 45.6863 108.021 45.7 108.41Z" fill="#263238"/>
<path d="M46.7207 106.198C46.6292 106.294 46.0666 105.887 45.2753 105.892C44.4839 105.892 43.903 106.299 43.8161 106.203C43.775 106.162 43.8664 105.988 44.118 105.8C44.365 105.613 44.7904 105.434 45.2844 105.43C45.7784 105.43 46.1947 105.608 46.4371 105.791C46.6795 105.979 46.7664 106.153 46.7207 106.194V106.198Z" fill="#263238"/>
<path d="M49.6383 112.06C49.6383 112.015 50.1277 111.928 50.9236 111.818C51.1248 111.795 51.317 111.754 51.349 111.617C51.3947 111.47 51.3078 111.251 51.2118 111.017C51.0196 110.528 50.8138 110.015 50.6034 109.48C49.7572 107.288 49.1397 105.486 49.2312 105.454C49.3181 105.422 50.0774 107.169 50.9236 109.361C51.1294 109.901 51.3215 110.418 51.5091 110.912C51.5868 111.141 51.7195 111.402 51.6188 111.708C51.564 111.859 51.4176 111.969 51.2895 112.006C51.1614 112.047 51.0471 112.051 50.9465 112.056C50.1414 112.106 49.6428 112.111 49.6383 112.065V112.06Z" fill="#263238"/>
<path d="M46.7708 102.129C46.693 102.344 45.9017 102.247 44.9686 102.366C44.0355 102.467 43.2853 102.746 43.1618 102.549C43.1069 102.458 43.235 102.252 43.5369 102.042C43.8342 101.831 44.3145 101.63 44.8725 101.561C45.4306 101.497 45.9429 101.579 46.2814 101.717C46.6244 101.854 46.7982 102.019 46.7662 102.124L46.7708 102.129Z" fill="#263238"/>
<path d="M54.2127 103.701C54.0755 103.884 53.5266 103.701 52.8679 103.696C52.2092 103.669 51.6558 103.824 51.5231 103.637C51.4682 103.545 51.5506 103.362 51.793 103.193C52.0309 103.019 52.4334 102.882 52.8816 102.891C53.3345 102.9 53.7279 103.065 53.9566 103.248C54.1898 103.431 54.2676 103.619 54.2081 103.705L54.2127 103.701Z" fill="#263238"/>
<path d="M38.7427 108.934C38.6558 108.897 34.777 107.941 34.9142 111.469C35.0514 115.001 38.5689 114.136 38.5689 114.031C38.5689 113.93 38.7427 108.929 38.7427 108.929V108.934Z" fill="#FFBF9D"/>
<path d="M37.4392 112.741C37.4392 112.741 37.3798 112.786 37.2791 112.837C37.1785 112.887 37.0047 112.924 36.8217 112.864C36.4421 112.741 36.1082 112.16 36.067 111.528C36.0441 111.208 36.099 110.897 36.2042 110.641C36.3003 110.38 36.4604 110.192 36.6479 110.151C36.8309 110.101 36.9681 110.206 37.0184 110.307C37.0687 110.403 37.0504 110.476 37.0687 110.48C37.0779 110.49 37.1419 110.416 37.1099 110.274C37.0916 110.206 37.0459 110.124 36.9635 110.059C36.8766 109.995 36.7485 109.963 36.6205 109.982C36.3506 110.009 36.1127 110.27 35.9984 110.554C35.8703 110.837 35.7971 111.185 35.8246 111.546C35.8749 112.256 36.2637 112.91 36.7806 113.038C37.0321 113.093 37.2334 113.011 37.3386 112.924C37.4438 112.832 37.4621 112.754 37.4484 112.745L37.4392 112.741Z" fill="#FF9A6C"/>
<path d="M55.6391 98.64C55.1725 97.6289 54.3492 96.8236 53.4527 96.1556C51.527 94.7189 49.1667 93.8358 46.7653 93.8129C44.3639 93.7901 41.9351 94.6685 40.2106 96.3432C38.8292 97.6792 37.9373 99.4773 37.5256 101.353C37.1185 103.234 36.9401 105.755 37.2923 107.644C37.4478 108.473 37.9144 108.77 38.5045 109.379C38.8704 109.758 39.497 110.005 39.9133 109.681C40.1603 109.488 40.2472 109.164 40.3204 108.862C40.9836 106.13 41.6332 103.197 40.6177 100.58C41.2855 99.6969 42.0677 98.8688 43.0328 98.3289C43.998 97.7844 45.1735 97.5511 46.2393 97.8668C47.8174 98.3426 48.7962 99.8662 50.0587 100.923C51.8654 102.433 54.4224 102.991 56.6957 102.374L55.6391 98.6446V98.64Z" fill="#263238"/>
<path d="M34.8279 103.275C34.8324 103.238 35.2075 103.275 35.8021 103.233C36.3968 103.192 37.2155 103.028 38.0389 102.639C38.8622 102.245 39.5072 101.714 39.9143 101.28C40.3259 100.845 40.5272 100.529 40.5638 100.548C40.5821 100.557 40.4266 100.909 40.0332 101.385C39.6444 101.861 38.9903 102.433 38.1349 102.84C37.2796 103.243 36.4196 103.389 35.8067 103.389C35.1892 103.389 34.8187 103.293 34.8233 103.27L34.8279 103.275Z" fill="#E0E0E0"/>
<path d="M34.8828 105.003C34.8828 104.967 35.2853 104.93 35.9166 104.77C36.5478 104.61 37.394 104.294 38.2265 103.759C39.059 103.219 39.6948 102.574 40.0973 102.066C40.5044 101.558 40.7011 101.201 40.7377 101.219C40.7606 101.229 40.6096 101.613 40.2254 102.162C39.8457 102.706 39.2054 103.393 38.35 103.946C37.4901 104.5 36.6027 104.802 35.9532 104.921C35.2991 105.044 34.8828 105.026 34.8828 105.003Z" fill="#E0E0E0"/>
<path d="M58.4074 100.583C58.4348 100.592 58.3937 100.83 58.2107 101.174C58.0323 101.517 57.6801 101.951 57.1633 102.258C56.6464 102.564 56.0929 102.661 55.7087 102.651C55.3199 102.647 55.0912 102.564 55.0958 102.537C55.1003 102.5 55.3336 102.528 55.6996 102.491C56.0655 102.459 56.5686 102.345 57.0489 102.061C57.5292 101.778 57.8722 101.393 58.0781 101.087C58.2839 100.78 58.3754 100.565 58.4074 100.579V100.583Z" fill="#E0E0E0"/>
<path d="M58.8237 101.305C58.8465 101.314 58.8054 101.543 58.627 101.872C58.4532 102.201 58.1238 102.618 57.6573 102.952C57.1861 103.281 56.6876 103.455 56.3171 103.51C55.9465 103.57 55.7178 103.533 55.7178 103.51C55.7087 103.441 56.6372 103.414 57.5246 102.773C58.4257 102.151 58.7596 101.277 58.8191 101.314L58.8237 101.305Z" fill="#E0E0E0"/>
<path d="M47.3789 113.023C48.129 113.307 48.8609 113.659 49.5607 114.076L50.3017 114.501C49.9724 114.904 49.6019 115.581 49.1536 115.755C48.7054 115.924 47.9644 115.869 47.6259 115.508C47.356 115.22 47.2371 114.771 47.2234 114.332C47.2142 113.893 47.2965 113.458 47.3835 113.023H47.3789Z" fill="#FF9A6C"/>
<path d="M49.9404 114.986C49.9404 114.986 49.8627 115.086 49.7209 115.242C49.5836 115.402 49.3366 115.604 48.9707 115.672C48.6139 115.741 48.1337 115.677 47.7403 115.402C47.3744 115.123 47.2417 114.519 47.3057 113.966C47.3423 113.636 47.4384 113.316 47.5436 113.023L47.3789 113.087C48.2297 113.522 48.9753 113.888 49.515 114.139C50.0502 114.391 50.3795 114.533 50.3933 114.505C50.407 114.478 50.1051 114.295 49.5882 114.002C49.0713 113.709 48.3395 113.316 47.4933 112.872L47.3789 112.812L47.3286 112.936C47.2097 113.238 47.1091 113.577 47.0679 113.938C47.0039 114.547 47.1273 115.215 47.6076 115.581C48.0788 115.896 48.6048 115.933 49.0073 115.837C49.4144 115.736 49.6705 115.485 49.794 115.297C49.9221 115.109 49.9496 114.986 49.9404 114.981V114.986Z" fill="#263238"/>
<path d="M59.074 176.592C59.074 176.592 60.5468 182.298 60.0117 189.248C59.8058 191.938 50.7308 266.344 50.7308 266.344H38.4813L41.9256 196.413L40.9239 196.632C40.9239 196.632 34.2365 226.46 33.6922 231.287C33.2028 235.629 27.197 269.743 27.197 269.743L15.6382 269.615L19.9378 225.577L24.1003 185.555L25.6646 173.906L59.074 176.592Z" fill="#263238"/>
<path d="M40.7544 189.275C40.7544 189.275 40.9282 189.394 41.2667 189.563C41.6052 189.723 42.1038 189.966 42.7853 190.094C43.1238 190.153 43.508 190.171 43.9151 190.103C44.3176 190.03 44.7476 189.86 45.0952 189.535C45.4429 189.211 45.667 188.758 45.8088 188.282C45.9552 187.806 46.0375 187.312 46.1381 186.809C46.5269 184.791 46.7922 182.947 46.9477 181.611C47.0255 180.943 47.0758 180.398 47.1032 180.023C47.1307 179.648 47.1353 179.438 47.117 179.438C47.0987 179.438 47.0575 179.639 47.0026 180.014C46.9386 180.44 46.8608 180.966 46.7648 181.588C46.5635 182.915 46.2708 184.75 45.882 186.763C45.6853 187.756 45.5481 188.771 44.926 189.366C44.3039 189.947 43.4394 190.011 42.8127 189.915C42.1632 189.819 41.6555 189.604 41.3079 189.471C40.9602 189.334 40.7635 189.256 40.7544 189.275Z" fill="#263238"/>
<path d="M44.4416 179.786C44.4416 179.786 44.3638 179.722 44.19 179.713C44.0208 179.699 43.76 179.754 43.5039 179.933C43.2569 180.111 42.9962 180.436 42.987 180.88C42.9687 181.328 43.3164 181.767 43.7738 181.932C44.2266 182.11 44.7755 182.005 45.0591 181.657C45.3427 181.319 45.3564 180.903 45.2924 180.605C45.2192 180.299 45.0591 180.093 44.9219 179.987C44.7846 179.882 44.6886 179.869 44.684 179.878C44.652 179.91 45.0271 180.084 45.114 180.637C45.1506 180.898 45.1094 181.246 44.8807 181.497C44.6611 181.754 44.2403 181.831 43.8698 181.69C43.4947 181.548 43.2294 181.218 43.234 180.88C43.2294 180.541 43.4261 180.253 43.6228 180.079C44.0528 179.718 44.4507 179.836 44.4462 179.791L44.4416 179.786Z" fill="#263238"/>
<path d="M25.0288 184.836C25.0288 184.836 25.1752 184.878 25.4451 184.901C25.7149 184.928 26.1083 184.937 26.5932 184.914C27.5629 184.873 28.9077 184.635 30.2799 184.059C31.6521 183.478 32.7591 182.681 33.468 182.013C33.8248 181.684 34.0947 181.396 34.2594 181.181C34.4286 180.97 34.5155 180.847 34.5064 180.838C34.4698 180.806 34.0764 181.258 33.3491 181.876C32.6218 182.494 31.524 183.249 30.1793 183.816C28.8345 184.379 27.5263 184.64 26.5794 184.727C25.628 184.818 25.0288 184.786 25.0288 184.832V184.836Z" fill="#263238"/>
<path d="M54.8061 180.021C54.7832 180.034 54.9662 180.529 55.3733 181.27C55.7758 182.011 56.4208 182.981 57.267 183.905C58.1178 184.83 58.996 185.525 59.6684 185.955C60.3408 186.39 60.7845 186.582 60.7982 186.554C60.8165 186.518 60.3957 186.266 59.7553 185.8C59.1149 185.333 58.2641 184.628 57.4317 183.718C56.5992 182.807 55.9496 181.874 55.5151 181.165C55.0806 180.46 54.8473 179.998 54.8107 180.016L54.8061 180.021Z" fill="#263238"/>
<path d="M112.935 123.118L113.196 101.788C113.434 96.4846 110.548 91.9229 105.237 91.8359L104.748 91.8542C99.8075 92.0601 95.8509 96.0225 95.6542 100.964C95.4758 105.562 95.334 110.646 95.4667 113.103C95.7411 118.19 100.864 118.772 100.864 118.772C100.873 118.772 100.896 121.869 100.892 123.365L99.6977 126.856L103.883 125.836L112.935 123.118Z" fill="#AE7461"/>
<path d="M100.86 118.772C100.86 118.772 104.076 118.827 107.406 116.539C107.406 116.539 105.97 120.433 100.874 120.181L100.86 118.772Z" fill="#6F4439"/>
<path d="M98.2579 105.538C98.2579 105.922 98.5872 106.238 98.9897 106.243C99.3922 106.247 99.7124 105.941 99.7124 105.556C99.7124 105.172 99.3831 104.856 98.9806 104.852C98.578 104.847 98.2533 105.154 98.2579 105.538Z" fill="#303360"/>
<path d="M96.8298 103.162C96.9259 103.253 97.4565 102.823 98.2386 102.791C99.0208 102.75 99.6109 103.13 99.6886 103.029C99.7298 102.983 99.6292 102.819 99.373 102.645C99.1214 102.475 98.6915 102.315 98.2066 102.338C97.7218 102.361 97.3192 102.558 97.0905 102.75C96.8573 102.947 96.7841 103.121 96.8298 103.162Z" fill="#303360"/>
<path d="M105.663 105.358C105.663 105.743 105.992 106.058 106.394 106.063C106.797 106.067 107.117 105.761 107.117 105.377C107.117 104.992 106.788 104.677 106.385 104.672C105.983 104.667 105.663 104.974 105.663 105.358Z" fill="#303360"/>
<path d="M104.5 103.037C104.596 103.128 105.127 102.698 105.909 102.666C106.691 102.625 107.281 103.005 107.359 102.904C107.4 102.858 107.3 102.694 107.043 102.52C106.792 102.35 106.362 102.19 105.877 102.213C105.392 102.236 104.99 102.433 104.761 102.625C104.528 102.822 104.454 102.996 104.5 103.037Z" fill="#303360"/>
<path d="M101.943 109.156C101.943 109.11 101.454 109.046 100.663 108.977C100.461 108.964 100.269 108.932 100.233 108.799C100.178 108.657 100.256 108.437 100.343 108.2C100.512 107.71 100.686 107.193 100.869 106.653C101.6 104.452 102.117 102.65 102.03 102.618C101.943 102.59 101.276 104.347 100.548 106.548C100.375 107.092 100.205 107.605 100.045 108.103C99.9812 108.332 99.8577 108.598 99.972 108.89C100.031 109.037 100.182 109.138 100.311 109.17C100.439 109.202 100.553 109.202 100.654 109.202C101.449 109.211 101.939 109.192 101.939 109.151L101.943 109.156Z" fill="#303360"/>
<path d="M104.147 100.593C104.262 100.79 105.012 100.547 105.936 100.488C106.86 100.41 107.633 100.543 107.72 100.332C107.756 100.232 107.592 100.058 107.262 99.9113C106.933 99.7649 106.43 99.6551 105.881 99.6962C105.327 99.7374 104.847 99.9159 104.545 100.108C104.239 100.305 104.101 100.497 104.152 100.593H104.147Z" fill="#303360"/>
<path d="M96.6967 100.87C96.8659 101.044 97.4972 100.843 98.261 100.816C99.0249 100.765 99.679 100.898 99.8254 100.706C99.8894 100.614 99.7797 100.44 99.4961 100.276C99.2125 100.116 98.7413 99.992 98.2153 100.019C97.6893 100.047 97.2364 100.221 96.9757 100.408C96.7104 100.596 96.6281 100.784 96.7013 100.87H96.6967Z" fill="#303360"/>
<path d="M112.935 105.577C113.021 105.536 116.388 104.397 116.42 107.883C116.452 111.37 112.948 110.684 112.944 110.583C112.935 110.482 112.935 105.577 112.935 105.577Z" fill="#AE7461"/>
<path d="M113.991 109.251C113.991 109.251 114.05 109.292 114.155 109.338C114.256 109.383 114.43 109.411 114.608 109.342C114.974 109.205 115.281 108.615 115.29 107.988C115.294 107.672 115.226 107.37 115.111 107.119C115.002 106.867 114.837 106.689 114.649 106.657C114.466 106.615 114.334 106.73 114.293 106.826C114.247 106.922 114.27 106.995 114.251 107C114.242 107.009 114.178 106.94 114.201 106.798C114.215 106.73 114.256 106.647 114.338 106.579C114.421 106.51 114.544 106.474 114.672 106.487C114.942 106.506 115.185 106.748 115.313 107.023C115.454 107.297 115.537 107.636 115.532 107.993C115.519 108.697 115.162 109.356 114.663 109.507C114.421 109.571 114.215 109.502 114.105 109.42C113.995 109.333 113.977 109.255 113.991 109.251Z" fill="#6F4439"/>
<path d="M104.4 109.649C104.281 109.639 104.277 110.44 103.586 111.007C102.9 111.575 102.049 111.479 102.04 111.593C102.031 111.643 102.227 111.749 102.589 111.762C102.941 111.776 103.458 111.666 103.879 111.319C104.299 110.971 104.478 110.509 104.51 110.179C104.542 109.845 104.455 109.644 104.4 109.649Z" fill="#303360"/>
<path d="M88.6226 96.376C88.6775 96.1701 88.8239 96.0008 89.0068 95.891C89.4048 95.6485 89.8622 95.6759 90.3059 95.6668C91.4128 95.6348 92.506 95.3419 93.4849 94.8295C93.1373 94.6602 92.8171 94.4497 92.5381 94.1843C91.9709 93.6307 91.637 92.7705 91.884 92.0156C91.9297 91.8737 92.012 91.7228 92.1538 91.677C92.378 91.6038 92.5792 91.8234 92.7393 91.9973C93.2653 92.5692 93.7456 92.8163 94.5186 92.7293C94.9989 92.6744 95.4609 92.5601 95.8406 92.3221C95.8543 92.3084 95.868 92.2901 95.8817 92.2718C96.0601 92.0842 96.2339 91.9012 96.4078 91.7273C97.7022 90.4096 98.8183 89.4991 99.9756 89.0187C101.668 88.3141 104.509 88.0029 106.288 88.4513C108.067 88.8951 109.677 90.3181 109.943 92.13C110.926 91.2789 112.422 91.2698 113.638 91.7411L113.67 91.7273C115.024 92.194 115.807 93.6078 116.223 94.9805C116.246 95.0537 116.264 95.1315 116.287 95.2047C116.749 95.923 117.38 96.5361 118.121 96.9571C118.254 97.0303 118.405 97.1218 118.418 97.2728C118.437 97.4192 118.313 97.5473 118.19 97.6342C117.87 97.8676 117.494 98.0277 117.101 98.1009C117.229 98.4258 117.375 98.7415 117.558 99.0435C117.714 99.2997 117.897 99.6062 117.769 99.8762C117.668 100.087 117.408 100.174 117.174 100.142C116.946 100.11 116.74 99.986 116.543 99.8625C116.699 100.219 116.854 100.581 117.005 100.938C116.52 101.029 116.012 100.993 115.537 100.855C115.267 102.146 115.075 104.529 114.755 105.408C113.831 105.435 113.606 105.335 113.14 105.495C112.541 105.701 112.783 106.767 111.992 106.474C111.589 106.323 110.958 104.818 110.821 104.41C109.901 101.72 109.577 98.8284 109.865 95.9962C109.298 95.406 108.621 94.9256 107.875 94.5916L107.935 94.6465C106.503 94.166 104.888 93.6993 103.543 94.3857C102.5 94.9164 101.897 96.0099 101.124 96.8884C99.6554 98.5493 97.9858 99.4461 95.772 99.5696C95.589 101.112 95.5615 103.628 95.5021 105.065L94.2442 102.205V102.219C94.1436 102.05 94.0567 101.885 93.9789 101.716L93.9515 101.665C93.8234 101.386 93.6999 101.116 93.5398 100.846L93.5261 100.86C92.7576 101.555 91.6004 100.517 92.2041 99.6749C92.3231 99.5056 92.4694 99.3592 92.6341 99.2356C92.2819 99.5742 91.7559 99.7389 91.2847 99.6017C90.8182 99.4644 90.4523 98.9977 90.4843 98.5081C90.5071 98.1741 90.7404 97.8767 91.0378 97.744C90.4111 97.7989 89.7661 97.6708 89.2173 97.3643C88.8559 97.1629 88.4991 96.8289 88.618 96.376H88.6226Z" fill="#303360"/>
<path d="M108.346 92.7344C108.346 92.7344 108.561 92.8671 108.863 93.1965C109.16 93.5259 109.499 94.0979 109.664 94.8803C109.746 95.2692 109.805 95.7038 109.81 96.1751C109.819 96.6464 109.787 97.1497 109.755 97.6804C109.728 98.2112 109.696 98.7694 109.737 99.355C109.755 99.6433 109.796 99.9407 109.86 100.238C109.929 100.526 110.007 100.842 110.231 101.089C110.409 101.29 110.702 101.377 110.953 101.322C111.21 101.277 111.434 101.135 111.598 100.947C111.923 100.563 111.996 100.073 112.074 99.6433L111.969 99.657C112.147 100.041 112.33 100.417 112.6 100.719C112.865 101.02 113.231 101.217 113.597 101.249C113.78 101.263 113.963 101.231 114.123 101.153C114.283 101.071 114.398 100.938 114.475 100.796C114.549 100.654 114.59 100.494 114.581 100.343C114.572 100.192 114.508 100.05 114.411 99.9498L114.357 100C114.755 100.444 115.171 100.682 115.459 100.81C115.605 100.874 115.72 100.915 115.802 100.938C115.88 100.961 115.921 100.97 115.925 100.966C115.925 100.966 115.889 100.947 115.811 100.92C115.733 100.888 115.624 100.847 115.482 100.773C115.203 100.636 114.796 100.394 114.416 99.9498L114.361 100C114.535 100.179 114.549 100.499 114.402 100.76C114.329 100.888 114.224 101.007 114.082 101.075C113.94 101.144 113.776 101.171 113.606 101.158C113.268 101.126 112.929 100.943 112.678 100.654C112.422 100.366 112.248 100 112.07 99.6158L111.996 99.4511L111.964 99.6296C111.887 100.06 111.804 100.526 111.511 100.874C111.365 101.043 111.159 101.167 110.935 101.208C110.711 101.254 110.478 101.181 110.322 101.011C110.13 100.796 110.048 100.499 109.979 100.215C109.915 99.927 109.874 99.6387 109.856 99.3505C109.814 98.7785 109.842 98.2203 109.869 97.6896C109.897 97.1588 109.924 96.6555 109.915 96.1797C109.906 95.7038 109.846 95.2646 109.755 94.8665C109.577 94.075 109.22 93.4939 108.904 93.169C108.589 92.8442 108.355 92.7389 108.355 92.7389L108.346 92.7344Z" fill="#455A64"/>
<path d="M92.6294 97.8663C92.6294 97.8663 92.6432 97.88 92.6706 97.9029L92.7987 97.9944C92.8536 98.0355 92.9268 98.0813 93.0182 98.1316C93.1052 98.182 93.2058 98.2414 93.3293 98.2918C93.805 98.5114 94.5689 98.7264 95.5157 98.6578C96.4534 98.5938 97.5786 98.246 98.5804 97.4865C99.5912 96.7407 100.474 95.6517 101.188 94.4072C101.554 93.785 101.846 93.149 102.171 92.5588C102.496 91.9685 102.853 91.424 103.292 90.994C103.726 90.5593 104.229 90.239 104.751 90.0834C105.012 90.0011 105.272 89.9828 105.524 89.9874C105.775 89.9965 106.013 90.0468 106.233 90.1155C106.672 90.2573 107.033 90.4952 107.303 90.7423C107.578 90.9894 107.761 91.2548 107.889 91.4835C108.127 91.9502 108.14 92.2522 108.159 92.243C108.159 92.243 108.159 92.2247 108.154 92.1881C108.145 92.147 108.14 92.0966 108.127 92.0326C108.099 91.8953 108.04 91.6986 107.925 91.4606C107.802 91.2273 107.619 90.9528 107.344 90.692C107.07 90.4358 106.709 90.1841 106.256 90.0331C106.032 89.9599 105.785 89.905 105.524 89.8913C105.263 89.8867 104.989 89.905 104.719 89.9874C104.174 90.1383 103.653 90.4724 103.209 90.9116C102.757 91.3508 102.391 91.9045 102.061 92.4993C101.732 93.0941 101.435 93.7255 101.073 94.3432C100.36 95.5785 99.4952 96.6538 98.5026 97.3904C97.5237 98.1454 96.4214 98.4931 95.4974 98.5663C94.5643 98.6441 93.8141 98.4428 93.3339 98.2414C92.8536 98.0355 92.6249 97.848 92.6157 97.8617L92.6294 97.8663Z" fill="#455A64"/>
<path d="M92.1403 95.631C92.1403 95.631 92.1998 95.6813 92.3233 95.7545C92.4468 95.8323 92.6298 95.9238 92.8676 96.0245C93.1055 96.1252 93.3982 96.2212 93.7275 96.2944C94.0614 96.3676 94.432 96.418 94.8253 96.4271C95.2187 96.4317 95.5938 96.3951 95.9277 96.3402C96.2616 96.2761 96.5589 96.1938 96.7968 96.1023C97.0392 96.0108 97.2267 95.9284 97.3502 95.8552C97.4783 95.7866 97.5424 95.7454 97.5378 95.7362C97.5286 95.7179 97.2496 95.8644 96.7648 96.0199C96.5223 96.0977 96.2296 96.1709 95.9048 96.2258C95.5755 96.2761 95.2096 96.3082 94.8253 96.3036C94.4411 96.2944 94.0752 96.2487 93.7458 96.1846C93.4211 96.116 93.1283 96.0291 92.895 95.9421C92.4193 95.7683 92.1449 95.6081 92.1357 95.6264L92.1403 95.631Z" fill="#455A64"/>
<path d="M88.0122 175.002C88.0122 175.002 86.3014 180.63 86.5393 187.589C86.6308 190.279 92.536 264.895 92.536 264.895L104.758 265.412L104.282 195.5L105.275 195.761C105.275 195.761 110.686 225.798 111.025 230.639C111.331 234.99 115.621 266.689 115.621 266.689L126.75 266.382L124.985 225.528L122.524 185.425L121.453 173.734L88.0076 175.002H88.0122Z" fill="#303360"/>
<path d="M106.51 188.466C106.51 188.466 106.332 188.58 105.988 188.731C105.641 188.878 105.133 189.097 104.452 189.198C104.113 189.244 103.724 189.248 103.326 189.157C102.928 189.07 102.508 188.878 102.174 188.544C101.84 188.205 101.634 187.743 101.515 187.267C101.391 186.787 101.327 186.288 101.25 185.785C100.943 183.753 100.76 181.905 100.664 180.564C100.614 179.891 100.586 179.351 100.577 178.976C100.568 178.601 100.568 178.391 100.586 178.391C100.605 178.391 100.637 178.597 100.678 178.967C100.724 179.393 100.783 179.923 100.847 180.546C100.989 181.882 101.204 183.721 101.51 185.743C101.666 186.745 101.757 187.761 102.352 188.379C102.947 188.987 103.807 189.083 104.438 189.019C105.092 188.951 105.604 188.759 105.956 188.64C106.309 188.516 106.51 188.452 106.515 188.466H106.51Z" fill="#455A64"/>
<path d="M103.235 178.846C103.235 178.846 103.318 178.786 103.491 178.781C103.661 178.777 103.917 178.836 104.164 179.029C104.402 179.221 104.649 179.555 104.64 179.994C104.64 180.442 104.274 180.868 103.812 181.01C103.354 181.165 102.805 181.042 102.545 180.68C102.279 180.328 102.279 179.912 102.357 179.619C102.444 179.317 102.613 179.115 102.755 179.019C102.897 178.919 102.993 178.91 102.997 178.919C103.029 178.955 102.645 179.111 102.535 179.66C102.485 179.921 102.517 180.269 102.732 180.529C102.938 180.795 103.354 180.886 103.734 180.763C104.114 180.639 104.393 180.319 104.402 179.98C104.42 179.642 104.237 179.344 104.045 179.166C103.633 178.786 103.231 178.887 103.235 178.841V178.846Z" fill="#455A64"/>
<path d="M122.386 184.706C122.386 184.706 122.24 184.738 121.965 184.752C121.695 184.77 121.302 184.761 120.817 184.715C119.852 184.633 118.521 184.34 117.171 183.704C115.827 183.068 114.756 182.222 114.075 181.531C113.732 181.188 113.476 180.886 113.32 180.666C113.16 180.446 113.078 180.323 113.091 180.314C113.128 180.286 113.498 180.753 114.203 181.398C114.903 182.048 115.964 182.844 117.281 183.471C118.599 184.088 119.893 184.404 120.835 184.532C121.782 184.665 122.377 184.656 122.381 184.701L122.386 184.706Z" fill="#455A64"/>
<path d="M92.8826 178.634C92.9101 178.647 92.6814 179.132 92.1965 179.855C91.7162 180.574 90.9524 181.512 89.9643 182.395C88.9763 183.278 87.9563 183.927 87.1879 184.325C86.4194 184.728 85.9117 184.897 85.898 184.87C85.8797 184.833 86.3599 184.6 87.0964 184.165C87.8328 183.731 88.8162 183.067 89.7859 182.198C90.7557 181.329 91.5241 180.427 92.041 179.745C92.5579 179.064 92.8415 178.611 92.878 178.634H92.8826Z" fill="#455A64"/>
<path d="M37.5021 121.971L38.4397 120.352L46.7143 128.24L48.0042 130.573C48.0728 130.468 49.2484 128.057 49.2484 128.057L51.0277 125.421L51.7001 126.336L56.352 176.268C56.352 176.268 51.4897 178.057 47.4965 178.199C43.5033 178.341 39.2356 178.199 39.2356 178.199C39.2356 178.199 35.1738 171.999 35.1738 171.725C35.1738 171.45 38.3391 133.662 38.3391 133.662L37.5112 121.976L37.5021 121.971Z" fill="#F5F5F5"/>
<path d="M42.1315 134.615C41.1664 130.538 37.0863 120.984 37.0863 120.984L34.0811 124.851C34.0811 124.851 25.0655 128.392 24.5303 128.822C23.9951 129.252 26.6756 156.622 26.6756 156.622L24.4571 164.35L16.9922 191.455C16.9922 191.455 28.7705 195.111 33.1708 194.255C37.5711 193.395 38.1566 187.964 38.9067 185.173C39.6569 182.382 42.5569 162.095 43.0921 153.616C43.6272 145.138 43.0921 138.696 42.1269 134.619L42.1315 134.615Z" fill="#FF725E"/>
<path d="M42.9408 155.682C42.9408 155.682 42.8859 155.568 42.8081 155.344C42.7212 155.097 42.6115 154.772 42.4697 154.364C42.1769 153.486 41.7652 152.255 41.2621 150.745C40.2558 147.661 38.879 143.443 37.3604 138.785C36.8389 137.161 36.3312 135.596 35.8555 134.114L35.8372 134.05L35.8783 133.999C36.5324 133.253 37.1637 132.54 37.7629 131.858L37.8452 132.036C36.8115 132.036 35.8463 132.027 34.9498 132.023H34.8629L34.8537 131.94C34.6113 129.794 34.41 128.033 34.2682 126.775C34.2088 126.175 34.1585 125.699 34.1219 125.347C34.1082 125.196 34.099 125.073 34.0899 124.972C34.0853 124.89 34.0853 124.844 34.0899 124.844C34.0944 124.844 34.1036 124.885 34.1173 124.967L34.1768 125.338C34.2271 125.686 34.2911 126.161 34.3735 126.756C34.5336 128.01 34.7623 129.771 35.0413 131.913L34.9452 131.83C35.8418 131.83 36.8115 131.821 37.8406 131.817H38.0785L37.923 131.995C37.3283 132.681 36.7017 133.4 36.0522 134.146L36.075 134.036C36.5553 135.514 37.063 137.083 37.5891 138.707C39.0848 143.374 40.4342 147.602 41.4222 150.69C41.8979 152.209 42.2821 153.449 42.5566 154.332C42.6801 154.749 42.7807 155.078 42.8539 155.325C42.9179 155.554 42.9499 155.673 42.9408 155.678V155.682Z" fill="#263238"/>
<path d="M51.6783 126C51.8018 126.242 53.1009 128.347 53.1009 128.347C53.1009 128.347 59.0747 129.628 60.3875 131.335C61.7002 133.042 62.2903 137.37 62.2903 137.37L60.5658 157.383L59.6373 171.42C59.6373 171.42 60.7808 187.283 60.9364 189.846C61.0919 192.408 60.6207 195.336 59.6373 195.213C58.6539 195.089 58.1644 195.579 57.675 192.833C57.1856 190.088 53.7047 167.142 53.7047 167.142L52.3096 147.198L51.0288 131.642L51.6829 126H51.6783Z" fill="#FF725E"/>
<path d="M54.3949 157.024C54.3949 157.024 54.3949 156.919 54.4087 156.727C54.4315 156.507 54.459 156.223 54.4956 155.876C54.5871 155.107 54.7151 154.045 54.8661 152.746C55.2046 150.083 55.6711 146.45 56.1834 142.433C56.4213 140.644 56.6454 138.928 56.8558 137.354L56.897 137.455C56.1285 136.823 55.4012 136.229 54.7243 135.675L54.6465 135.611L54.706 135.533C54.9896 135.172 55.2594 134.829 55.5202 134.499L55.511 134.595C54.7883 133.108 54.1937 131.891 53.7683 131.013C53.5762 130.605 53.4207 130.276 53.3017 130.024C53.1965 129.796 53.1462 129.677 53.1554 129.672C53.1645 129.667 53.2285 129.782 53.352 130.001C53.4801 130.244 53.6494 130.569 53.8643 130.967C54.308 131.836 54.9301 133.04 55.6803 134.513L55.7077 134.563L55.6711 134.609C55.4195 134.938 55.1542 135.286 54.8707 135.652L54.8569 135.515C55.5385 136.064 56.2703 136.65 57.0434 137.276L57.0937 137.318L57.0845 137.382C56.8787 138.96 56.6591 140.676 56.4259 142.465C55.8861 146.473 55.3967 150.106 55.0399 152.769C54.8524 154.064 54.7014 155.121 54.5916 155.889C54.5367 156.237 54.491 156.516 54.459 156.736C54.427 156.928 54.4041 157.029 54.3949 157.029V157.024Z" fill="#263238"/>
<path d="M24.196 172.627C24.196 172.627 24.1777 172.741 24.1274 172.938C24.0725 173.153 23.9948 173.436 23.9078 173.78C23.8072 174.15 23.6883 174.589 23.5556 175.093C23.487 175.349 23.4093 175.619 23.3315 175.907C23.2675 176.2 23.112 176.497 23.1989 176.79C23.272 177.092 23.5236 177.326 23.8758 177.399C24.228 177.504 24.5894 177.609 24.969 177.724C25.7238 177.943 26.5334 178.177 27.3887 178.41C28.2441 178.643 29.1406 178.877 30.0783 179.087C30.5494 179.192 31.0252 179.293 31.5146 179.371C31.757 179.407 32.004 179.439 32.251 179.458C32.3745 179.462 32.498 179.467 32.6124 179.458C32.6718 179.458 32.7267 179.444 32.777 179.43C32.8228 179.416 32.8548 179.398 32.896 179.352C33.1567 179.105 33.2893 178.684 33.3991 178.305C33.5089 177.916 33.5866 177.518 33.6461 177.129C33.7696 176.346 33.8428 175.573 33.8885 174.841L33.9754 174.955C31.1578 174.297 28.7381 173.729 26.9862 173.317C26.14 173.112 25.4539 172.947 24.9507 172.823C24.7312 172.768 24.5482 172.723 24.4019 172.686C24.2784 172.654 24.2097 172.631 24.2052 172.627C24.2052 172.622 24.2646 172.627 24.3836 172.654C24.5253 172.681 24.6992 172.718 24.9187 172.759C25.4173 172.864 26.0988 173.006 26.9405 173.185C28.7152 173.574 31.1715 174.109 34.0258 174.736L34.1172 174.754V174.85C34.0715 175.596 34.0029 176.369 33.8794 177.161C33.8199 177.559 33.7422 177.962 33.6278 178.364C33.5043 178.762 33.3991 179.188 33.0515 179.531C33.0057 179.581 32.928 179.632 32.8502 179.654C32.777 179.673 32.7038 179.686 32.6398 179.691C32.5026 179.705 32.3745 179.7 32.2419 179.691C31.9857 179.673 31.7341 179.641 31.4826 179.6C30.9886 179.517 30.5037 179.416 30.0326 179.311C29.0903 179.096 28.1892 178.854 27.3338 178.616C26.4785 178.378 25.6689 178.14 24.9141 177.911C24.5391 177.797 24.1731 177.682 23.8255 177.573C23.6608 177.527 23.4504 177.449 23.3178 177.312C23.176 177.179 23.0799 177.01 23.0388 176.831C22.993 176.653 23.0067 176.465 23.0616 176.305C23.1074 176.15 23.1531 175.999 23.1989 175.852C23.2858 175.559 23.3727 175.285 23.4504 175.024C23.606 174.521 23.7432 174.082 23.8575 173.711C23.9627 173.377 24.0496 173.107 24.1183 172.897C24.1777 172.713 24.2097 172.622 24.2143 172.627H24.196Z" fill="#263238"/>
<path d="M61.8736 135.891C61.8736 135.891 61.9102 136.165 61.933 136.659C61.9605 137.153 61.9696 137.872 61.9696 138.759C61.965 140.53 61.8278 142.978 61.5717 145.668C61.3155 148.359 61.0639 150.788 60.9221 152.554C60.8581 153.405 60.8032 154.11 60.762 154.645C60.7255 155.139 60.698 155.409 60.6797 155.409C60.6614 155.409 60.6614 155.135 60.6706 154.641C60.6751 154.147 60.7072 153.428 60.7575 152.545C60.8535 150.775 61.0822 148.34 61.3338 145.65C61.59 142.964 61.7501 140.526 61.8004 138.759C61.8232 137.876 61.8415 137.163 61.8415 136.664C61.8461 136.17 61.8598 135.895 61.8736 135.895V135.891Z" fill="#263238"/>
<g opacity="0.3">
<path opacity="0.3" d="M50.2652 165.692C45.714 165.692 41.1582 165.317 36.6664 164.571L25.3272 163.148C25.2311 164.878 25.812 166.639 26.919 167.976C28.0259 169.312 29.6497 170.208 31.365 170.433C33.1992 170.675 35.0426 170.181 36.8631 169.856C39.9826 169.298 43.1662 169.234 46.3315 169.06C47.3652 169.005 48.4493 168.918 49.3229 168.36C50.1966 167.802 50.7546 166.607 50.2606 165.697L50.2652 165.692Z" fill="black"/>
</g>
<path d="M24.5345 128.812C24.5345 128.812 21.3144 130.853 20.6694 134.074C20.0245 137.295 22.2246 153.968 23.0845 157.679C24.3424 163.124 27.1372 167.782 29.7673 168.106C32.3974 168.427 49.34 166.821 49.34 166.821L50.7625 157.619L34.7577 156.398L34.0075 155.405L32.1504 140.407" fill="#FF725E"/>
<path d="M32.1502 140.413C32.1502 140.413 32.1685 140.5 32.1959 140.674C32.2233 140.857 32.2554 141.109 32.3011 141.443C32.3926 142.129 32.5207 143.126 32.6899 144.407C33.0192 146.997 33.4949 150.744 34.0896 155.402L34.0713 155.361C34.3 155.663 34.5607 156.002 34.8214 156.349L34.7574 156.317C39.3041 156.656 44.7473 157.063 50.7622 157.516L50.8812 157.525L50.8629 157.644C50.4146 160.563 49.9389 163.652 49.4449 166.845L49.4312 166.937L49.3397 166.946C45.9182 167.266 42.3733 167.573 38.7323 167.852C36.9301 167.985 35.1462 168.108 33.3852 168.195C32.5069 168.236 31.6333 168.278 30.7596 168.273C30.5446 168.273 30.3251 168.273 30.1055 168.255L29.7762 168.236C29.6664 168.223 29.5566 168.191 29.4469 168.168C29.0077 168.076 28.6144 167.857 28.2484 167.623C27.5257 167.129 26.9494 166.479 26.4417 165.807C25.9385 165.13 25.4994 164.416 25.1243 163.684C24.3559 162.224 23.7978 160.701 23.3541 159.195C22.9059 157.685 22.6497 156.171 22.4164 154.707C22.1832 153.238 21.9773 151.815 21.7944 150.433C21.4239 147.67 21.1265 145.089 20.9024 142.733C20.6783 140.372 20.5136 138.235 20.4862 136.346C20.477 135.408 20.4862 134.515 20.692 133.724C20.9024 132.937 21.2455 132.269 21.6068 131.711C22.3387 130.594 23.1254 129.899 23.656 129.45C23.9259 129.231 24.1409 129.071 24.2918 128.97C24.4382 128.869 24.5205 128.828 24.5205 128.828C24.5205 128.828 24.4473 128.883 24.3055 128.993C24.1638 129.098 23.9533 129.263 23.688 129.487C23.1712 129.945 22.3981 130.645 21.6846 131.761C21.3324 132.315 21.003 132.978 20.8018 133.751C20.6005 134.525 20.6005 135.403 20.6188 136.341C20.66 138.217 20.8338 140.354 21.0717 142.71C21.3095 145.066 21.616 147.642 21.9956 150.401C22.1832 151.783 22.3936 153.206 22.6269 154.67C22.8647 156.134 23.1209 157.635 23.5691 159.131C24.0082 160.627 24.5663 162.133 25.3302 163.579C25.7007 164.306 26.1352 165.006 26.6338 165.67C27.1324 166.328 27.695 166.96 28.3857 167.431C28.7379 167.651 29.1038 167.857 29.5063 167.939C29.6069 167.957 29.703 167.989 29.8082 168.003L30.1238 168.021C30.3342 168.04 30.5492 168.04 30.7642 168.04C31.6241 168.044 32.4978 168.003 33.376 167.962C35.1325 167.875 36.9118 167.751 38.714 167.619C42.3504 167.344 45.8954 167.038 49.3168 166.717L49.2116 166.813C49.7056 163.62 50.1859 160.536 50.6387 157.612L50.7394 157.74C44.729 157.274 39.2812 156.848 34.7391 156.496H34.6979L34.6751 156.464C34.4143 156.116 34.1536 155.773 33.9295 155.471L33.9158 155.453V155.43C33.3532 150.772 32.9003 147.02 32.5893 144.426C32.4383 143.14 32.324 142.143 32.2416 141.452C32.205 141.118 32.1776 140.862 32.1593 140.679C32.141 140.505 32.141 140.413 32.141 140.413H32.1502Z" fill="#263238"/>
<path d="M32.0232 137.042C31.9774 137.042 32.0095 136.415 31.7762 135.445C31.552 134.484 30.9986 133.18 29.9328 132.105C28.867 131.03 27.5634 130.467 26.6074 130.238C25.6423 130 25.0111 130.028 25.0156 129.982C25.0156 129.968 25.1712 129.945 25.4548 129.945C25.7384 129.945 26.15 129.973 26.6486 130.073C27.6366 130.266 28.9997 130.824 30.1066 131.94C31.2136 133.057 31.7625 134.42 31.9454 135.408C32.0415 135.907 32.0689 136.319 32.0643 136.603C32.0643 136.886 32.0369 137.042 32.0232 137.042Z" fill="#263238"/>
<path d="M75.7939 155.961C75.7939 155.961 75.8305 155.188 76.1279 154.854C76.4252 154.52 77.7151 154.301 77.7151 154.301L81.9919 147.84L82.4081 143.928L84.0914 132.338C84.0914 132.338 87.3253 126.418 91.5152 126.079C93.2213 125.942 91.2407 138.57 91.0898 139.394C91.0578 139.554 89.4889 156.478 89.4889 156.478L88.4551 162.459C88.4551 162.459 85.1343 163.717 83.9176 164.307C82.7009 164.897 82.0376 164.156 82.0376 164.156L75.7985 155.961H75.7939Z" fill="#FFD3FB"/>
<path d="M116.466 173.583C116.466 173.583 116.384 173.629 116.219 173.702C116.032 173.78 115.789 173.876 115.497 173.995C114.87 174.247 113.946 174.581 112.793 174.956C111.641 175.336 110.255 175.738 108.699 176.127C107.14 176.507 105.415 176.868 103.59 177.157C101.76 177.44 100.009 177.623 98.4076 177.742C96.8067 177.848 95.3659 177.893 94.1537 177.88C92.9416 177.875 91.9627 177.838 91.2857 177.793C90.9701 177.77 90.7094 177.751 90.5082 177.738C90.3298 177.724 90.2383 177.71 90.2383 177.701C90.2383 177.692 90.3343 177.687 90.5127 177.687C90.714 177.687 90.9747 177.697 91.2903 177.701C91.9673 177.724 92.9462 177.729 94.1537 177.715C95.3613 177.706 96.8021 177.642 98.3939 177.527C99.9857 177.399 101.733 177.207 103.554 176.928C105.374 176.64 107.094 176.283 108.649 175.917C110.2 175.542 111.59 175.157 112.743 174.796C113.896 174.439 114.829 174.132 115.465 173.904C115.766 173.803 116.009 173.721 116.201 173.652C116.37 173.597 116.462 173.574 116.466 173.579V173.583Z" fill="#263238"/>
<path d="M91.5102 126.071L101.528 122.777C101.528 122.777 101.477 125.472 105.37 125.559C109.857 125.66 113.621 121.711 113.621 121.711C113.621 121.711 122.948 124.616 124.906 126.199C126.864 127.778 120.464 160.79 120.464 160.79L119.883 170.622C119.883 170.622 120.844 172.215 120.844 173.921C120.844 175.628 120.908 176.767 120.908 176.767C108.947 180.377 97.0815 183.502 86.1631 180.007C86.1631 180.007 86.4329 174.205 87.0688 172.626C87.7046 171.048 87.5811 170.901 87.5811 170.901L88.6194 152.751L88.8069 139.098L91.5056 126.076L91.5102 126.071Z" fill="#FFD3FB"/>
<path d="M125 126.18C125 126.18 127.95 128.188 128.769 132.292C129.588 136.397 131.386 160.175 131.386 160.175L119.978 159.763C119.978 159.763 117.686 140.098 117.686 139.65C117.686 139.201 120.156 129.424 120.307 129.199C120.458 128.975 125.005 126.18 125.005 126.18H125Z" fill="#FFD3FB"/>
<path d="M122.823 126.414C122.86 126.478 121.803 127.013 120.778 128.02C119.745 129.017 119.182 130.061 119.118 130.024C119.063 130.006 119.548 128.885 120.614 127.855C121.67 126.817 122.805 126.364 122.823 126.419V126.414Z" fill="#263238"/>
<path d="M130.265 160.18L130.256 163.021C130.247 165.126 125.677 187.129 125.677 187.129L118.88 184.841L121.268 163.456L121.368 159.859L130.265 160.18Z" fill="#AE7461"/>
<path d="M118.751 186.366C118.751 186.366 116.034 188.416 115.439 189.225C114.845 190.035 113.372 192.922 112.274 193.764C112.274 193.764 112.503 194.89 113.587 194.327C114.671 193.764 115.988 192.543 116.45 191.838C116.912 191.133 117.397 191.545 117.424 192.163C117.452 192.776 116.926 196.94 116.926 196.94C116.926 196.94 115.627 201.565 115.979 202.087C116.331 202.604 117.054 202.485 117.301 202.146C117.479 201.904 118.943 198.038 118.943 198.038L119.318 195.933C119.318 195.933 118.563 202.595 118.984 203.116C119.405 203.638 119.862 203.437 120.155 203.171C120.448 202.906 120.75 199.964 120.75 199.964L121.436 196.034L121.312 203.524C121.312 203.524 121.39 204.233 121.948 204.26C122.506 204.288 122.877 203.464 122.877 203.464L123.682 195.745C123.682 195.745 123.421 200.037 123.709 200.261C124.093 200.563 124.446 200.463 124.574 200.133C124.83 199.465 125.21 195.604 125.21 195.604L125.562 188.255L125.941 184.714L119.071 184.266L118.765 186.366H118.751Z" fill="#AE7461"/>
<path d="M99.292 124.564C99.4384 123.562 100.797 120.597 100.797 120.597L103.468 124.047L112.923 118.359L115.247 122.239L107.8 127.396L104.035 126.806L101.112 126.27L99.2966 124.564H99.292Z" fill="#FFD3FB"/>
<path d="M117.724 138.567C117.793 138.562 118.209 142.227 118.653 146.757C119.101 151.287 119.408 154.965 119.339 154.975C119.27 154.979 118.854 151.314 118.411 146.78C117.962 142.25 117.656 138.572 117.724 138.562V138.567Z" fill="#263238"/>
<path d="M131.388 160.18C131.388 160.18 131.292 160.199 131.109 160.208C130.926 160.217 130.656 160.226 130.308 160.226C129.613 160.231 128.607 160.208 127.363 160.158C126.119 160.112 124.641 160.029 123.004 160.011C122.592 160.002 122.176 160.02 121.737 160.007C121.302 159.988 120.831 159.924 120.415 159.677C119.998 159.439 119.696 159.032 119.5 158.597C119.303 158.163 119.193 157.691 119.106 157.22C119.015 156.753 118.969 156.264 119.01 155.793C119.033 155.555 119.07 155.317 119.157 155.088C119.202 154.974 119.257 154.859 119.353 154.759C119.44 154.653 119.573 154.585 119.692 154.553C119.934 154.479 120.163 154.489 120.378 154.47C120.598 154.461 120.817 154.447 121.032 154.438C121.462 154.425 121.883 154.411 122.295 154.392C123.941 154.351 125.423 154.37 126.667 154.383C127.884 154.406 128.886 154.42 129.613 154.434C129.938 154.443 130.203 154.447 130.414 154.457C130.597 154.466 130.693 154.47 130.693 154.479C130.693 154.489 130.597 154.498 130.414 154.507C130.203 154.511 129.938 154.521 129.613 154.53C128.886 154.534 127.889 154.543 126.667 154.557C125.423 154.566 123.946 154.566 122.304 154.621C121.892 154.64 121.471 154.653 121.046 154.672C120.831 154.685 120.616 154.694 120.396 154.708C120.177 154.722 119.953 154.722 119.765 154.781C119.39 154.877 119.299 155.385 119.257 155.811C119.221 156.264 119.257 156.712 119.349 157.179C119.431 157.641 119.536 158.094 119.719 158.497C119.902 158.899 120.172 159.261 120.534 159.471C121.275 159.897 122.189 159.746 122.999 159.787C124.646 159.819 126.123 159.92 127.367 159.984C128.607 160.057 129.613 160.103 130.308 160.126C130.633 160.135 130.898 160.144 131.109 160.153C131.292 160.158 131.388 160.167 131.388 160.176V160.18Z" fill="#263238"/>
<path d="M88.5925 135.899C88.5925 135.899 88.6017 136.008 88.6017 136.219C88.5971 136.452 88.5879 136.759 88.5788 137.134C88.5513 137.958 88.5102 139.101 88.4599 140.501C88.3547 143.347 88.2312 147.278 88.1442 151.62C88.0619 155.962 88.039 159.897 88.0345 162.743C88.0345 164.143 88.0299 165.291 88.0253 166.115C88.0253 166.495 88.0162 166.797 88.0162 167.03C88.0116 167.24 88.0024 167.35 87.9979 167.35C87.9887 167.35 87.9796 167.24 87.9704 167.03C87.9613 166.797 87.9476 166.49 87.9338 166.115C87.9064 165.319 87.8835 164.166 87.8652 162.743C87.8241 159.897 87.8195 155.962 87.9018 151.615C87.9842 147.269 88.1397 143.338 88.286 140.497C88.3592 139.074 88.4278 137.925 88.4827 137.129C88.5102 136.754 88.533 136.448 88.5513 136.214C88.5696 136.004 88.5834 135.894 88.5925 135.899Z" fill="#263238"/>
<path d="M85.7837 162.346C85.7471 162.36 85.5046 161.719 85.0701 160.713C84.6264 159.715 83.9723 158.324 82.8654 157.084C81.7584 155.844 80.3725 155.126 79.3159 154.893C78.2547 154.646 77.564 154.792 77.564 154.737C77.564 154.723 77.7286 154.678 78.0397 154.65C78.3507 154.618 78.8036 154.623 79.3524 154.728C80.4502 154.925 81.9002 155.648 83.0438 156.924C84.1781 158.205 84.8185 159.628 85.2256 160.649C85.4269 161.161 85.5733 161.587 85.6647 161.879C85.7562 162.172 85.802 162.342 85.7837 162.346Z" fill="#263238"/>
<path d="M84.7599 149.937C84.7325 149.996 84.0921 149.758 83.3694 149.333C82.6467 148.907 82.1298 148.459 82.1664 148.404C82.2075 148.349 82.7793 148.706 83.4883 149.127C84.1973 149.548 84.7874 149.877 84.7599 149.937Z" fill="#263238"/>
<path d="M115.121 122.242C115.121 122.242 115.062 122.306 114.943 122.411C114.819 122.517 114.636 122.672 114.394 122.864C113.914 123.253 113.2 123.802 112.295 124.448C110.483 125.738 107.862 127.39 104.756 128.886L104.66 128.931L104.605 128.845C104.491 128.666 104.363 128.474 104.253 128.277C103.663 127.271 103.265 126.2 103.041 125.152L103.27 125.138C103.16 125.93 102.789 126.566 102.469 127.179C102.131 127.783 101.779 128.332 101.422 128.84L101.312 128.996L101.248 128.817C100.695 127.252 100.233 125.953 99.8987 125.01C99.7523 124.576 99.6288 124.219 99.5373 123.949C99.4595 123.702 99.4184 123.574 99.4275 123.569C99.4367 123.564 99.4916 123.693 99.5922 123.931C99.6974 124.196 99.8346 124.544 100.004 124.974C100.356 125.912 100.846 127.202 101.431 128.753L101.262 128.73C101.605 128.231 101.948 127.678 102.282 127.078C102.593 126.484 102.95 125.829 103.041 125.125L103.128 124.466L103.27 125.111C103.494 126.136 103.887 127.179 104.464 128.167C104.573 128.364 104.697 128.547 104.811 128.721L104.66 128.68C107.752 127.193 110.378 125.573 112.208 124.319C113.122 123.693 113.85 123.166 114.348 122.8C114.582 122.631 114.769 122.494 114.925 122.379C115.057 122.283 115.13 122.238 115.135 122.247L115.121 122.242Z" fill="#263238"/>
<path d="M101.342 180.933C101.342 180.933 101.337 180.887 101.333 180.795C101.333 180.695 101.333 180.562 101.333 180.402C101.342 180.036 101.351 179.528 101.36 178.883C101.397 177.547 101.447 175.643 101.511 173.296C101.662 168.565 101.872 162.054 102.101 154.866C102.357 147.674 102.595 141.168 102.764 136.437C102.86 134.089 102.938 132.186 102.993 130.85C103.025 130.205 103.048 129.697 103.066 129.331L103.094 128.937C103.103 128.85 103.107 128.805 103.112 128.805C103.112 128.805 103.116 128.85 103.121 128.937C103.121 129.038 103.121 129.171 103.121 129.331C103.112 129.697 103.103 130.205 103.094 130.85C103.057 132.186 103.007 134.089 102.943 136.437C102.792 141.168 102.581 147.678 102.353 154.871C102.096 162.059 101.859 168.57 101.689 173.301C101.593 175.643 101.515 177.551 101.461 178.887C101.429 179.533 101.406 180.04 101.387 180.406L101.36 180.8C101.351 180.887 101.346 180.933 101.342 180.933Z" fill="#263238"/>
<path d="M83.217 138.335C83.217 138.335 84.8454 136.999 85.1656 135.338C85.4858 133.677 86.0347 131.783 86.0347 131.783C86.0347 131.783 88.0153 130.657 87.965 129.852C87.9101 129.047 86.8946 128.781 86.8946 128.781C86.8946 128.781 85.1244 129.802 84.1639 130.817C83.1987 131.838 80.7607 136.473 80.7607 136.473L83.217 138.33V138.335Z" fill="#FFBF9D"/>
<path d="M61.9885 158.666C61.9885 158.666 66.3339 158.862 67.7976 158.547C69.2614 158.226 76.5799 155.664 76.5799 155.664C76.5799 155.664 82.4943 158.899 82.8602 161.214C83.2261 163.534 82.3708 164.284 82.3708 164.284L63.0954 165.291L60.3784 162.98L61.9794 158.661L61.9885 158.666Z" fill="#AE7461"/>
<path d="M54.7933 158.662H58.1049C58.1049 158.662 67.1617 163.48 67.4681 164.066C67.921 164.926 67.802 165.47 66.8552 165.329C66.32 165.246 62.0295 163.169 62.0295 163.169L61.9197 163.53C61.9197 163.53 64.0787 165.539 64.0787 166.157C64.0787 166.774 63.539 167.854 62.6013 167.493C62.6013 167.493 62.1347 168.861 61.595 169.076C61.0552 169.291 60.4423 169.076 60.4423 169.076C60.4423 169.076 60.0809 169.904 59.3994 169.904C58.7179 169.904 58.0317 169.327 58.0317 169.327L54.3953 165.759L49.6245 165.685L50.7543 158.328L54.7933 158.658V158.662Z" fill="#FFBF9D"/>
<path d="M59.6385 167.777C59.6934 167.741 59.9084 167.978 60.1142 168.308C60.3201 168.637 60.4436 168.93 60.3887 168.967C60.3338 169.003 60.1188 168.765 59.913 168.436C59.7071 168.107 59.5836 167.814 59.6385 167.777Z" fill="#FF9A6C"/>
<path d="M61.3614 166.168C61.4163 166.127 61.7045 166.42 62.0475 166.786C62.3906 167.152 62.6605 167.458 62.6193 167.509C62.5781 167.559 62.2259 167.326 61.8737 166.946C61.5215 166.571 61.3111 166.205 61.3614 166.168Z" fill="#FF9A6C"/>
<path d="M62.9214 159.238C62.9214 159.238 59.8613 156.465 59.3215 156.392C58.7818 156.319 56.2569 156.465 55.6851 157.124C55.1133 157.783 55.3969 160.826 55.5067 160.862C55.6165 160.899 56.4444 161.114 56.911 160.464C57.3775 159.815 57.7755 158.447 57.7755 158.447L58.3884 158.648C58.3884 158.648 58.8733 160.098 61.819 160.515L62.9259 159.238H62.9214Z" fill="#AE7461"/>
<path d="M51.0323 165.642C51.0323 165.642 50.9225 166.474 51.4988 166.763C52.0752 167.051 52.9031 166.763 52.9031 166.763L53.1181 165.514C53.1181 165.514 51.5354 164.489 51.0277 165.642H51.0323Z" fill="#AE7461"/>
<path d="M54.2209 167.996C54.2209 167.996 52.2403 168.015 52.6017 166.77C52.9585 165.526 53.8275 164.789 54.2209 164.789C54.6143 164.789 55.8767 164.794 55.4102 166.002C54.9436 167.205 54.2209 167.996 54.2209 167.996Z" fill="#AE7461"/>
<path d="M56.0321 168.615C56.0321 168.615 53.9646 169.155 54.2207 168.002C54.4723 166.849 55.2911 165.266 56.0321 165.481C56.7776 165.696 57.4226 166.021 57.171 166.67C56.9194 167.32 56.0321 168.615 56.0321 168.615Z" fill="#AE7461"/>
<path d="M58.6842 168.736C58.6842 168.736 58.0347 169.546 57.5316 169.546C57.0284 169.546 56.0312 168.608 56.0312 168.608L57.3577 166.266C57.3577 166.266 58.2177 166.266 58.3229 167.094C58.4326 167.922 58.4235 168.215 58.4235 168.215L58.6842 168.732V168.736Z" fill="#AE7461"/>
<path d="M57.3952 166.314C57.4547 166.346 57.1848 166.899 56.796 167.549C56.4072 168.203 56.0459 168.702 55.991 168.665C55.9361 168.629 56.206 168.075 56.5902 167.43C56.9744 166.785 57.3358 166.286 57.3952 166.314Z" fill="#6F4439"/>
<path d="M55.6195 165.523C55.6698 165.574 55.2307 166.077 54.8236 166.782C54.4119 167.482 54.1878 168.113 54.1192 168.095C54.0597 168.081 54.1878 167.395 54.6178 166.663C55.0431 165.926 55.5783 165.482 55.6195 165.528V165.523Z" fill="#6F4439"/>
<path d="M53.8356 165.054C53.8768 165.113 53.4605 165.443 53.1175 165.978C52.7698 166.509 52.6372 167.026 52.5686 167.012C52.5091 167.012 52.5366 166.431 52.9162 165.85C53.2913 165.264 53.8036 164.999 53.831 165.054H53.8356Z" fill="#6F4439"/>
</g>
<g clip-path="url(#clip1_8669_4994)">
<path d="M381.892 107.463L386.06 108.204C387.556 109.893 389.528 111.2 391.846 111.899C398.518 113.911 405.566 110.136 407.587 103.466C409.607 96.7962 405.831 89.7555 399.159 87.7439C392.488 85.7323 385.44 89.5067 383.419 96.1768C382.576 98.9613 382.745 101.809 383.711 104.334L381.892 107.463Z" fill="#FAFAFA"/>
<path d="M381.893 107.469C381.893 107.469 381.93 107.4 382.004 107.268C382.084 107.13 382.195 106.929 382.344 106.664C382.651 106.124 383.102 105.336 383.686 104.314C383.696 104.298 383.712 104.293 383.728 104.303C383.728 104.303 383.733 104.309 383.739 104.314L383.686 104.351C383.113 102.869 382.62 100.751 382.932 98.2314C383.012 97.6068 383.145 96.9609 383.33 96.3045C383.426 95.9763 383.558 95.6534 383.67 95.3199C383.776 94.9811 383.94 94.6635 384.094 94.33C384.725 93.0171 385.627 91.7202 386.82 90.5979C388.013 89.4756 389.487 88.5334 391.174 87.9193C392.855 87.3052 394.738 87.0194 396.658 87.1888C398.572 87.374 400.503 87.9987 402.232 89.0733C402.677 89.3168 403.069 89.6556 403.483 89.9521C403.695 90.1003 403.87 90.2909 404.061 90.4603C404.247 90.6403 404.454 90.7991 404.623 90.9949C404.963 91.3867 405.339 91.7519 405.631 92.186C405.785 92.3978 405.944 92.6042 406.092 92.8213C406.225 93.0489 406.363 93.2712 406.501 93.4989C407.551 95.2722 408.081 97.2839 408.177 99.2531C408.272 101.228 407.896 103.17 407.132 104.886C406.379 106.606 405.265 108.094 403.96 109.258C402.656 110.428 401.16 111.275 399.638 111.794C398.116 112.318 396.573 112.524 395.13 112.482C394.404 112.482 393.714 112.36 393.046 112.254C392.388 112.085 391.747 111.953 391.163 111.725C388.787 110.857 387.106 109.449 386.03 108.226L386.051 108.237C384.693 107.988 383.648 107.792 382.938 107.665C382.593 107.601 382.328 107.548 382.148 107.517C381.973 107.485 381.888 107.464 381.888 107.464C381.888 107.464 381.983 107.48 382.163 107.506C382.349 107.538 382.614 107.58 382.964 107.638C383.67 107.76 384.709 107.935 386.061 108.168C386.067 108.168 386.077 108.173 386.083 108.178C387.165 109.391 388.84 110.778 391.2 111.63C391.784 111.852 392.42 111.984 393.073 112.149C393.735 112.249 394.42 112.366 395.141 112.366C396.568 112.403 398.095 112.196 399.601 111.672C401.102 111.148 402.582 110.312 403.876 109.152C405.164 107.998 406.262 106.521 407.005 104.822C407.752 103.128 408.129 101.206 408.033 99.2531C407.938 97.3103 407.413 95.3199 406.374 93.5677C406.241 93.3453 406.103 93.1177 405.97 92.8954C405.822 92.6836 405.663 92.4772 405.514 92.2654C405.228 91.8366 404.851 91.4767 404.517 91.0849C404.348 90.8943 404.146 90.7355 403.96 90.5556C403.77 90.3914 403.595 90.1956 403.388 90.0526C402.979 89.7562 402.592 89.4227 402.152 89.1845C400.45 88.1257 398.54 87.5064 396.647 87.3211C394.754 87.157 392.887 87.4323 391.227 88.0357C389.562 88.6392 388.098 89.5709 386.915 90.6773C385.733 91.7837 384.831 93.0648 384.205 94.367C384.051 94.6952 383.887 95.0129 383.781 95.3464C383.664 95.6746 383.537 95.9975 383.442 96.3204C383.251 96.9715 383.118 97.6068 383.039 98.2314C382.715 100.73 383.198 102.837 383.749 104.314C383.754 104.33 383.749 104.346 383.733 104.356C383.717 104.356 383.707 104.356 383.696 104.346L383.749 104.335C383.155 105.341 382.699 106.119 382.386 106.648C382.232 106.908 382.11 107.109 382.031 107.252C381.951 107.39 381.904 107.458 381.904 107.458L381.893 107.469Z" fill="#263238"/>
<path d="M399.381 100.203C399.381 99.4936 399.954 98.9219 400.665 98.9219C401.375 98.9219 401.948 99.4936 401.948 100.203C401.948 100.912 401.375 101.484 400.665 101.484C399.954 101.484 399.381 100.912 399.381 100.203Z" fill="#263238"/>
<path d="M394.242 100.203C394.242 99.4936 394.814 98.9219 395.525 98.9219C396.236 98.9219 396.809 99.4936 396.809 100.203C396.809 100.912 396.236 101.484 395.525 101.484C394.814 101.484 394.242 100.912 394.242 100.203Z" fill="#263238"/>
<path d="M389.115 100.838C388.759 100.224 388.971 99.4407 389.587 99.086C390.202 98.7314 390.987 98.9431 391.342 99.5572C391.697 100.171 391.485 100.955 390.87 101.309C390.255 101.664 389.47 101.452 389.115 100.838Z" fill="#263238"/>
<path d="M321.498 118.922L323.959 126.153L324.823 127.365C324.823 127.365 325.571 131.383 325.619 132.246C325.666 133.103 324.547 137.598 324.547 137.598L327.045 141.595L320.124 144.247C320.124 144.247 318.247 140.594 317.727 140.181C317.208 139.768 316.831 138.582 316.704 137.783C316.582 136.984 315.542 132.241 315.542 132.241C315.542 132.241 312.472 127.005 313.755 126.74C314.047 126.682 314.715 126.756 314.715 126.756C314.715 126.756 316.561 130.197 317.059 130.271L317.759 129.864C317.759 129.864 316.317 124.596 316.242 123.612C316.168 122.627 316.375 121.934 317.133 121.817C317.133 121.817 317.706 122.045 317.754 122.299C317.802 122.553 319.244 128.424 319.573 128.313C319.896 128.202 319.743 127.667 319.743 127.667C319.743 127.667 317.828 120.542 317.913 120.134C318.003 119.726 318.348 119.086 319.058 119.155L320.527 123.067C320.527 123.067 319.843 119.774 320.374 119.186C320.904 118.599 321.493 118.911 321.493 118.911L321.498 118.922Z" fill="#FFBF9D"/>
<path d="M320.027 134.911C320.085 134.911 320.043 134.297 320.276 133.312C320.515 132.354 321.146 130.983 322.424 129.988L322.519 129.914L322.493 129.803C322.371 129.279 322.249 128.733 322.116 128.167V128.13L322.084 128.098C321.962 127.929 321.84 127.728 321.724 127.532C321.331 126.854 321.04 126.14 320.928 125.446C320.875 125.102 320.859 124.758 320.944 124.472C321.013 124.181 321.246 123.974 321.469 123.937L321.353 123.895C322.18 124.684 322.875 125.335 323.368 125.785C323.861 126.23 324.153 126.473 324.174 126.452C324.195 126.431 323.946 126.145 323.495 125.658C323.039 125.176 322.376 124.493 321.57 123.678L321.522 123.625H321.453C321.045 123.673 320.737 124.006 320.631 124.371C320.515 124.742 320.536 125.123 320.589 125.499C320.705 126.251 321.008 127.002 321.416 127.712C321.538 127.923 321.665 128.125 321.803 128.315L321.771 128.252C321.904 128.818 322.037 129.363 322.164 129.887L322.233 129.707C320.854 130.809 320.26 132.259 320.069 133.27C319.974 133.784 319.958 134.202 319.974 134.482C319.99 134.763 320.011 134.916 320.032 134.916L320.027 134.911Z" fill="#FF9A6C"/>
<path d="M320.035 129.07C320.004 128.98 318.954 129.287 317.834 130.028C316.715 130.764 316.021 131.611 316.09 131.674C316.164 131.749 316.954 131.044 318.036 130.335C319.113 129.62 320.073 129.176 320.035 129.075V129.07Z" fill="#FF9A6C"/>
<path d="M318.058 144.745C318.058 144.745 325.462 170.144 333.067 169.588C340.672 169.027 343.674 162.712 343.674 162.712L343.567 147.227L335.225 146.545L333.555 150.547L327.732 140.07L318.063 144.745H318.058Z" fill="#E0E0E0"/>
<path d="M369.87 109.583C370.83 107.211 371.785 104.819 372.321 102.315C372.856 99.8108 372.968 97.1745 372.241 94.7183C372.13 94.3477 371.149 91.8332 370.761 91.8438C370.486 91.8544 371.032 94.173 370.878 94.4006C369.388 96.5869 368.836 99.3079 368.863 101.955C368.889 104.602 369.276 107.005 369.87 109.583Z" fill="#303360"/>
<path d="M354.534 122.732C354.64 120.927 354.72 119.503 354.709 119.503C354.709 119.503 348.557 118.444 348.578 112.288C348.589 109.313 349.114 103.193 349.649 97.6558C350.228 91.7004 355.287 87.1901 361.28 87.2907L361.874 87.3013C368.286 87.7777 371.462 93.4844 370.805 99.8686L369.224 122.272L364.51 127.147C360.749 131.033 354.179 128.126 354.539 122.737L354.534 122.732Z" fill="#FFBF9D"/>
<path d="M354.708 119.513C354.708 119.513 358.59 119.804 362.78 117.273C362.78 117.273 360.749 121.72 354.602 121.064L354.708 119.513Z" fill="#FF9A6C"/>
<path d="M351.108 103.085C351.081 103.551 351.458 103.953 351.94 103.985C352.423 104.017 352.837 103.672 352.863 103.207C352.89 102.741 352.513 102.338 352.031 102.307C351.548 102.275 351.134 102.619 351.108 103.085Z" fill="#303360"/>
<path d="M350.93 100.244C351.036 100.36 351.715 99.8785 352.659 99.8944C353.608 99.8944 354.292 100.397 354.398 100.281C354.451 100.228 354.34 100.021 354.043 99.7938C353.746 99.5715 353.242 99.3491 352.654 99.3438C352.065 99.3386 351.561 99.545 351.275 99.7621C350.978 99.9791 350.877 100.186 350.93 100.238V100.244Z" fill="#303360"/>
<path d="M359.557 103.608C359.531 104.074 359.908 104.476 360.39 104.508C360.873 104.54 361.286 104.196 361.313 103.73C361.334 103.264 360.963 102.862 360.48 102.83C359.998 102.798 359.584 103.142 359.557 103.608Z" fill="#303360"/>
<path d="M359.745 100.72C359.851 100.837 360.53 100.355 361.474 100.371C362.423 100.371 363.107 100.874 363.213 100.757C363.267 100.704 363.16 100.498 362.858 100.276C362.561 100.053 362.057 99.831 361.469 99.8204C360.88 99.8151 360.376 100.022 360.09 100.239C359.798 100.456 359.692 100.662 359.745 100.715V100.72Z" fill="#303360"/>
<path d="M356.687 107.974C356.687 107.921 356.104 107.81 355.155 107.672C354.911 107.646 354.683 107.593 354.646 107.429C354.593 107.254 354.699 106.995 354.821 106.714C355.059 106.132 355.309 105.523 355.568 104.888C356.603 102.283 357.361 100.145 357.255 100.102C357.149 100.06 356.226 102.14 355.187 104.745C354.937 105.385 354.699 105.999 354.471 106.587C354.375 106.862 354.211 107.169 354.327 107.535C354.391 107.715 354.566 107.852 354.72 107.895C354.874 107.942 355.012 107.947 355.128 107.958C356.088 108.027 356.682 108.037 356.687 107.985V107.974Z" fill="#303360"/>
<path d="M359.88 97.5273C360.013 97.7655 360.93 97.5008 362.049 97.469C363.168 97.4108 364.107 97.5961 364.213 97.3473C364.261 97.2255 364.07 97.0138 363.672 96.8232C363.28 96.6326 362.675 96.4844 362.007 96.5109C361.333 96.5426 360.75 96.7385 360.373 96.9608C359.997 97.1832 359.822 97.4161 359.88 97.5326V97.5273Z" fill="#303360"/>
<path d="M351.261 96.9221C351.425 97.1391 352.083 96.9221 352.868 96.9274C353.652 96.9009 354.315 97.0968 354.474 96.8744C354.543 96.7686 354.443 96.5515 354.156 96.3398C353.875 96.1333 353.398 95.9586 352.857 95.9692C352.316 95.9798 351.844 96.1651 351.568 96.3821C351.287 96.5992 351.192 96.8162 351.266 96.9221H351.261Z" fill="#303360"/>
<path d="M370.229 104.421C370.335 104.379 374.488 103.241 374.286 107.444C374.085 111.653 369.895 110.578 369.89 110.462C369.89 110.34 370.229 104.421 370.229 104.421Z" fill="#FFBF9D"/>
<path d="M371.256 108.927C371.256 108.927 371.324 108.98 371.446 109.043C371.563 109.107 371.77 109.154 371.993 109.08C372.443 108.937 372.857 108.249 372.91 107.492C372.937 107.111 372.878 106.74 372.756 106.433C372.645 106.121 372.454 105.893 372.231 105.846C372.009 105.782 371.844 105.909 371.786 106.026C371.722 106.142 371.749 106.227 371.722 106.232C371.712 106.243 371.637 106.158 371.68 105.983C371.701 105.899 371.754 105.803 371.86 105.729C371.966 105.65 372.115 105.618 372.274 105.639C372.597 105.676 372.878 105.989 373.011 106.327C373.165 106.666 373.244 107.084 373.207 107.513C373.138 108.36 372.666 109.133 372.046 109.281C371.743 109.345 371.505 109.244 371.377 109.138C371.25 109.027 371.234 108.932 371.25 108.927H371.256Z" fill="#FF9A6C"/>
<path d="M352.771 90.841C352.109 90.4281 354.283 88.3371 356.001 87.6753C358.6 86.6748 362.508 86.1878 364.805 86.9819C367.573 87.94 369.827 89.4646 371.095 92.1009C372.362 94.7372 372.723 97.744 372.474 100.65C372.399 101.54 372.251 102.461 371.731 103.186C371.089 104.081 369.928 104.605 369.901 105.891C369.891 106.362 369.732 106.828 369.392 107.151C368.576 107.924 367.674 107.103 367.287 106.309C366.454 104.61 366.465 102.635 366.491 100.746C366.513 99.4009 366.534 98.0298 366.985 96.7593C367.228 96.0712 367.6 95.4253 367.807 94.7266C368.013 94.0225 368.04 93.2179 367.626 92.6091C367.557 92.5085 367.446 92.3867 367.303 92.2438C366.168 91.1321 364.518 90.7245 362.991 91.1692C360.573 91.8733 356.447 92.8949 355.434 92.0268C353.975 90.7828 353.657 90.0099 353.657 90.0099L352.771 90.8463V90.841Z" fill="#303360"/>
<path d="M356.858 111.266C356.858 111.34 357.065 111.436 357.431 111.425C357.792 111.415 358.301 111.272 358.752 110.938C359.203 110.605 359.489 110.165 359.606 109.821C359.722 109.477 359.696 109.244 359.621 109.228C359.462 109.186 359.165 109.932 358.407 110.472C357.665 111.039 356.869 111.102 356.858 111.266Z" fill="#303360"/>
<path d="M344.761 187.099C344.761 187.099 343.09 193.546 343.7 201.402C343.934 204.441 354.212 288.531 354.212 288.531H368.085L364.187 209.496L365.322 209.74C365.322 209.74 372.896 243.445 373.516 248.903C374.073 253.81 380.458 289.447 380.458 289.447L393.144 289.59L389.092 242.45L384.377 197.22L382.606 184.055L344.766 187.093L344.761 187.099Z" fill="#303360"/>
<path d="M366.37 201.437C366.37 201.437 366.173 201.575 365.791 201.765C365.404 201.945 364.842 202.221 364.073 202.364C363.691 202.432 363.251 202.454 362.795 202.374C362.339 202.295 361.851 202.099 361.459 201.734C361.066 201.368 360.812 200.855 360.647 200.32C360.483 199.78 360.393 199.224 360.276 198.653C359.836 196.371 359.533 194.291 359.358 192.777C359.268 192.02 359.215 191.406 359.183 190.982C359.152 190.559 359.146 190.32 359.168 190.32C359.189 190.32 359.231 190.548 359.3 190.971C359.374 191.453 359.464 192.046 359.571 192.75C359.799 194.254 360.127 196.323 360.568 198.6C360.79 199.722 360.944 200.871 361.65 201.538C362.355 202.194 363.331 202.263 364.047 202.162C364.784 202.051 365.357 201.813 365.754 201.665C366.152 201.511 366.37 201.427 366.38 201.442L366.37 201.437Z" fill="#303360"/>
<path d="M362.2 190.728C362.2 190.728 362.29 190.654 362.486 190.643C362.677 190.627 362.974 190.685 363.26 190.892C363.536 191.093 363.833 191.464 363.844 191.961C363.865 192.469 363.472 192.967 362.953 193.152C362.444 193.353 361.818 193.237 361.5 192.84C361.181 192.454 361.16 191.988 361.234 191.649C361.319 191.305 361.5 191.067 361.653 190.95C361.807 190.834 361.918 190.812 361.924 190.828C361.961 190.865 361.531 191.061 361.436 191.686C361.393 191.982 361.441 192.374 361.701 192.66C361.95 192.951 362.422 193.036 362.847 192.877C363.271 192.718 363.573 192.342 363.568 191.961C363.573 191.58 363.35 191.252 363.128 191.056C362.64 190.648 362.189 190.781 362.194 190.728H362.2Z" fill="#303360"/>
<path d="M384.179 196.426C384.179 196.426 384.014 196.474 383.707 196.5C383.399 196.532 382.954 196.543 382.407 196.516C381.309 196.469 379.787 196.204 378.228 195.553C376.674 194.896 375.417 193.996 374.617 193.245C374.214 192.869 373.906 192.546 373.72 192.302C373.529 192.064 373.429 191.927 373.445 191.916C373.482 191.879 373.927 192.392 374.76 193.091C375.587 193.79 376.828 194.642 378.35 195.288C379.872 195.923 381.352 196.214 382.428 196.32C383.505 196.426 384.184 196.384 384.184 196.437L384.179 196.426Z" fill="#303360"/>
<path d="M350.457 190.978C350.484 190.993 350.271 191.555 349.815 192.391C349.359 193.227 348.633 194.323 347.673 195.371C346.713 196.414 345.711 197.203 344.952 197.69C344.194 198.182 343.685 198.399 343.674 198.368C343.653 198.325 344.13 198.039 344.857 197.51C345.583 196.981 346.543 196.187 347.487 195.16C348.431 194.127 349.168 193.074 349.656 192.274C350.149 191.475 350.415 190.951 350.452 190.978H350.457Z" fill="#303360"/>
<path d="M377.038 150.281L382.347 155.39L380.634 145.623L391.411 142.219C391.411 142.219 394.274 155.622 394.768 158.793C395.659 164.484 394.566 172.568 389.252 173.139C383.508 173.753 379.17 168.1 376.407 164.389C374.286 161.536 370.86 156.549 370.86 156.549L377.038 150.286" fill="#E0E0E0"/>
<path d="M334.903 147.73C334.993 147.407 338.796 133.088 340.493 129.928C342.524 126.143 346.841 124.586 349.492 124.422C349.837 124.401 351.078 124.369 352.16 124.411C359.452 124.724 380.427 126.397 380.427 126.397C380.427 126.397 388.366 128.387 389.973 135.555C391.989 144.543 393.606 153.41 393.606 153.41L379.404 156.47L377.733 152.272L351.041 158.217L344.523 148.593L334.903 147.725V147.73Z" fill="#E0E0E0"/>
<path d="M382.14 170.216L381.774 157.405L382.299 127.22L371.231 122.35L369.99 117.586L357.066 123.684L354.361 120.699L353.152 123.954L350.394 124.987L344.825 135.955L341.67 144.594C341.67 144.594 342.672 182.09 343.468 188.13C343.468 188.13 346.066 189.088 352.489 189.247C365.509 189.559 383.233 188.739 383.233 188.739L383.413 188.172C383.922 186.589 384.071 184.911 383.853 183.26L382.14 170.232" fill="#E0E0E0"/>
<path d="M352.525 188.125C352.525 188.125 352.509 188.072 352.504 187.971C352.493 187.844 352.483 187.696 352.467 187.511C352.44 187.077 352.408 186.489 352.366 185.743C352.297 184.176 352.196 181.963 352.08 179.242C351.873 173.747 351.613 166.156 351.703 157.76C351.756 153.562 351.894 149.56 352.297 145.934C352.716 142.313 353.342 139.094 353.904 136.4C354.477 133.711 354.996 131.551 355.362 130.058C355.543 129.338 355.686 128.766 355.792 128.343C355.84 128.163 355.882 128.02 355.914 127.898C355.94 127.798 355.962 127.75 355.967 127.75C355.972 127.75 355.967 127.803 355.951 127.909C355.924 128.031 355.898 128.179 355.861 128.359C355.771 128.782 355.649 129.359 355.49 130.09C355.166 131.593 354.678 133.758 354.143 136.453C353.612 139.147 353.013 142.366 352.615 145.971C352.233 149.576 352.101 153.573 352.048 157.765C351.963 166.151 352.186 173.742 352.329 179.231C352.403 181.952 352.467 184.17 352.509 185.737C352.525 186.484 352.536 187.071 352.546 187.505C352.546 187.691 352.546 187.839 352.546 187.966C352.546 188.072 352.541 188.125 352.536 188.125H352.525Z" fill="#303360"/>
<path d="M360.857 140.883C360.857 140.883 361.106 140.883 361.605 140.904C362.146 140.936 362.878 140.978 363.79 141.036C365.742 141.169 368.473 141.354 371.761 141.582L371.909 141.592L371.899 141.746C371.623 145.393 371.294 149.75 370.939 154.461V154.546L370.865 154.594C370.493 154.864 370.09 155.139 369.677 155.404C368.945 155.88 368.202 156.319 367.433 156.701C366.664 157.066 365.879 157.431 365.004 157.479C364.14 157.532 363.318 157.278 362.597 156.923C361.875 156.558 361.234 156.108 360.65 155.621C360.359 155.377 360.078 155.134 359.807 154.88C359.68 154.768 359.51 154.599 359.431 154.424C359.33 154.25 359.277 154.07 359.218 153.89C359.038 153.17 359.017 152.466 359.022 151.793C359.049 150.449 359.197 149.205 359.356 148.077C359.685 145.827 360.078 144.027 360.359 142.789C360.502 142.169 360.618 141.693 360.709 141.37C360.794 141.047 360.847 140.878 360.862 140.883C360.873 140.883 360.847 141.058 360.783 141.386C360.714 141.751 360.618 142.228 360.502 142.82C360.263 144.064 359.913 145.87 359.621 148.114C359.478 149.236 359.346 150.47 359.335 151.793C359.335 152.45 359.362 153.143 359.537 153.8C359.637 154.138 359.759 154.403 360.04 154.631C360.306 154.88 360.587 155.118 360.873 155.351C361.446 155.822 362.077 156.256 362.761 156.6C363.451 156.933 364.214 157.161 364.994 157.113C365.768 157.071 366.532 156.722 367.28 156.367C368.027 155.991 368.759 155.557 369.486 155.091C369.894 154.827 370.297 154.551 370.658 154.292L370.584 154.424C370.965 149.713 371.315 145.356 371.607 141.714L371.745 141.878C368.499 141.592 365.805 141.359 363.875 141.19C362.952 141.1 362.21 141.031 361.663 140.978C361.43 140.952 361.234 140.931 361.075 140.915C360.942 140.899 360.868 140.888 360.862 140.883H360.857Z" fill="#303360"/>
<path d="M371.664 145.017C371.654 145.117 369.071 145.001 365.889 144.752C362.707 144.503 360.135 144.223 360.14 144.122C360.145 144.021 362.734 144.138 365.916 144.387C369.098 144.636 371.67 144.916 371.664 145.017Z" fill="#303360"/>
<g opacity="0.3">
<path opacity="0.3" d="M359.591 154.391C360.211 155.412 360.795 156.82 361.643 157.662C362.492 158.504 363.595 159.155 364.793 159.224C365.849 159.287 366.888 158.896 367.779 158.34C369.222 157.435 370.113 156.016 370.754 154.438C370.845 154.322 368.686 155.762 367.514 156.386C366.342 157.011 365.52 157.202 364.199 157.096C362.465 156.953 360.906 155.529 359.591 154.391Z" fill="black"/>
</g>
<g opacity="0.3">
<path opacity="0.3" d="M357.093 124.303L356.144 131.529L369.747 123.133L357.231 129.581L357.093 124.303Z" fill="black"/>
</g>
<path d="M354.657 131.271C354.657 131.271 351.3 144.77 350.048 161.307C349.518 168.327 349.12 177.628 349.12 177.628L352.254 181.503L357.059 177.257C357.059 177.257 356.852 157.501 357.102 150.884C357.309 145.442 356.449 131.557 356.449 131.557L354.652 131.266L354.657 131.271Z" fill="#FF725E"/>
<path d="M379.027 140.055C379.027 140.055 379.085 140.251 379.154 140.616C379.228 141.013 379.319 141.532 379.435 142.162C379.663 143.501 379.976 145.29 380.316 147.265C380.666 149.255 380.963 151.066 381.154 152.378C381.254 153.035 381.329 153.564 381.376 153.935C381.424 154.3 381.445 154.507 381.429 154.507C381.419 154.507 381.371 154.311 381.302 153.945C381.228 153.548 381.138 153.03 381.021 152.4C380.788 151.06 380.475 149.276 380.125 147.296C379.78 145.301 379.499 143.496 379.303 142.183C379.212 141.553 379.138 141.029 379.085 140.626C379.037 140.261 379.016 140.055 379.032 140.055H379.027Z" fill="#303360"/>
<path d="M383.122 128.071C383.144 128.098 382.751 128.405 382.189 128.977C381.632 129.548 380.932 130.411 380.349 131.486C379.771 132.56 379.436 133.619 379.267 134.403C379.097 135.186 379.055 135.684 379.023 135.678C379.012 135.678 379.007 135.551 379.023 135.329C379.028 135.101 379.065 134.779 379.139 134.376C379.277 133.577 379.596 132.492 380.184 131.396C380.773 130.305 381.505 129.437 382.099 128.881C382.396 128.601 382.645 128.394 382.831 128.262C383.016 128.13 383.117 128.061 383.128 128.071H383.122Z" fill="#303360"/>
<path d="M357.108 126.485L355.941 125.797L354.711 128.004L354.658 131.286L356.456 131.578L357.198 129.656L357.108 126.485Z" fill="#FF725E"/>
<path d="M357.2 123.649C357.2 123.649 356.934 124.104 356.5 124.834C356.065 125.565 355.487 126.587 354.935 127.762C354.893 127.857 354.845 127.952 354.803 128.042L354.718 128.228L354.633 128.042C354.102 126.925 353.721 125.893 353.482 125.136C353.365 124.755 353.275 124.448 353.227 124.236C353.174 124.024 353.153 123.903 353.164 123.897C353.19 123.892 353.339 124.353 353.609 125.094C353.88 125.835 354.277 126.857 354.808 127.963H354.633C354.675 127.873 354.718 127.778 354.765 127.682C355.322 126.502 355.922 125.48 356.388 124.766C356.622 124.406 356.823 124.125 356.966 123.934C357.11 123.744 357.194 123.643 357.205 123.649H357.2Z" fill="#303360"/>
<path d="M371.23 122.352C371.23 122.352 371.166 122.395 371.039 122.463C370.89 122.538 370.71 122.638 370.482 122.755C369.973 123.019 369.278 123.379 368.429 123.819C366.695 124.719 364.325 126 361.694 127.402C360.093 128.255 358.576 129.043 357.255 129.705L357.133 129.763V129.631C357.117 127.921 357.101 126.481 357.091 125.444C357.091 124.957 357.091 124.56 357.091 124.263C357.091 123.988 357.101 123.845 357.112 123.845C357.123 123.845 357.133 123.993 357.144 124.263C357.154 124.56 357.17 124.957 357.186 125.444C357.213 126.487 357.25 127.927 357.298 129.631L357.176 129.557C358.486 128.885 360.002 128.091 361.599 127.238C364.229 125.835 366.616 124.57 368.366 123.702C369.241 123.268 369.952 122.924 370.45 122.691C370.683 122.585 370.874 122.5 371.023 122.432C371.155 122.373 371.224 122.347 371.23 122.352Z" fill="#303360"/>
<path d="M356.144 131.94C356.117 131.982 355.804 131.839 355.444 131.612C355.088 131.384 354.818 131.167 354.85 131.125C354.876 131.082 355.189 131.225 355.55 131.453C355.905 131.68 356.176 131.897 356.144 131.94Z" fill="#303360"/>
<path d="M356.432 130.954C356.384 130.975 356.008 130.228 355.594 129.291C355.181 128.354 354.884 127.576 354.931 127.555C354.979 127.534 355.356 128.275 355.769 129.217C356.183 130.154 356.48 130.933 356.432 130.954Z" fill="#303360"/>
<path d="M394.761 158.803C394.761 158.803 394.872 159.353 394.978 160.438C395.068 161.518 395.158 163.143 394.914 165.229C394.782 166.272 394.57 167.431 394.135 168.649C393.7 169.851 393.037 171.163 391.838 172.148C391.239 172.619 390.502 172.99 389.691 173.143C388.879 173.286 388.02 173.302 387.156 173.164C385.416 172.91 383.698 172.058 382.16 170.862L382.287 170.788C382.637 173.413 383.008 176.235 383.411 179.236C383.602 180.74 383.83 182.275 384.011 183.879C384.143 185.488 383.894 187.177 383.326 188.77L383.305 188.834H383.242C377.567 189.088 371.341 189.289 364.664 189.39C361.323 189.437 357.87 189.453 354.317 189.4C352.54 189.374 350.737 189.342 348.913 189.178C347.088 189.014 345.248 188.802 343.424 188.251L343.349 188.23L343.339 188.151C343.121 186.298 343.026 184.419 342.909 182.513C342.814 180.607 342.718 178.68 342.623 176.732C342.448 172.831 342.299 168.845 342.156 164.784L342.395 164.864C340.671 166.981 338.253 168.617 335.511 169.321C334.827 169.485 334.127 169.628 333.421 169.686C333.071 169.745 332.7 169.708 332.334 169.697C331.979 169.607 331.613 169.559 331.284 169.395C329.932 168.834 328.871 167.786 327.948 166.69C326.103 164.467 324.713 161.889 323.435 159.258C322.168 156.616 321.059 153.879 320.036 151.084C319.272 148.993 318.561 146.892 317.93 144.78L317.898 144.668L318.005 144.615C321.261 143.038 324.485 141.482 327.673 139.941L327.789 139.883L327.853 139.994C329.826 143.541 331.767 147.035 333.676 150.47L333.432 150.486C333.994 149.142 334.551 147.808 335.103 146.484L335.225 146.399L335.097 146.5C335.813 143.874 336.54 141.286 337.298 138.745C338.062 136.204 338.82 133.7 339.748 131.286C340.194 130.074 340.862 128.925 341.727 127.977C342.602 127.035 343.641 126.267 344.755 125.68C345.874 125.103 347.067 124.679 348.287 124.452C348.897 124.335 349.517 124.282 350.127 124.293C350.737 124.293 351.347 124.288 351.952 124.282H351.904C352.317 124.134 352.715 123.986 353.108 123.838L353.039 123.912C353.452 122.795 353.855 121.72 354.248 120.656L354.317 120.471L354.449 120.619C355.383 121.646 356.274 122.631 357.154 123.605L357.016 123.578C361.572 121.434 365.868 119.407 369.941 117.49L370.057 117.438L370.089 117.565C370.524 119.243 370.927 120.804 371.325 122.329L371.267 122.26C374.486 123.679 377.556 125.034 380.463 126.315H380.447C384.371 127.485 387.643 129.973 389.187 133.123C389.356 133.525 389.531 133.917 389.685 134.314C389.802 134.721 389.919 135.124 390.035 135.521C390.21 136.325 390.375 137.109 390.539 137.871C390.863 139.401 391.175 140.846 391.462 142.207L391.398 142.154L391.462 142.207C392.597 147.585 393.44 151.73 393.992 154.531C394.262 155.933 394.464 156.997 394.591 157.712C394.718 158.427 394.761 158.797 394.761 158.797C394.761 158.797 394.739 158.707 394.708 158.527C394.676 158.342 394.623 158.072 394.559 157.723C394.416 157.008 394.209 155.944 393.928 154.546C393.36 151.751 392.491 147.612 391.34 142.239L391.404 142.291L391.34 142.239C391.043 140.878 390.73 139.433 390.401 137.908C390.046 136.389 389.839 134.732 389.049 133.197C387.521 130.105 384.276 127.649 380.404 126.495H380.388C377.482 125.214 374.406 123.864 371.187 122.451L371.139 122.429L371.129 122.382C370.731 120.852 370.323 119.296 369.882 117.617L370.031 117.686C365.958 119.613 361.662 121.641 357.112 123.795L357.032 123.832L356.974 123.769C356.094 122.795 355.197 121.815 354.264 120.783L354.465 120.746C354.073 121.81 353.675 122.879 353.261 124.002L353.24 124.055L353.187 124.076C352.795 124.224 352.397 124.372 351.983 124.526H351.936C351.336 124.536 350.732 124.542 350.127 124.547C349.517 124.531 348.918 124.589 348.324 124.7C347.131 124.923 345.964 125.336 344.866 125.907C343.774 126.484 342.761 127.231 341.907 128.152C341.058 129.084 340.422 130.179 339.982 131.381C339.059 133.774 338.306 136.283 337.542 138.819C336.789 141.36 336.063 143.943 335.347 146.569L335.219 146.669L335.341 146.585C334.79 147.908 334.233 149.242 333.671 150.587L333.565 150.846L333.427 150.603C331.518 147.167 329.571 143.673 327.604 140.126L327.784 140.185C324.597 141.725 321.372 143.287 318.116 144.859L318.19 144.695C318.821 146.796 319.527 148.893 320.29 150.984C321.314 153.768 322.417 156.505 323.679 159.131C324.947 161.751 326.336 164.313 328.15 166.505C329.057 167.585 330.102 168.601 331.38 169.131C331.687 169.289 332.032 169.332 332.361 169.416C332.7 169.416 333.034 169.464 333.384 169.406C334.079 169.353 334.763 169.21 335.431 169.051C338.115 168.363 340.486 166.764 342.177 164.684L342.4 164.409L342.411 164.763C342.554 168.824 342.702 172.81 342.872 176.711C342.968 178.659 343.063 180.586 343.153 182.492C343.265 184.392 343.36 186.277 343.578 188.109L343.498 188.008C345.259 188.543 347.115 188.765 348.918 188.929C350.732 189.093 352.53 189.125 354.306 189.157C357.854 189.215 361.307 189.199 364.643 189.157C371.32 189.067 377.54 188.876 383.215 188.633L383.125 188.701C383.692 187.119 383.936 185.472 383.814 183.884C383.645 182.301 383.417 180.75 383.226 179.252C382.833 176.251 382.467 173.429 382.128 170.803L382.101 170.613L382.25 170.729C383.772 171.92 385.458 172.767 387.171 173.021C388.02 173.154 388.869 173.143 389.659 173.006C390.449 172.857 391.165 172.503 391.754 172.042C392.926 171.089 393.589 169.792 394.029 168.601C394.469 167.394 394.686 166.24 394.819 165.208C395.079 163.128 394.999 161.513 394.925 160.428C394.883 159.888 394.835 159.475 394.798 159.205C394.761 158.93 394.75 158.792 394.75 158.792L394.761 158.803Z" fill="#303360"/>
<g opacity="0.3">
<path opacity="0.3" d="M372.031 160.526C372.031 160.526 374.794 163.676 376.427 165.72C377.774 167.403 380.24 169.182 382.266 170.881L382.675 174.301C381.052 173.978 378.861 172.104 377.758 170.865C376.661 169.626 375.499 168.335 374.688 166.895C373.208 164.253 371.172 161.712 370.652 158.727L372.031 160.532V160.526Z" fill="black"/>
</g>
<path d="M382.469 170.997C382.469 170.997 382.379 170.918 382.194 170.791C382.013 170.658 381.727 170.484 381.387 170.224C380.709 169.7 379.738 168.911 378.624 167.821C376.392 165.64 373.501 162.331 370.531 158.303L370.547 158.446C371.125 157.048 371.725 155.598 372.345 154.105C373.093 152.284 373.82 150.521 374.498 148.875L374.265 148.933C381.324 154.894 385.885 158.742 386.935 159.631C386.94 159.631 386.876 159.536 386.723 159.388C386.574 159.24 386.346 159.023 386.049 158.753C385.455 158.207 384.575 157.424 383.461 156.455C381.239 154.512 378.099 151.807 374.456 148.71L374.302 148.578L374.223 148.769C373.538 150.415 372.812 152.178 372.059 153.999C371.444 155.492 370.844 156.947 370.272 158.345L370.24 158.424L370.287 158.493C373.284 162.527 376.206 165.82 378.487 167.974C379.627 169.054 380.618 169.827 381.324 170.325C381.674 170.573 381.971 170.732 382.162 170.854C382.358 170.971 382.459 171.023 382.464 171.018L382.469 170.997Z" fill="#303360"/>
<path d="M341.107 133.906C341.107 133.906 341.085 134.017 341.08 134.224C341.08 134.467 341.069 134.769 341.064 135.134C341.054 135.928 341.064 137.072 341.091 138.485C341.144 141.317 341.313 145.219 341.557 149.528C341.801 153.837 342.008 157.739 342.114 160.565C342.162 161.947 342.204 163.08 342.236 163.911C342.252 164.276 342.268 164.578 342.279 164.822C342.289 165.028 342.305 165.139 342.316 165.139C342.326 165.139 342.337 165.028 342.342 164.822C342.342 164.578 342.353 164.276 342.358 163.911C342.369 163.122 342.358 161.973 342.332 160.56C342.279 157.728 342.109 153.826 341.865 149.512C341.621 145.203 341.419 141.302 341.308 138.48C341.26 137.098 341.218 135.966 341.186 135.134C341.17 134.769 341.154 134.467 341.144 134.224C341.133 134.017 341.117 133.906 341.107 133.906Z" fill="#303360"/>
<path d="M339.557 139.645L343.985 156.352C344.229 157.278 345.077 157.919 346.037 157.897L368.98 157.447C370.284 157.421 371.244 156.219 370.974 154.944L367.596 138.941C367.394 137.977 366.54 137.289 365.559 137.289H341.365C340.135 137.289 339.233 138.454 339.551 139.639L339.557 139.645Z" fill="#303360"/>
<path d="M375.132 150.079L374.044 149.063C374.044 149.063 373.323 146.665 372.867 146.21C372.411 145.754 371.191 145.415 371.191 145.415L368.449 142.906L368.948 145.145L364.976 145.114C364.509 145.114 364.058 145.373 363.894 145.807C363.862 145.887 363.851 145.961 363.862 146.024C363.973 146.765 364.657 147.062 364.657 147.062L365.23 147.332C365.23 147.332 364.398 147.575 364.291 148.306C364.148 149.317 365.119 149.645 365.119 149.645C365.119 149.645 364.143 150.079 364.705 151.249C364.705 151.249 363.798 152.324 364.323 153.054C364.848 153.785 367.866 155.002 367.866 155.002L369.537 155.759C369.945 155.876 370.374 155.902 370.788 155.828L371.44 155.918L372.135 156.495C372.135 156.495 376.123 154.32 375.137 150.074L375.132 150.079Z" fill="#FFBF9D"/>
<path d="M370.852 148.373C370.852 148.405 370.507 148.415 369.95 148.384C369.393 148.347 368.629 148.257 367.791 148.093C366.959 147.923 366.216 147.711 365.691 147.526C365.166 147.341 364.853 147.198 364.864 147.171C364.885 147.103 366.19 147.531 367.839 147.86C369.489 148.198 370.857 148.304 370.852 148.378V148.373Z" fill="#FF9A6C"/>
<path d="M371.945 151.485C371.929 151.548 370.386 151.188 368.498 150.68C366.61 150.172 365.098 149.711 365.114 149.648C365.13 149.584 366.674 149.944 368.562 150.453C370.444 150.961 371.961 151.421 371.945 151.485Z" fill="#FF9A6C"/>
<path d="M371.62 153.819C371.62 153.851 371.191 153.808 370.517 153.676C369.843 153.544 368.926 153.3 367.94 152.94C366.958 152.575 366.099 152.157 365.505 151.823C364.906 151.484 364.561 151.241 364.577 151.214C364.593 151.183 364.97 151.378 365.585 151.675C366.2 151.971 367.054 152.358 368.024 152.718C368.995 153.078 369.896 153.342 370.554 153.512C371.212 153.686 371.625 153.782 371.615 153.819H371.62Z" fill="#FF9A6C"/>
<path d="M372.365 150.791C372.301 150.77 372.428 150.325 372.333 149.791C372.248 149.251 371.983 148.875 372.036 148.832C372.078 148.785 372.465 149.139 372.566 149.753C372.672 150.368 372.418 150.828 372.365 150.796V150.791Z" fill="#FF9A6C"/>
<path d="M372.406 147.915C372.364 147.862 372.565 147.619 372.597 147.254C372.64 146.888 372.491 146.603 372.544 146.565C372.571 146.55 372.65 146.597 372.724 146.724C372.799 146.851 372.857 147.052 372.836 147.28C372.815 147.508 372.714 147.693 372.613 147.799C372.512 147.91 372.422 147.942 372.406 147.915Z" fill="#FF9A6C"/>
<path d="M372.14 153.685C372.087 153.637 372.247 153.394 372.342 153.06C372.443 152.732 372.443 152.441 372.512 152.43C372.575 152.414 372.687 152.737 372.57 153.129C372.459 153.521 372.183 153.732 372.14 153.685Z" fill="#FF9A6C"/>
<path d="M365.999 145.145C365.999 145.235 367.043 145.246 368.321 145.336C369.6 145.426 370.634 145.558 370.65 145.473C370.666 145.394 369.642 145.119 368.343 145.034C367.043 144.939 365.993 145.066 365.999 145.15V145.145Z" fill="#FF9A6C"/>
<path d="M336.519 159.997C336.476 159.997 336.386 159.452 336.211 158.568C336.036 157.684 335.755 156.472 335.352 155.159C334.944 153.846 334.493 152.687 334.137 151.856C333.787 151.024 333.549 150.516 333.586 150.5C333.618 150.485 333.915 150.961 334.318 151.776C334.721 152.591 335.209 153.751 335.617 155.079C336.025 156.408 336.275 157.642 336.407 158.536C336.535 159.436 336.561 159.997 336.524 160.003L336.519 159.997Z" fill="#303360"/>
</g>
</g>
<defs>
<clipPath id="clip0_8669_4994">
<rect width="273.784" height="207.83" fill="white" transform="translate(-72.2329 77.2734)"/>
</clipPath>
<clipPath id="clip1_8669_4994">
<rect width="275.801" height="209.898" fill="white" transform="translate(213.146 81.4062)"/>
</clipPath>
</defs>
</svg>
