<svg width="1440" height="264" viewBox="0 0 1440 264" fill="none" xmlns="http://www.w3.org/2000/svg">
<rect x="-28.1167" y="27.7422" width="1493" height="120" transform="rotate(3.22359 -28.1167 27.7422)" fill="#326BFF"/>
<path d="M-400.681 57.659L-400.457 53.6894L-379.601 54.8641L-379.824 58.8336L-387.904 58.3786L-389.153 80.5494L-393.85 80.2849L-392.601 58.114L-400.681 57.659ZM-377.052 81.2309L-375.58 55.0905L-370.845 55.3572L-371.468 66.4235L-359.355 67.1057L-358.732 56.0395L-353.984 56.3069L-355.456 82.4473L-360.204 82.1798L-359.579 71.0753L-371.692 70.3931L-372.317 81.4976L-377.052 81.2309ZM-350.306 82.7373L-348.834 56.5969L-331.832 57.5545L-332.056 61.5241L-344.322 60.8332L-344.721 67.9299L-333.336 68.5712L-333.56 72.5407L-344.945 71.8995L-345.347 79.0345L-332.979 79.7311L-333.202 83.7006L-350.306 82.7373ZM-319.558 84.4691L-318.085 58.3287L-308.078 58.8923C-306.189 58.9987 -304.636 59.385 -303.419 60.0511C-302.193 60.7091 -301.298 61.5662 -300.734 62.6223C-300.162 63.6789 -299.912 64.8539 -299.985 66.1473C-300.045 67.2109 -300.3 68.1099 -300.752 68.8442C-301.202 69.5701 -301.785 70.1476 -302.501 70.5767C-303.216 71.0059 -304.005 71.2987 -304.868 71.455L-304.882 71.7103C-303.958 71.8135 -303.084 72.1487 -302.263 72.7157C-301.432 73.2746 -300.771 74.0375 -300.279 75.0041C-299.787 75.9708 -299.579 77.1179 -299.653 78.4453C-299.73 79.7983 -300.126 80.9967 -300.842 82.0405C-301.557 83.0757 -302.592 83.8668 -303.946 84.4137C-305.3 84.9606 -306.977 85.1777 -308.976 85.0651L-319.558 84.4691ZM-314.599 80.779L-309.507 81.0659C-307.788 81.1627 -306.531 80.9048 -305.737 80.2922C-304.934 79.6717 -304.503 78.8423 -304.444 77.8042C-304.401 77.0298 -304.553 76.3213 -304.901 75.6786C-305.248 75.0273 -305.765 74.5031 -306.451 74.1059C-307.137 73.7003 -307.969 73.4699 -308.948 73.4147L-314.168 73.1207L-314.599 80.779ZM-313.976 69.7128L-309.292 69.9766C-308.475 70.0226 -307.73 69.9151 -307.058 69.6542C-306.386 69.3848 -305.847 68.9841 -305.441 68.4521C-305.027 67.912 -304.798 67.2591 -304.755 66.4932C-304.698 65.4806 -305.008 64.6266 -305.686 63.9311C-306.356 63.2362 -307.388 62.8494 -308.783 62.7708L-313.57 62.5012L-313.976 69.7128ZM-295.935 85.7996L-294.463 59.6592L-277.461 60.6168L-277.685 64.5863L-289.951 63.8955L-290.351 70.9922L-278.965 71.6334L-279.189 75.603L-290.574 74.9617L-290.976 82.0967L-278.608 82.7933L-278.831 86.7629L-295.935 85.7996ZM-258.829 68.875C-258.885 67.7536 -259.338 66.8574 -260.188 66.1864C-261.03 65.5158 -262.152 65.141 -263.556 65.0619C-264.543 65.0064 -265.398 65.1076 -266.121 65.3656C-266.845 65.6237 -267.408 65.9974 -267.811 66.4869C-268.214 66.9764 -268.438 67.5485 -268.484 68.2032C-268.514 68.7478 -268.418 69.227 -268.193 69.6408C-267.961 70.0551 -267.635 70.4149 -267.217 70.7202C-266.798 71.0169 -266.33 71.2737 -265.813 71.4907C-265.296 71.7076 -264.773 71.8949 -264.245 72.0528L-261.828 72.8035C-260.854 73.0888 -259.923 73.4528 -259.035 73.8955C-258.138 74.3387 -257.344 74.8785 -256.655 75.5149C-255.956 76.1518 -255.418 76.9034 -255.04 77.7698C-254.662 78.6361 -254.505 79.6352 -254.569 80.7669C-254.655 82.2986 -255.122 83.6252 -255.971 84.7469C-256.819 85.8601 -258.002 86.7026 -259.519 87.2744C-261.028 87.8382 -262.829 88.0611 -264.922 87.9432C-266.956 87.8287 -268.704 87.4144 -270.166 86.7004C-271.619 85.9868 -272.733 85.0022 -273.508 83.7464C-274.274 82.4911 -274.642 80.9936 -274.612 79.2539L-269.953 79.5163C-269.936 80.4306 -269.698 81.2038 -269.239 81.8357C-268.779 82.4677 -268.162 82.9548 -267.388 83.2972C-266.604 83.6401 -265.719 83.8393 -264.732 83.8949C-263.703 83.9529 -262.792 83.8506 -262 83.5878C-261.2 83.3171 -260.563 82.9176 -260.089 82.3894C-259.615 81.8528 -259.353 81.2102 -259.302 80.4619C-259.272 79.7807 -259.44 79.2078 -259.807 78.7433C-260.173 78.2703 -260.701 77.8649 -261.39 77.5273C-262.071 77.1817 -262.872 76.8634 -263.795 76.5724L-266.726 75.6391C-268.847 74.9647 -270.502 74.0307 -271.69 72.8371C-272.868 71.6354 -273.405 70.0985 -273.299 68.2265C-273.213 66.6863 -272.72 65.3611 -271.821 64.2508C-270.913 63.141 -269.718 62.3077 -268.235 61.751C-266.753 61.1857 -265.096 60.9546 -263.267 61.0577C-261.412 61.1622 -259.805 61.5771 -258.446 62.3024C-257.078 63.0196 -256.026 63.9709 -255.29 65.1562C-254.554 66.333 -254.215 67.6581 -254.272 69.1317L-258.829 68.875ZM-250.66 66.1084L-250.437 62.1388L-229.581 63.3135L-229.804 67.283L-237.884 66.828L-239.133 88.9988L-243.83 88.7343L-242.581 66.5634L-250.66 66.1084ZM-218.117 90.1824L-216.645 64.0421L-211.909 64.3088L-213.158 86.4796L-201.645 87.128L-201.868 91.0976L-218.117 90.1824ZM-191.551 65.4554L-193.023 91.5958L-197.758 91.3291L-196.286 65.1887L-191.551 65.4554ZM-172.621 73.7304C-172.678 72.6089 -173.131 71.7127 -173.981 71.0417C-174.822 70.3712 -175.945 69.9964 -177.349 69.9173C-178.336 69.8617 -179.191 69.9629 -179.914 70.221C-180.637 70.479 -181.201 70.8528 -181.604 71.3422C-182.007 71.8317 -182.231 72.4038 -182.277 73.0585C-182.307 73.6031 -182.21 74.0823 -181.986 74.4962C-181.753 74.9105 -181.428 75.2703 -181.01 75.5755C-180.591 75.8722 -180.123 76.1291 -179.606 76.346C-179.089 76.5629 -178.566 76.7503 -178.037 76.9081L-175.621 77.6588C-174.647 77.9441 -173.716 78.3082 -172.827 78.7509C-171.93 79.1941 -171.137 79.7338 -170.447 80.3702C-169.749 81.0071 -169.211 81.7587 -168.833 82.6251C-168.455 83.4915 -168.298 84.4905 -168.362 85.6222C-168.448 87.1539 -168.915 88.4806 -169.764 89.6022C-170.612 90.7154 -171.795 91.5579 -173.312 92.1297C-174.821 92.6935 -176.621 92.9165 -178.715 92.7986C-180.748 92.684 -182.496 92.2697 -183.959 91.5557C-185.412 90.8422 -186.526 89.8575 -187.301 88.6017C-188.066 87.3465 -188.434 85.849 -188.405 84.1092L-183.746 84.3716C-183.729 85.286 -183.491 86.0591 -183.032 86.691C-182.572 87.323 -181.955 87.8102 -181.18 88.1526C-180.397 88.4954 -179.512 88.6947 -178.525 88.7503C-177.496 88.8083 -176.585 88.7059 -175.793 88.4432C-174.993 88.1724 -174.356 87.773 -173.882 87.2448C-173.408 86.7081 -173.145 86.0656 -173.095 85.3172C-173.065 84.636 -173.233 84.0632 -173.6 83.5986C-173.966 83.1256 -174.494 82.7203 -175.183 82.3827C-175.864 82.037 -176.665 81.7187 -177.588 81.4278L-180.519 80.4944C-182.64 79.8201 -184.295 78.8861 -185.483 77.6924C-186.661 76.4907 -187.198 74.9538 -187.092 73.0818C-187.006 71.5416 -186.513 70.2164 -185.614 69.1061C-184.706 67.9963 -183.511 67.163 -182.028 66.6063C-180.545 66.0411 -178.889 65.81 -177.06 65.913C-175.205 66.0175 -173.598 66.4324 -172.238 67.1577C-170.87 67.875 -169.819 68.8262 -169.083 70.0115C-168.347 71.1883 -168.007 72.5135 -168.065 73.987L-172.621 73.7304ZM-164.453 70.9637L-164.23 66.9941L-143.374 68.1688L-143.597 72.1384L-151.677 71.6833L-152.925 93.8541L-157.623 93.5896L-156.374 71.4188L-164.453 70.9637ZM-134.618 68.662L-136.09 94.8023L-140.825 94.5356L-139.353 68.3952L-134.618 68.662ZM-108.008 70.1606L-109.48 96.301L-113.692 96.0638L-125.007 77.5645L-125.224 77.5523L-126.227 95.3579L-130.962 95.0912L-129.49 68.9508L-125.252 69.1894L-113.951 87.7008L-113.722 87.7137L-112.718 69.8954L-108.008 70.1606ZM-85.8065 79.7851C-85.9804 79.0839 -86.2392 78.4504 -86.5829 77.8848C-86.9177 77.311 -87.3336 76.8139 -87.8306 76.3932C-88.3191 75.973 -88.8897 75.6464 -89.5424 75.4133C-90.1946 75.1717 -90.9122 75.0288 -91.695 74.9848C-93.099 74.9057 -94.3698 75.1884 -95.5072 75.8328C-96.6447 76.4772 -97.5669 77.4667 -98.2737 78.8012C-98.9716 80.1277 -99.3756 81.7696 -99.4858 83.7267C-99.597 85.7008 -99.3806 87.3904 -98.8366 88.7954C-98.2926 90.2003 -97.4876 91.2914 -96.4217 92.0684C-95.3552 92.837 -94.0902 93.2625 -92.6266 93.3449C-91.2992 93.4197 -90.1361 93.2291 -89.1373 92.7732C-88.13 92.3178 -87.3361 91.6369 -86.7559 90.7306C-86.1751 89.8158 -85.849 88.7244 -85.7776 87.4566L-84.7148 87.6829L-91.8115 87.2832L-91.603 83.5817L-80.9962 84.179L-81.1731 87.319C-81.2991 89.5569 -81.8847 91.4659 -82.9297 93.046C-83.9748 94.6261 -85.3561 95.8117 -87.0738 96.6027C-88.791 97.3852 -90.7302 97.7156 -92.8916 97.5939C-95.2997 97.4582 -97.3838 96.7988 -99.1439 95.6156C-100.895 94.4243 -102.225 92.8001 -103.133 90.7429C-104.033 88.6777 -104.405 86.2666 -104.25 83.5096C-104.131 81.3993 -103.727 79.5313 -103.038 77.9055C-102.34 76.2802 -101.418 74.9194 -100.273 73.823C-99.1262 72.7181 -97.8085 71.9046 -96.3194 71.3824C-94.8298 70.8517 -93.2298 70.6345 -91.5194 70.7308C-90.0729 70.8123 -88.7361 71.101 -87.5092 71.5969C-86.2819 72.0843 -85.205 72.7425 -84.2785 73.5714C-83.3436 74.4009 -82.5912 75.3652 -82.0214 76.4643C-81.4516 77.5634 -81.1051 78.7609 -80.9817 80.0569L-85.8065 79.7851ZM-62.0646 72.7483L-63.5369 98.8886L-68.2723 98.6219L-66.8 72.4816L-62.0646 72.7483ZM-35.4552 74.2469L-36.9274 100.387L-41.1395 100.15L-52.4538 81.6508L-52.6708 81.6386L-53.6736 99.4442L-58.409 99.1775L-56.9367 73.0371L-52.6991 73.2757L-41.3983 91.7871L-41.1686 91.8L-40.165 73.9817L-35.4552 74.2469ZM-22.7521 78.9446L-22.5286 74.975L-1.6724 76.1496L-1.89597 80.1192L-9.9755 79.6642L-11.2242 101.835L-15.9213 101.57L-14.6726 79.3996L-22.7521 78.9446ZM0.875946 102.516L2.34822 76.3761L7.08361 76.6428L6.46034 87.7091L18.5732 88.3913L19.1965 77.325L23.9447 77.5924L22.4724 103.733L17.7242 103.465L18.3497 92.3609L6.23677 91.6786L5.61134 102.783L0.875946 102.516ZM27.6226 104.023L29.0949 77.8825L46.0964 78.8401L45.8728 82.8096L33.6067 82.1188L33.207 89.2155L44.5924 89.8567L44.3688 93.8263L32.9834 93.185L32.5816 100.32L44.9498 101.017L44.7262 104.986L27.6226 104.023ZM63.872 106.065L57.9667 79.5086L63.0595 79.7955L66.6875 99.2703L66.93 99.284L73.0409 80.3576L77.6742 80.6186L81.6332 100.125L81.863 100.138L87.6555 81.1807L92.7483 81.4676L83.8985 107.192L79.2269 106.929L75.0268 88.2929L74.8225 88.2814L68.5436 106.328L63.872 106.065ZM117.249 95.9592C117.091 98.7757 116.427 101.158 115.259 103.107C114.1 105.048 112.584 106.499 110.712 107.461C108.848 108.423 106.771 108.839 104.482 108.71C102.193 108.581 100.173 107.934 98.4201 106.768C96.6765 105.595 95.3335 103.978 94.391 101.919C93.4574 99.8519 93.0697 97.4143 93.2279 94.6062C93.3865 91.7897 94.0455 89.411 95.2047 87.4703C96.373 85.5216 97.889 84.0662 99.7529 83.1041C101.625 82.1425 103.706 81.7262 105.995 81.8551C108.284 81.9841 110.3 82.6311 112.045 83.7964C113.797 84.9621 115.14 86.5786 116.074 88.6457C117.016 90.7048 117.408 93.1426 117.249 95.9592ZM112.489 95.691C112.6 93.7084 112.384 92.0188 111.839 90.6224C111.304 89.2179 110.511 88.1361 109.461 87.377C108.412 86.6094 107.177 86.1855 105.756 86.1055C104.335 86.0255 103.06 86.3079 101.931 86.9528C100.802 87.5892 99.8887 88.575 99.1903 89.91C98.501 91.2369 98.1005 92.8917 97.9888 94.8744C97.8771 96.857 98.0891 98.5506 98.6246 99.9551C99.1691 101.352 99.966 102.434 101.015 103.201C102.065 103.96 103.301 104.38 104.722 104.46C106.143 104.54 107.418 104.262 108.546 103.625C109.675 102.98 110.584 101.994 111.274 100.668C111.972 99.3325 112.377 97.6737 112.489 95.691ZM120.99 109.282L122.463 83.1411L127.198 83.4078L125.949 105.579L137.462 106.227L137.239 110.197L120.99 109.282Z" fill="white"/>
<path d="M194.377 91.1746L194.6 87.2051L215.456 88.3797L215.233 92.3493L207.153 91.8942L205.905 114.065L201.207 113.8L202.456 91.6297L194.377 91.1746ZM218.005 114.747L219.477 88.6062L224.212 88.8729L223.589 99.9391L235.702 100.621L236.325 89.5551L241.073 89.8225L239.601 115.963L234.853 115.695L235.478 104.591L223.366 103.909L222.74 115.013L218.005 114.747ZM244.751 116.253L246.224 90.1126L263.225 91.0701L263.002 95.0397L250.735 94.3488L250.336 101.446L261.721 102.087L261.498 106.056L250.112 105.415L249.71 112.55L262.079 113.247L261.855 117.216L244.751 116.253ZM275.5 117.985L276.972 91.8444L286.979 92.408C288.868 92.5144 290.421 92.9006 291.638 93.5667C292.864 94.2248 293.759 95.0819 294.323 96.1379C294.895 97.1945 295.145 98.3695 295.072 99.6629C295.012 100.727 294.757 101.626 294.306 102.36C293.855 103.086 293.272 103.663 292.556 104.092C291.841 104.522 291.052 104.814 290.189 104.971L290.175 105.226C291.099 105.329 291.973 105.664 292.794 106.231C293.625 106.79 294.286 107.553 294.778 108.52C295.27 109.486 295.479 110.634 295.404 111.961C295.328 113.314 294.931 114.512 294.215 115.556C293.5 116.591 292.465 117.382 291.111 117.929C289.757 118.476 288.08 118.693 286.081 118.581L275.5 117.985ZM280.458 114.295L285.551 114.581C287.269 114.678 288.526 114.42 289.32 113.808C290.123 113.187 290.554 112.358 290.613 111.32C290.656 110.545 290.504 109.837 290.156 109.194C289.809 108.543 289.292 108.019 288.606 107.622C287.92 107.216 287.088 106.985 286.109 106.93L280.889 106.636L280.458 114.295ZM281.081 103.228L285.765 103.492C286.582 103.538 287.327 103.431 287.999 103.17C288.671 102.9 289.21 102.5 289.616 101.968C290.03 101.428 290.259 100.775 290.302 100.009C290.359 98.9963 290.049 98.1422 289.371 97.4468C288.702 96.7518 287.669 96.365 286.274 96.2864L281.487 96.0168L281.081 103.228ZM299.122 119.315L300.594 93.1748L317.596 94.1324L317.372 98.1019L305.106 97.4111L304.707 104.508L316.092 105.149L315.868 109.119L304.483 108.477L304.081 115.612L316.449 116.309L316.226 120.279L299.122 119.315ZM336.229 102.391C336.172 101.269 335.719 100.373 334.869 99.702C334.028 99.0315 332.905 98.6567 331.501 98.5776C330.514 98.522 329.659 98.6232 328.936 98.8813C328.213 99.1393 327.649 99.5131 327.246 100.003C326.843 100.492 326.619 101.064 326.573 101.719C326.543 102.263 326.64 102.743 326.864 103.156C327.097 103.571 327.422 103.931 327.84 104.236C328.259 104.533 328.727 104.789 329.244 105.006C329.761 105.223 330.284 105.411 330.813 105.568L333.229 106.319C334.203 106.604 335.134 106.968 336.023 107.411C336.92 107.854 337.713 108.394 338.403 109.031C339.101 109.667 339.639 110.419 340.017 111.285C340.395 112.152 340.552 113.151 340.488 114.283C340.402 115.814 339.935 117.141 339.086 118.263C338.238 119.376 337.055 120.218 335.538 120.79C334.029 121.354 332.229 121.577 330.135 121.459C328.102 121.344 326.354 120.93 324.891 120.216C323.438 119.502 322.324 118.518 321.549 117.262C320.784 116.007 320.416 114.509 320.445 112.77L325.104 113.032C325.121 113.946 325.359 114.719 325.818 115.351C326.278 115.983 326.895 116.47 327.67 116.813C328.453 117.156 329.338 117.355 330.325 117.411C331.354 117.469 332.265 117.366 333.057 117.103C333.857 116.833 334.494 116.433 334.968 115.905C335.442 115.368 335.705 114.726 335.755 113.978C335.785 113.296 335.617 112.723 335.25 112.259C334.884 111.786 334.356 111.381 333.667 111.043C332.986 110.697 332.185 110.379 331.262 110.088L328.331 109.155C326.21 108.48 324.555 107.546 323.367 106.353C322.189 105.151 321.652 103.614 321.758 101.742C321.844 100.202 322.337 98.8767 323.236 97.7664C324.144 96.6566 325.339 95.8233 326.822 95.2666C328.305 94.7014 329.961 94.4703 331.79 94.5733C333.645 94.6778 335.252 95.0927 336.612 95.818C337.98 96.5353 339.031 97.4865 339.767 98.6718C340.503 99.8486 340.843 101.174 340.785 102.647L336.229 102.391ZM344.397 99.624L344.62 95.6544L365.476 96.8291L365.253 100.799L357.173 100.344L355.925 122.514L351.227 122.25L352.476 100.079L344.397 99.624ZM376.94 123.698L378.413 97.5577L383.148 97.8244L381.899 119.995L393.412 120.644L393.189 124.613L376.94 123.698ZM403.506 98.971L402.034 125.111L397.299 124.845L398.771 98.7043L403.506 98.971ZM422.436 107.246C422.379 106.125 421.926 105.228 421.076 104.557C420.235 103.887 419.112 103.512 417.708 103.433C416.721 103.377 415.866 103.479 415.143 103.737C414.42 103.995 413.857 104.368 413.453 104.858C413.05 105.347 412.826 105.919 412.781 106.574C412.75 107.119 412.847 107.598 413.071 108.012C413.304 108.426 413.629 108.786 414.047 109.091C414.466 109.388 414.934 109.645 415.451 109.862C415.968 110.079 416.491 110.266 417.02 110.424L419.436 111.174C420.41 111.46 421.341 111.824 422.23 112.266C423.127 112.71 423.92 113.249 424.61 113.886C425.308 114.523 425.846 115.274 426.224 116.141C426.602 117.007 426.759 118.006 426.696 119.138C426.609 120.67 426.142 121.996 425.293 123.118C424.445 124.231 423.263 125.074 421.745 125.645C420.237 126.209 418.436 126.432 416.342 126.314C414.309 126.2 412.561 125.785 411.099 125.071C409.645 124.358 408.531 123.373 407.757 122.117C406.991 120.862 406.623 119.365 406.652 117.625L411.311 117.887C411.328 118.802 411.566 119.575 412.026 120.207C412.485 120.839 413.102 121.326 413.877 121.668C414.66 122.011 415.545 122.21 416.532 122.266C417.562 122.324 418.472 122.222 419.264 121.959C420.064 121.688 420.701 121.289 421.175 120.76C421.649 120.224 421.912 119.581 421.962 118.833C421.992 118.152 421.824 117.579 421.457 117.114C421.091 116.641 420.564 116.236 419.874 115.898C419.194 115.553 418.392 115.234 417.469 114.943L414.539 114.01C412.417 113.336 410.762 112.402 409.575 111.208C408.396 110.006 407.859 108.469 407.965 106.597C408.052 105.057 408.545 103.732 409.444 102.622C410.351 101.512 411.546 100.679 413.029 100.122C414.512 99.5567 416.168 99.3256 417.997 99.4286C419.852 99.5331 421.46 99.948 422.819 100.673C424.187 101.391 425.239 102.342 425.974 103.527C426.71 104.704 427.05 106.029 426.992 107.503L422.436 107.246ZM430.604 104.479L430.827 100.51L451.684 101.684L451.46 105.654L443.38 105.199L442.132 127.37L437.435 127.105L438.683 104.934L430.604 104.479ZM460.44 102.178L458.967 128.318L454.232 128.051L455.704 101.911L460.44 102.178ZM487.049 103.676L485.577 129.817L481.365 129.579L470.05 111.08L469.833 111.068L468.831 128.873L464.095 128.607L465.567 102.466L469.805 102.705L481.106 121.216L481.336 121.229L482.339 103.411L487.049 103.676ZM509.251 113.301C509.077 112.6 508.818 111.966 508.474 111.4C508.139 110.827 507.724 110.329 507.227 109.909C506.738 109.489 506.167 109.162 505.515 108.929C504.863 108.687 504.145 108.544 503.362 108.5C501.958 108.421 500.687 108.704 499.55 109.348C498.412 109.993 497.49 110.982 496.783 112.317C496.086 113.643 495.682 115.285 495.571 117.242C495.46 119.216 495.677 120.906 496.221 122.311C496.765 123.716 497.57 124.807 498.635 125.584C499.702 126.353 500.967 126.778 502.43 126.861C503.758 126.935 504.921 126.745 505.92 126.289C506.927 125.833 507.721 125.153 508.301 124.246C508.882 123.331 509.208 122.24 509.28 120.972L510.342 121.198L503.246 120.799L503.454 117.097L514.061 117.695L513.884 120.835C513.758 123.073 513.172 124.982 512.127 126.562C511.082 128.142 509.701 129.327 507.983 130.118C506.266 130.901 504.327 131.231 502.166 131.109C499.757 130.974 497.673 130.314 495.913 129.131C494.162 127.94 492.832 126.316 491.924 124.259C491.024 122.193 490.652 119.782 490.807 117.025C490.926 114.915 491.33 113.047 492.019 111.421C492.717 109.796 493.639 108.435 494.785 107.339C495.931 106.234 497.249 105.42 498.738 104.898C500.227 104.367 501.827 104.15 503.538 104.246C504.984 104.328 506.321 104.617 507.548 105.112C508.775 105.6 509.852 106.258 510.779 107.087C511.714 107.917 512.466 108.881 513.036 109.98C513.605 111.079 513.952 112.277 514.075 113.572L509.251 113.301ZM532.993 106.264L531.52 132.404L526.785 132.138L528.257 105.997L532.993 106.264ZM559.602 107.763L558.13 133.903L553.918 133.666L542.603 115.166L542.386 115.154L541.384 132.96L536.648 132.693L538.12 106.553L542.358 106.791L553.659 125.303L553.889 125.316L554.892 107.497L559.602 107.763ZM572.305 112.46L572.529 108.491L593.385 109.665L593.161 113.635L585.082 113.18L583.833 135.351L579.136 135.086L580.385 112.915L572.305 112.46ZM595.933 136.032L597.405 109.892L602.141 110.158L601.517 121.225L613.63 121.907L614.254 110.841L619.002 111.108L617.53 137.248L612.781 136.981L613.407 125.876L601.294 125.194L600.668 136.299L595.933 136.032ZM622.68 137.539L624.152 111.398L641.153 112.356L640.93 116.325L628.664 115.634L628.264 122.731L639.65 123.372L639.426 127.342L628.041 126.701L627.639 133.836L640.007 134.532L639.783 138.502L622.68 137.539ZM658.929 139.58L653.024 113.024L658.117 113.311L661.745 132.786L661.987 132.8L668.098 113.873L672.731 114.134L676.69 133.641L676.92 133.653L682.713 114.696L687.805 114.983L678.956 140.708L674.284 140.445L670.084 121.809L669.88 121.797L663.601 139.843L658.929 139.58ZM712.307 129.475C712.148 132.291 711.485 134.674 710.316 136.623C709.157 138.564 707.641 140.015 705.769 140.976C703.905 141.938 701.829 142.355 699.54 142.226C697.251 142.097 695.23 141.45 693.477 140.284C691.734 139.11 690.391 137.494 689.448 135.435C688.515 133.368 688.127 130.93 688.285 128.122C688.444 125.305 689.103 122.927 690.262 120.986C691.43 119.037 692.946 117.582 694.81 116.62C696.682 115.658 698.763 115.242 701.052 115.371C703.341 115.5 705.358 116.147 707.102 117.312C708.854 118.478 710.197 120.094 711.131 122.161C712.073 124.22 712.465 126.658 712.307 129.475ZM707.546 129.207C707.657 127.224 707.441 125.534 706.896 124.138C706.361 122.733 705.568 121.652 704.518 120.893C703.469 120.125 702.234 119.701 700.813 119.621C699.392 119.541 698.117 119.824 696.988 120.468C695.859 121.105 694.946 122.091 694.247 123.426C693.558 124.753 693.158 126.407 693.046 128.39C692.934 130.373 693.146 132.066 693.682 133.471C694.226 134.867 695.023 135.949 696.073 136.717C697.122 137.476 698.358 137.896 699.779 137.976C701.2 138.056 702.475 137.777 703.603 137.141C704.732 136.496 705.641 135.51 706.331 134.183C707.029 132.848 707.434 131.189 707.546 129.207ZM716.047 142.797L717.52 116.657L722.255 116.923L721.006 139.094L732.519 139.743L732.296 143.712L716.047 142.797Z" fill="white"/>
<path d="M789.434 124.69L789.657 120.721L810.513 121.895L810.29 125.865L802.21 125.41L800.962 147.581L796.265 147.316L797.513 125.145L789.434 124.69ZM813.062 148.262L814.534 122.122L819.269 122.388L818.646 133.455L830.759 134.137L831.382 123.071L836.131 123.338L834.658 149.479L829.91 149.211L830.536 138.107L818.423 137.424L817.797 148.529L813.062 148.262ZM839.808 149.769L841.281 123.628L858.282 124.586L858.059 128.555L845.793 127.864L845.393 134.961L856.778 135.602L856.555 139.572L845.169 138.931L844.767 146.066L857.136 146.762L856.912 150.732L839.808 149.769ZM870.557 151.5L872.029 125.36L882.036 125.924C883.925 126.03 885.478 126.416 886.695 127.082C887.922 127.74 888.817 128.597 889.38 129.654C889.952 130.71 890.202 131.885 890.129 133.179C890.069 134.242 889.814 135.141 889.363 135.875C888.912 136.601 888.329 137.179 887.613 137.608C886.898 138.037 886.109 138.33 885.246 138.486L885.232 138.742C886.157 138.845 887.03 139.18 887.851 139.747C888.682 140.306 889.343 141.069 889.835 142.035C890.327 143.002 890.536 144.149 890.461 145.477C890.385 146.83 889.989 148.028 889.273 149.072C888.557 150.107 887.522 150.898 886.168 151.445C884.814 151.992 883.138 152.209 881.138 152.096L870.557 151.5ZM875.515 147.81L880.608 148.097C882.327 148.194 883.583 147.936 884.377 147.323C885.181 146.703 885.611 145.874 885.67 144.835C885.713 144.061 885.561 143.353 885.213 142.71C884.866 142.059 884.349 141.534 883.663 141.137C882.977 140.732 882.145 140.501 881.167 140.446L875.946 140.152L875.515 147.81ZM876.138 136.744L880.822 137.008C881.639 137.054 882.384 136.946 883.056 136.685C883.728 136.416 884.267 136.015 884.673 135.483C885.087 134.943 885.316 134.29 885.359 133.524C885.416 132.512 885.106 131.658 884.428 130.962C883.759 130.267 882.726 129.881 881.331 129.802L876.544 129.532L876.138 136.744ZM894.179 152.831L895.652 126.69L912.653 127.648L912.43 131.618L900.163 130.927L899.764 138.023L911.149 138.665L910.926 142.634L899.54 141.993L899.138 149.128L911.506 149.825L911.283 153.794L894.179 152.831ZM931.286 135.906C931.229 134.785 930.776 133.889 929.926 133.218C929.085 132.547 927.962 132.172 926.558 132.093C925.571 132.038 924.716 132.139 923.993 132.397C923.27 132.655 922.707 133.029 922.303 133.518C921.9 134.008 921.676 134.58 921.631 135.234C921.6 135.779 921.697 136.258 921.921 136.672C922.154 137.086 922.479 137.446 922.897 137.751C923.316 138.048 923.784 138.305 924.301 138.522C924.818 138.739 925.341 138.926 925.87 139.084L928.286 139.835C929.26 140.12 930.191 140.484 931.08 140.927C931.977 141.37 932.77 141.91 933.46 142.546C934.158 143.183 934.696 143.935 935.074 144.801C935.452 145.667 935.609 146.666 935.546 147.798C935.459 149.33 934.992 150.656 934.143 151.778C933.295 152.891 932.113 153.734 930.595 154.306C929.087 154.869 927.286 155.092 925.192 154.974C923.159 154.86 921.411 154.446 919.949 153.732C918.495 153.018 917.381 152.033 916.607 150.778C915.841 149.522 915.473 148.025 915.502 146.285L920.161 146.548C920.178 147.462 920.416 148.235 920.876 148.867C921.335 149.499 921.952 149.986 922.727 150.328C923.51 150.671 924.395 150.871 925.382 150.926C926.412 150.984 927.322 150.882 928.114 150.619C928.914 150.348 929.551 149.949 930.025 149.421C930.499 148.884 930.762 148.241 930.812 147.493C930.842 146.812 930.674 146.239 930.307 145.775C929.941 145.302 929.414 144.896 928.724 144.559C928.044 144.213 927.242 143.895 926.319 143.604L923.389 142.67C921.267 141.996 919.612 141.062 918.425 139.868C917.246 138.667 916.709 137.13 916.815 135.258C916.902 133.718 917.395 132.392 918.294 131.282C919.201 130.172 920.396 129.339 921.879 128.782C923.362 128.217 925.018 127.986 926.847 128.089C928.702 128.193 930.31 128.608 931.669 129.334C933.037 130.051 934.089 131.002 934.824 132.187C935.56 133.364 935.9 134.689 935.842 136.163L931.286 135.906ZM939.454 133.14L939.677 129.17L960.534 130.345L960.31 134.314L952.23 133.859L950.982 156.03L946.285 155.766L947.533 133.595L939.454 133.14ZM971.997 157.214L973.47 131.073L978.205 131.34L976.956 153.511L988.469 154.159L988.246 158.129L971.997 157.214ZM998.563 132.487L997.091 158.627L992.356 158.36L993.828 132.22L998.563 132.487ZM1017.49 140.762C1017.44 139.64 1016.98 138.744 1016.13 138.073C1015.29 137.402 1014.17 137.028 1012.77 136.949C1011.78 136.893 1010.92 136.994 1010.2 137.252C1009.48 137.51 1008.91 137.884 1008.51 138.373C1008.11 138.863 1007.88 139.435 1007.84 140.09C1007.81 140.634 1007.9 141.114 1008.13 141.527C1008.36 141.942 1008.69 142.302 1009.1 142.607C1009.52 142.903 1009.99 143.16 1010.51 143.377C1011.02 143.594 1011.55 143.782 1012.08 143.939L1014.49 144.69C1015.47 144.975 1016.4 145.339 1017.29 145.782C1018.18 146.225 1018.98 146.765 1019.67 147.401C1020.37 148.038 1020.9 148.79 1021.28 149.656C1021.66 150.523 1021.82 151.522 1021.75 152.653C1021.67 154.185 1021.2 155.512 1020.35 156.633C1019.5 157.747 1018.32 158.589 1016.8 159.161C1015.29 159.725 1013.49 159.948 1011.4 159.83C1009.37 159.715 1007.62 159.301 1006.16 158.587C1004.7 157.873 1003.59 156.889 1002.81 155.633C1002.05 154.378 1001.68 152.88 1001.71 151.14L1006.37 151.403C1006.39 152.317 1006.62 153.09 1007.08 153.722C1007.54 154.354 1008.16 154.841 1008.93 155.184C1009.72 155.527 1010.6 155.726 1011.59 155.782C1012.62 155.84 1013.53 155.737 1014.32 155.474C1015.12 155.204 1015.76 154.804 1016.23 154.276C1016.71 153.739 1016.97 153.097 1017.02 152.348C1017.05 151.667 1016.88 151.094 1016.51 150.63C1016.15 150.157 1015.62 149.752 1014.93 149.414C1014.25 149.068 1013.45 148.75 1012.53 148.459L1009.6 147.526C1007.47 146.851 1005.82 145.917 1004.63 144.724C1003.45 143.522 1002.92 141.985 1003.02 140.113C1003.11 138.573 1003.6 137.248 1004.5 136.137C1005.41 135.028 1006.6 134.194 1008.09 133.638C1009.57 133.072 1011.23 132.841 1013.05 132.944C1014.91 133.049 1016.52 133.464 1017.88 134.189C1019.24 134.906 1020.3 135.857 1021.03 137.043C1021.77 138.22 1022.11 139.545 1022.05 141.018L1017.49 140.762ZM1025.66 137.995L1025.88 134.025L1046.74 135.2L1046.52 139.17L1038.44 138.715L1037.19 160.885L1032.49 160.621L1033.74 138.45L1025.66 137.995ZM1055.5 135.693L1054.02 161.834L1049.29 161.567L1050.76 135.426L1055.5 135.693ZM1082.11 137.192L1080.63 163.332L1076.42 163.095L1065.11 144.596L1064.89 144.584L1063.89 162.389L1059.15 162.122L1060.62 135.982L1064.86 136.221L1076.16 154.732L1076.39 154.745L1077.4 136.927L1082.11 137.192ZM1104.31 146.816C1104.13 146.115 1103.88 145.482 1103.53 144.916C1103.2 144.342 1102.78 143.845 1102.28 143.424C1101.8 143.004 1101.22 142.678 1100.57 142.445C1099.92 142.203 1099.2 142.06 1098.42 142.016C1097.02 141.937 1095.74 142.22 1094.61 142.864C1093.47 143.508 1092.55 144.498 1091.84 145.832C1091.14 147.159 1090.74 148.801 1090.63 150.758C1090.52 152.732 1090.73 154.422 1091.28 155.827C1091.82 157.232 1092.63 158.323 1093.69 159.1C1094.76 159.868 1096.02 160.294 1097.49 160.376C1098.82 160.451 1099.98 160.26 1100.98 159.804C1101.98 159.349 1102.78 158.668 1103.36 157.762C1103.94 156.847 1104.27 155.756 1104.34 154.488L1105.4 154.714L1098.3 154.314L1098.51 150.613L1109.12 151.21L1108.94 154.35C1108.82 156.588 1108.23 158.497 1107.18 160.077C1106.14 161.657 1104.76 162.843 1103.04 163.634C1101.32 164.416 1099.38 164.747 1097.22 164.625C1094.81 164.489 1092.73 163.83 1090.97 162.647C1089.22 161.456 1087.89 159.831 1086.98 157.774C1086.08 155.709 1085.71 153.298 1085.86 150.541C1085.98 148.431 1086.39 146.563 1087.08 144.937C1087.77 143.311 1088.7 141.951 1089.84 140.854C1090.99 139.749 1092.31 138.936 1093.79 138.414C1095.28 137.883 1096.88 137.666 1098.59 137.762C1100.04 137.844 1101.38 138.132 1102.61 138.628C1103.83 139.116 1104.91 139.774 1105.84 140.603C1106.77 141.432 1107.52 142.396 1108.09 143.496C1108.66 144.595 1109.01 145.792 1109.13 147.088L1104.31 146.816ZM1128.05 139.78L1126.58 165.92L1121.84 165.653L1123.31 139.513L1128.05 139.78ZM1154.66 141.278L1153.19 167.419L1148.97 167.181L1137.66 148.682L1137.44 148.67L1136.44 166.475L1131.71 166.209L1133.18 140.068L1137.42 140.307L1148.72 158.818L1148.95 158.831L1149.95 141.013L1154.66 141.278ZM1167.36 145.976L1167.59 142.006L1188.44 143.181L1188.22 147.15L1180.14 146.695L1178.89 168.866L1174.19 168.602L1175.44 146.431L1167.36 145.976ZM1190.99 169.548L1192.46 143.407L1197.2 143.674L1196.57 154.74L1208.69 155.423L1209.31 144.356L1214.06 144.624L1212.59 170.764L1207.84 170.497L1208.46 159.392L1196.35 158.71L1195.73 169.814L1190.99 169.548ZM1217.74 171.054L1219.21 144.914L1236.21 145.871L1235.99 149.841L1223.72 149.15L1223.32 156.247L1234.71 156.888L1234.48 160.858L1223.1 160.216L1222.7 167.351L1235.06 168.048L1234.84 172.017L1217.74 171.054ZM1253.99 173.096L1248.08 146.54L1253.17 146.827L1256.8 166.302L1257.04 166.315L1263.16 147.389L1267.79 147.65L1271.75 167.156L1271.98 167.169L1277.77 148.212L1282.86 148.499L1274.01 174.224L1269.34 173.961L1265.14 155.324L1264.94 155.313L1258.66 173.359L1253.99 173.096ZM1307.36 162.99C1307.21 165.807 1306.54 168.19 1305.37 170.138C1304.21 172.079 1302.7 173.53 1300.83 174.492C1298.96 175.454 1296.89 175.87 1294.6 175.742C1292.31 175.613 1290.29 174.965 1288.53 173.8C1286.79 172.626 1285.45 171.009 1284.51 168.95C1283.57 166.883 1283.18 164.446 1283.34 161.637C1283.5 158.821 1284.16 156.442 1285.32 154.502C1286.49 152.553 1288 151.097 1289.87 150.135C1291.74 149.174 1293.82 148.757 1296.11 148.886C1298.4 149.015 1300.41 149.662 1302.16 150.828C1303.91 151.993 1305.25 153.61 1306.19 155.677C1307.13 157.736 1307.52 160.174 1307.36 162.99ZM1302.6 162.722C1302.71 160.74 1302.5 159.05 1301.95 157.654C1301.42 156.249 1300.63 155.167 1299.58 154.408C1298.53 153.641 1297.29 153.217 1295.87 153.137C1294.45 153.057 1293.17 153.339 1292.04 153.984C1290.92 154.62 1290 155.606 1289.3 156.941C1288.62 158.268 1288.21 159.923 1288.1 161.906C1287.99 163.888 1288.2 165.582 1288.74 166.986C1289.28 168.383 1290.08 169.465 1291.13 170.232C1292.18 170.992 1293.42 171.411 1294.84 171.491C1296.26 171.571 1297.53 171.293 1298.66 170.657C1299.79 170.012 1300.7 169.026 1301.39 167.699C1302.09 166.364 1302.49 164.705 1302.6 162.722ZM1311.1 176.313L1312.58 150.172L1317.31 150.439L1316.06 172.61L1327.58 173.258L1327.35 177.228L1311.1 176.313Z" fill="white"/>
<path d="M1384.49 158.206L1384.71 154.236L1405.57 155.411L1405.35 159.381L1397.27 158.925L1396.02 181.096L1391.32 180.832L1392.57 158.661L1384.49 158.206ZM1408.12 181.778L1409.59 155.637L1414.33 155.904L1413.7 166.97L1425.82 167.653L1426.44 156.586L1431.19 156.854L1429.71 182.994L1424.97 182.727L1425.59 171.622L1413.48 170.94L1412.85 182.045L1408.12 181.778ZM1434.87 183.284L1436.34 157.144L1453.34 158.101L1453.12 162.071L1440.85 161.38L1440.45 168.477L1451.83 169.118L1451.61 173.088L1440.23 172.446L1439.82 179.581L1452.19 180.278L1451.97 184.248L1434.87 183.284ZM1465.61 185.016L1467.09 158.876L1477.09 159.439C1478.98 159.546 1480.53 159.932 1481.75 160.598C1482.98 161.256 1483.87 162.113 1484.44 163.169C1485.01 164.226 1485.26 165.401 1485.19 166.694C1485.13 167.758 1484.87 168.657 1484.42 169.391C1483.97 170.117 1483.39 170.694 1482.67 171.124C1481.95 171.553 1481.17 171.846 1480.3 172.002L1480.29 172.257C1481.21 172.36 1482.09 172.696 1482.91 173.263C1483.74 173.822 1484.4 174.584 1484.89 175.551C1485.38 176.518 1485.59 177.665 1485.52 178.992C1485.44 180.345 1485.05 181.544 1484.33 182.587C1483.61 183.623 1482.58 184.414 1481.22 184.961C1479.87 185.507 1478.19 185.725 1476.19 185.612L1465.61 185.016ZM1470.57 181.326L1475.66 181.613C1477.38 181.71 1478.64 181.452 1479.43 180.839C1480.24 180.219 1480.67 179.389 1480.73 178.351C1480.77 177.577 1480.62 176.868 1480.27 176.225C1479.92 175.574 1479.41 175.05 1478.72 174.653C1478.03 174.247 1477.2 174.017 1476.22 173.962L1471 173.668L1470.57 181.326ZM1471.19 170.26L1475.88 170.523C1476.7 170.569 1477.44 170.462 1478.11 170.201C1478.78 169.932 1479.32 169.531 1479.73 168.999C1480.14 168.459 1480.37 167.806 1480.42 167.04C1480.47 166.028 1480.16 165.173 1479.48 164.478C1478.82 163.783 1477.78 163.396 1476.39 163.318L1471.6 163.048L1471.19 170.26ZM1489.24 186.346L1490.71 160.206L1507.71 161.164L1507.49 165.133L1495.22 164.442L1494.82 171.539L1506.21 172.18L1505.98 176.15L1494.6 175.509L1494.19 182.644L1506.56 183.34L1506.34 187.31L1489.24 186.346ZM1526.34 169.422C1526.29 168.3 1525.83 167.404 1524.98 166.733C1524.14 166.063 1523.02 165.688 1521.61 165.609C1520.63 165.553 1519.77 165.654 1519.05 165.913C1518.33 166.171 1517.76 166.544 1517.36 167.034C1516.96 167.523 1516.73 168.095 1516.69 168.75C1516.66 169.295 1516.75 169.774 1516.98 170.188C1517.21 170.602 1517.54 170.962 1517.95 171.267C1518.37 171.564 1518.84 171.821 1519.36 172.038C1519.87 172.254 1520.4 172.442 1520.93 172.6L1523.34 173.35C1524.32 173.636 1525.25 174 1526.14 174.442C1527.03 174.886 1527.83 175.425 1528.52 176.062C1529.21 176.699 1529.75 177.45 1530.13 178.317C1530.51 179.183 1530.67 180.182 1530.6 181.314C1530.52 182.845 1530.05 184.172 1529.2 185.294C1528.35 186.407 1527.17 187.249 1525.65 187.821C1524.14 188.385 1522.34 188.608 1520.25 188.49C1518.22 188.376 1516.47 187.961 1515.01 187.247C1513.55 186.534 1512.44 185.549 1511.66 184.293C1510.9 183.038 1510.53 181.541 1510.56 179.801L1515.22 180.063C1515.23 180.978 1515.47 181.751 1515.93 182.383C1516.39 183.015 1517.01 183.502 1517.78 183.844C1518.57 184.187 1519.45 184.386 1520.44 184.442C1521.47 184.5 1522.38 184.397 1523.17 184.135C1523.97 183.864 1524.61 183.465 1525.08 182.936C1525.56 182.4 1525.82 181.757 1525.87 181.009C1525.9 180.328 1525.73 179.755 1525.36 179.29C1525 178.817 1524.47 178.412 1523.78 178.074C1523.1 177.729 1522.3 177.41 1521.38 177.119L1518.45 176.186C1516.32 175.512 1514.67 174.578 1513.48 173.384C1512.3 172.182 1511.77 170.645 1511.87 168.773C1511.96 167.233 1512.45 165.908 1513.35 164.798C1514.26 163.688 1515.45 162.855 1516.94 162.298C1518.42 161.733 1520.07 161.502 1521.9 161.605C1523.76 161.709 1525.37 162.124 1526.73 162.849C1528.09 163.567 1529.15 164.518 1529.88 165.703C1530.62 166.88 1530.96 168.205 1530.9 169.679L1526.34 169.422ZM1534.51 166.655L1534.73 162.686L1555.59 163.86L1555.37 167.83L1547.29 167.375L1546.04 189.546L1541.34 189.281L1542.59 167.11L1534.51 166.655ZM1567.05 190.729L1568.53 164.589L1573.26 164.856L1572.01 187.026L1583.53 187.675L1583.3 191.644L1567.05 190.729ZM1593.62 166.002L1592.15 192.143L1587.41 191.876L1588.88 165.736L1593.62 166.002ZM1612.55 174.277C1612.49 173.156 1612.04 172.26 1611.19 171.589C1610.35 170.918 1609.23 170.543 1607.82 170.464C1606.83 170.409 1605.98 170.51 1605.26 170.768C1604.53 171.026 1603.97 171.4 1603.57 171.889C1603.16 172.379 1602.94 172.951 1602.89 173.605C1602.86 174.15 1602.96 174.629 1603.18 175.043C1603.42 175.457 1603.74 175.817 1604.16 176.122C1604.58 176.419 1605.05 176.676 1605.56 176.893C1606.08 177.11 1606.6 177.297 1607.13 177.455L1609.55 178.206C1610.52 178.491 1611.46 178.855 1612.34 179.298C1613.24 179.741 1614.03 180.281 1614.72 180.917C1615.42 181.554 1615.96 182.306 1616.34 183.172C1616.72 184.038 1616.87 185.037 1616.81 186.169C1616.72 187.701 1616.26 189.027 1615.41 190.149C1614.56 191.262 1613.38 192.105 1611.86 192.677C1610.35 193.24 1608.55 193.463 1606.46 193.345C1604.42 193.231 1602.67 192.817 1601.21 192.103C1599.76 191.389 1598.64 190.404 1597.87 189.149C1597.1 187.893 1596.74 186.396 1596.77 184.656L1601.42 184.919C1601.44 185.833 1601.68 186.606 1602.14 187.238C1602.6 187.87 1603.22 188.357 1603.99 188.699C1604.77 189.042 1605.66 189.242 1606.65 189.297C1607.68 189.355 1608.59 189.253 1609.38 188.99C1610.18 188.719 1610.82 188.32 1611.29 187.792C1611.76 187.255 1612.03 186.612 1612.08 185.864C1612.11 185.183 1611.94 184.61 1611.57 184.146C1611.21 183.672 1610.68 183.267 1609.99 182.93C1609.31 182.584 1608.51 182.266 1607.58 181.975L1604.65 181.041C1602.53 180.367 1600.88 179.433 1599.69 178.239C1598.51 177.038 1597.97 175.501 1598.08 173.629C1598.17 172.088 1598.66 170.763 1599.56 169.653C1600.46 168.543 1601.66 167.71 1603.14 167.153C1604.63 166.588 1606.28 166.357 1608.11 166.46C1609.97 166.564 1611.57 166.979 1612.93 167.705C1614.3 168.422 1615.35 169.373 1616.09 170.558C1616.82 171.735 1617.16 173.06 1617.11 174.534L1612.55 174.277ZM1620.72 171.511L1620.94 167.541L1641.8 168.716L1641.57 172.685L1633.49 172.23L1632.25 194.401L1627.55 194.136L1628.8 171.966L1620.72 171.511ZM1650.55 169.209L1649.08 195.349L1644.35 195.083L1645.82 168.942L1650.55 169.209ZM1677.16 170.708L1675.69 196.848L1671.48 196.611L1660.16 178.111L1659.95 178.099L1658.94 195.905L1654.21 195.638L1655.68 169.498L1659.92 169.736L1671.22 188.248L1671.45 188.261L1672.45 170.442L1677.16 170.708ZM1699.36 180.332C1699.19 179.631 1698.93 178.997 1698.59 178.432C1698.25 177.858 1697.84 177.361 1697.34 176.94C1696.85 176.52 1696.28 176.193 1695.63 175.96C1694.98 175.719 1694.26 175.576 1693.48 175.532C1692.07 175.453 1690.8 175.735 1689.66 176.38C1688.53 177.024 1687.6 178.014 1686.9 179.348C1686.2 180.675 1685.8 182.316 1685.69 184.274C1685.57 186.248 1685.79 187.937 1686.33 189.342C1686.88 190.747 1687.68 191.838 1688.75 192.615C1689.82 193.384 1691.08 193.809 1692.54 193.892C1693.87 193.967 1695.03 193.776 1696.03 193.32C1697.04 192.865 1697.83 192.184 1698.42 191.277C1699 190.363 1699.32 189.271 1699.39 188.003L1700.46 188.23L1693.36 187.83L1693.57 184.129L1704.17 184.726L1704 187.866C1703.87 190.104 1703.29 192.013 1702.24 193.593C1701.2 195.173 1699.81 196.359 1698.1 197.15C1696.38 197.932 1694.44 198.262 1692.28 198.141C1689.87 198.005 1687.79 197.346 1686.03 196.162C1684.28 194.971 1682.95 193.347 1682.04 191.29C1681.14 189.225 1680.77 186.813 1680.92 184.056C1681.04 181.946 1681.44 180.078 1682.13 178.452C1682.83 176.827 1683.75 175.466 1684.9 174.37C1686.04 173.265 1687.36 172.451 1688.85 171.929C1690.34 171.399 1691.94 171.181 1693.65 171.278C1695.1 171.359 1696.43 171.648 1697.66 172.144C1698.89 172.631 1699.97 173.289 1700.89 174.118C1701.83 174.948 1702.58 175.912 1703.15 177.011C1703.72 178.11 1704.07 179.308 1704.19 180.604L1699.36 180.332ZM1723.11 173.295L1721.63 199.436L1716.9 199.169L1718.37 173.028L1723.11 173.295ZM1749.72 174.794L1748.24 200.934L1744.03 200.697L1732.72 182.198L1732.5 182.185L1731.5 199.991L1726.76 199.724L1728.23 173.584L1732.47 173.823L1743.77 192.334L1744 192.347L1745.01 174.529L1749.72 174.794ZM1762.42 179.491L1762.64 175.522L1783.5 176.697L1783.27 180.666L1775.2 180.211L1773.95 202.382L1769.25 202.117L1770.5 179.946L1762.42 179.491ZM1786.05 203.063L1787.52 176.923L1792.25 177.19L1791.63 188.256L1803.74 188.938L1804.37 177.872L1809.12 178.139L1807.64 204.28L1802.9 204.012L1803.52 192.908L1791.41 192.226L1790.78 203.33L1786.05 203.063ZM1812.79 204.57L1814.27 178.429L1831.27 179.387L1831.04 183.357L1818.78 182.666L1818.38 189.762L1829.76 190.404L1829.54 194.373L1818.15 193.732L1817.75 200.867L1830.12 201.564L1829.9 205.533L1812.79 204.57ZM1849.04 206.611L1843.14 180.056L1848.23 180.342L1851.86 199.817L1852.1 199.831L1858.21 180.905L1862.85 181.165L1866.8 200.672L1867.03 200.685L1872.83 181.728L1877.92 182.014L1869.07 207.739L1864.4 207.476L1860.2 188.84L1859.99 188.828L1853.71 206.875L1849.04 206.611ZM1902.42 196.506C1902.26 199.323 1901.6 201.705 1900.43 203.654C1899.27 205.595 1897.75 207.046 1895.88 208.007C1894.02 208.97 1891.94 209.386 1889.65 209.257C1887.36 209.128 1885.34 208.481 1883.59 207.315C1881.85 206.141 1880.5 204.525 1879.56 202.466C1878.63 200.399 1878.24 197.961 1878.4 195.153C1878.56 192.337 1879.22 189.958 1880.38 188.017C1881.54 186.068 1883.06 184.613 1884.92 183.651C1886.8 182.689 1888.88 182.273 1891.17 182.402C1893.45 182.531 1895.47 183.178 1897.22 184.343C1898.97 185.509 1900.31 187.125 1901.24 189.193C1902.19 191.252 1902.58 193.69 1902.42 196.506ZM1897.66 196.238C1897.77 194.255 1897.55 192.566 1897.01 191.169C1896.47 189.765 1895.68 188.683 1894.63 187.924C1893.58 187.156 1892.35 186.732 1890.93 186.652C1889.51 186.572 1888.23 186.855 1887.1 187.5C1885.97 188.136 1885.06 189.122 1884.36 190.457C1883.67 191.784 1883.27 193.439 1883.16 195.421C1883.05 197.404 1883.26 199.097 1883.8 200.502C1884.34 201.898 1885.14 202.98 1886.19 203.748C1887.24 204.507 1888.47 204.927 1889.89 205.007C1891.31 205.087 1892.59 204.809 1893.72 204.172C1894.85 203.527 1895.76 202.541 1896.44 201.214C1897.14 199.879 1897.55 198.221 1897.66 196.238ZM1906.16 209.828L1907.63 183.688L1912.37 183.955L1911.12 206.126L1922.63 206.774L1922.41 210.744L1906.16 209.828Z" fill="white"/>
<path d="M153.684 97.1227L152.53 97.383L153.681 97.7978C159.119 99.7565 163.166 104.293 164.415 109.83L164.763 111.37L165.281 109.878C167.144 104.517 171.675 100.464 177.298 99.1279L178.489 98.845L177.371 98.4568C171.908 96.5593 167.806 92.066 166.493 86.5411L166.225 85.4107L165.831 86.5038C163.905 91.8463 159.325 95.8505 153.684 97.1227Z" fill="white"/>
<path d="M745.745 130.466L744.591 130.727L745.743 131.142C751.18 133.1 755.227 137.637 756.477 143.173L756.824 144.713L757.342 143.222C759.205 137.861 763.736 133.807 769.359 132.472L770.55 132.189L769.432 131.801C763.97 129.903 759.868 125.41 758.555 119.885L758.286 118.754L757.892 119.848C755.967 125.19 751.386 129.194 745.745 130.466Z" fill="white"/>
<path d="M1340.8 163.982L1339.65 164.242L1340.8 164.657C1346.24 166.616 1350.28 171.153 1351.53 176.689L1351.88 178.229L1352.4 176.738C1354.26 171.377 1358.79 167.323 1364.42 165.987L1365.61 165.704L1364.49 165.316C1359.03 163.419 1354.93 158.925 1353.61 153.401L1353.34 152.27L1352.95 153.363C1351.02 158.706 1346.44 162.71 1340.8 163.982Z" fill="white"/>
<rect x="-34.938" y="121" width="1493" height="120" transform="rotate(-3.54079 -34.938 121)" fill="#759CFF"/>
<path d="M-401.384 194.595L-401.63 190.627L-380.78 189.337L-380.535 193.305L-388.612 193.805L-387.24 215.968L-391.936 216.259L-393.307 194.095L-401.384 194.595ZM-375.144 215.22L-376.761 189.088L-372.027 188.795L-371.343 199.858L-359.234 199.109L-359.918 188.046L-355.172 187.752L-353.555 213.884L-358.301 214.178L-358.988 203.077L-371.097 203.826L-370.41 214.927L-375.144 215.22ZM-348.406 213.566L-350.023 187.434L-333.027 186.382L-332.782 190.35L-345.044 191.109L-344.605 198.203L-333.223 197.499L-332.978 201.467L-344.359 202.172L-343.918 209.304L-331.554 208.539L-331.308 212.508L-348.406 213.566ZM-317.668 211.664L-319.285 185.532L-309.282 184.913C-307.393 184.796 -305.805 184.996 -304.518 185.515C-303.223 186.024 -302.233 186.769 -301.549 187.752C-300.856 188.733 -300.47 189.871 -300.39 191.164C-300.324 192.227 -300.472 193.15 -300.833 193.932C-301.195 194.706 -301.706 195.348 -302.367 195.859C-303.027 196.369 -303.776 196.753 -304.614 197.01L-304.598 197.265C-303.667 197.259 -302.761 197.489 -301.878 197.955C-300.987 198.412 -300.241 199.092 -299.639 199.994C-299.036 200.896 -298.694 202.01 -298.612 203.337C-298.528 204.69 -298.781 205.926 -299.369 207.047C-299.957 208.16 -300.892 209.067 -302.172 209.77C-303.452 210.472 -305.091 210.885 -307.09 211.009L-317.668 211.664ZM-313.179 207.415L-308.088 207.1C-306.37 206.994 -305.152 206.59 -304.436 205.888C-303.711 205.177 -303.381 204.303 -303.445 203.265C-303.493 202.491 -303.728 201.805 -304.149 201.208C-304.571 200.602 -305.146 200.142 -305.874 199.829C-306.602 199.507 -307.456 199.376 -308.434 199.436L-313.653 199.759L-313.179 207.415ZM-313.864 196.352L-309.181 196.063C-308.364 196.012 -307.638 195.818 -307.001 195.48C-306.365 195.133 -305.877 194.671 -305.537 194.095C-305.189 193.51 -305.038 192.835 -305.086 192.069C-305.148 191.057 -305.557 190.245 -306.312 189.635C-307.059 189.023 -308.13 188.761 -309.525 188.847L-314.31 189.143L-313.864 196.352ZM-294.053 210.202L-295.67 184.07L-278.674 183.019L-278.429 186.987L-290.691 187.746L-290.252 194.84L-278.87 194.136L-278.625 198.104L-290.006 198.808L-289.565 205.941L-277.201 205.176L-276.955 209.144L-294.053 210.202ZM-259.199 189.025C-259.387 187.918 -259.942 187.081 -260.865 186.515C-261.78 185.948 -262.939 185.708 -264.343 185.795C-265.329 185.856 -266.167 186.058 -266.854 186.399C-267.542 186.74 -268.057 187.178 -268.4 187.711C-268.742 188.245 -268.898 188.84 -268.866 189.495C-268.832 190.039 -268.679 190.504 -268.408 190.888C-268.128 191.272 -267.763 191.591 -267.311 191.845C-266.861 192.091 -266.366 192.291 -265.827 192.445C-265.288 192.6 -264.746 192.724 -264.203 192.819L-261.715 193.279C-260.714 193.448 -259.746 193.7 -258.812 194.035C-257.869 194.369 -257.018 194.812 -256.258 195.363C-255.489 195.913 -254.866 196.596 -254.389 197.412C-253.911 198.227 -253.638 199.201 -253.568 200.332C-253.473 201.863 -253.781 203.236 -254.491 204.45C-255.202 205.655 -256.278 206.631 -257.717 207.378C-259.149 208.115 -260.911 208.549 -263.004 208.678C-265.037 208.804 -266.821 208.598 -268.357 208.062C-269.885 207.524 -271.107 206.678 -272.024 205.522C-272.932 204.365 -273.474 202.922 -273.65 201.191L-268.992 200.902C-268.868 201.808 -268.54 202.548 -268.01 203.122C-267.479 203.695 -266.809 204.106 -265.999 204.355C-265.181 204.603 -264.279 204.697 -263.292 204.636C-262.263 204.572 -261.371 204.363 -260.616 204.009C-259.852 203.646 -259.267 203.174 -258.859 202.594C-258.451 202.005 -258.266 201.336 -258.304 200.587C-258.355 199.907 -258.589 199.358 -259.008 198.94C-259.427 198.513 -259.999 198.173 -260.723 197.919C-261.44 197.656 -262.273 197.434 -263.224 197.254L-266.244 196.672C-268.43 196.252 -270.184 195.52 -271.504 194.474C-272.815 193.42 -273.529 191.957 -273.645 190.085C-273.74 188.546 -273.407 187.172 -272.645 185.963C-271.874 184.754 -270.786 183.786 -269.379 183.058C-267.973 182.323 -266.356 181.898 -264.527 181.785C-262.672 181.67 -261.028 181.893 -259.593 182.453C-258.15 183.004 -256.993 183.825 -256.123 184.915C-255.253 185.997 -254.76 187.273 -254.644 188.743L-259.199 189.025ZM-251.413 185.315L-251.659 181.347L-230.81 180.057L-230.564 184.025L-238.641 184.525L-237.269 206.689L-241.965 206.979L-243.336 184.816L-251.413 185.315ZM-216.261 205.389L-217.878 179.257L-213.144 178.964L-211.772 201.128L-200.263 200.415L-200.018 204.384L-216.261 205.389ZM-192.792 177.705L-191.175 203.837L-195.909 204.129L-197.526 177.998L-192.792 177.705ZM-173.02 183.692C-173.208 182.585 -173.763 181.749 -174.686 181.183C-175.601 180.616 -176.76 180.376 -178.164 180.463C-179.15 180.524 -179.988 180.725 -180.675 181.066C-181.363 181.408 -181.878 181.845 -182.221 182.379C-182.563 182.912 -182.719 183.507 -182.687 184.163C-182.653 184.707 -182.501 185.171 -182.229 185.556C-181.949 185.94 -181.584 186.259 -181.132 186.513C-180.682 186.758 -180.187 186.958 -179.648 187.113C-179.109 187.267 -178.568 187.392 -178.024 187.486L-175.536 187.947C-174.535 188.115 -173.567 188.367 -172.633 188.702C-171.69 189.037 -170.839 189.479 -170.079 190.03C-169.31 190.58 -168.687 191.263 -168.21 192.079C-167.733 192.895 -167.459 193.868 -167.389 195C-167.294 196.531 -167.602 197.903 -168.312 199.117C-169.023 200.323 -170.099 201.298 -171.538 202.045C-172.97 202.783 -174.732 203.216 -176.825 203.346C-178.858 203.471 -180.642 203.266 -182.178 202.729C-183.706 202.192 -184.928 201.345 -185.845 200.189C-186.753 199.033 -187.295 197.589 -187.471 195.858L-182.813 195.57C-182.689 196.476 -182.362 197.216 -181.831 197.789C-181.3 198.363 -180.63 198.774 -179.82 199.022C-179.002 199.271 -178.1 199.364 -177.113 199.303C-176.084 199.239 -175.192 199.031 -174.437 198.676C-173.673 198.313 -173.088 197.842 -172.68 197.261C-172.272 196.672 -172.087 196.004 -172.125 195.254C-172.176 194.574 -172.41 194.025 -172.829 193.607C-173.248 193.181 -173.82 192.84 -174.544 192.586C-175.261 192.323 -176.094 192.102 -177.045 191.921L-180.065 191.34C-182.252 190.92 -184.005 190.187 -185.325 189.142C-186.637 188.087 -187.35 186.624 -187.466 184.753C-187.562 183.213 -187.228 181.839 -186.466 180.631C-185.696 179.422 -184.607 178.453 -183.2 177.726C-181.794 176.99 -180.177 176.565 -178.348 176.452C-176.493 176.338 -174.849 176.56 -173.414 177.12C-171.971 177.672 -170.814 178.492 -169.944 179.583C-169.074 180.665 -168.581 181.941 -168.465 183.411L-173.02 183.692ZM-165.234 179.983L-165.48 176.015L-144.631 174.725L-144.385 178.693L-152.462 179.193L-151.091 201.356L-155.786 201.647L-157.157 179.483L-165.234 179.983ZM-135.877 174.183L-134.26 200.315L-138.994 200.608L-140.611 174.476L-135.877 174.183ZM-109.277 172.537L-107.66 198.669L-111.87 198.929L-125.285 181.892L-125.502 181.905L-124.4 199.705L-129.134 199.998L-130.751 173.866L-126.515 173.604L-113.112 190.655L-112.883 190.641L-113.985 172.828L-109.277 172.537ZM-86.0959 179.479C-86.3512 178.804 -86.6829 178.205 -87.0908 177.684C-87.4908 177.153 -87.9624 176.709 -88.5055 176.35C-89.0401 175.99 -89.6452 175.733 -90.3208 175.578C-90.9969 175.415 -91.7263 175.358 -92.5089 175.406C-93.9125 175.493 -95.1411 175.923 -96.1947 176.697C-97.2483 177.471 -98.0475 178.562 -98.5923 179.971C-99.129 181.37 -99.3369 183.048 -99.2158 185.005C-99.0937 186.978 -98.6798 188.631 -97.9741 189.962C-97.2684 191.293 -96.3405 192.281 -95.1904 192.928C-94.0409 193.565 -92.7346 193.839 -91.2715 193.748C-89.9445 193.666 -88.8119 193.34 -87.8737 192.769C-86.9271 192.198 -86.219 191.429 -85.7495 190.461C-85.2805 189.484 -85.0852 188.362 -85.1636 187.094L-84.0816 187.194L-91.176 187.633L-91.4049 183.932L-80.8016 183.276L-80.6074 186.415C-80.469 188.652 -80.8256 190.617 -81.6772 192.309C-82.5289 194.001 -83.761 195.341 -85.3735 196.329C-86.9866 197.309 -88.8734 197.865 -91.0341 197.999C-93.4414 198.148 -95.5887 197.738 -97.4759 196.771C-99.3551 195.794 -100.867 194.338 -102.011 192.402C-103.148 190.457 -103.801 188.106 -103.972 185.35C-104.103 183.241 -103.921 181.338 -103.429 179.643C-102.927 177.946 -102.172 176.486 -101.164 175.263C-100.155 174.03 -98.9426 173.067 -97.5254 172.373C-96.1087 171.671 -94.5454 171.267 -92.8356 171.161C-91.3895 171.072 -90.0281 171.201 -88.7513 171.549C-87.4751 171.888 -86.3281 172.415 -85.3105 173.129C-84.2843 173.843 -83.4236 174.712 -82.7284 175.736C-82.0331 176.76 -81.5479 177.909 -81.2728 179.181L-86.0959 179.479ZM-63.3482 169.695L-61.7312 195.827L-66.4651 196.12L-68.082 169.988L-63.3482 169.695ZM-36.7474 168.049L-35.1305 194.181L-39.3412 194.441L-52.7557 177.404L-52.9726 177.417L-51.8712 195.217L-56.605 195.51L-58.222 169.378L-53.9858 169.116L-40.5832 186.167L-40.3536 186.153L-41.4558 168.34L-36.7474 168.049ZM-23.5795 171.218L-23.8251 167.249L-2.97572 165.959L-2.73018 169.928L-10.8071 170.427L-9.43564 192.591L-14.1312 192.882L-15.5026 170.718L-23.5795 171.218ZM2.66054 191.843L1.04358 165.711L5.77742 165.418L6.46195 176.48L18.5709 175.731L17.8864 164.668L22.633 164.375L24.2499 190.507L19.5033 190.8L18.8164 179.699L6.70749 180.449L7.39439 191.55L2.66054 191.843ZM29.3985 190.188L27.7815 164.056L44.7774 163.005L45.0229 166.973L32.7609 167.732L33.1999 174.826L44.5815 174.122L44.8271 178.09L33.4454 178.794L33.8868 185.927L46.2509 185.162L46.4964 189.13L29.3985 190.188ZM65.636 187.946L56.6439 162.27L61.735 161.955L67.6316 180.867L67.874 180.852L71.7131 161.338L76.3449 161.051L82.574 179.955L82.8037 179.941L86.3229 160.434L91.4141 160.119L85.6559 186.707L80.9859 186.996L74.6199 168.984L74.4157 168.997L70.306 187.657L65.636 187.946ZM117.452 171.624C117.626 174.439 117.248 176.883 116.317 178.956C115.395 181.02 114.06 182.64 112.314 183.815C110.577 184.99 108.564 185.648 106.275 185.79C103.987 185.931 101.904 185.527 100.027 184.575C98.1568 183.615 96.6327 182.168 95.4542 180.234C94.2837 178.292 93.6116 175.917 93.4379 173.11C93.2637 170.294 93.6379 167.854 94.5605 165.79C95.4911 163.718 96.8251 162.094 98.5627 160.919C100.309 159.743 102.326 159.085 104.614 158.943C106.902 158.802 108.981 159.207 110.85 160.159C112.728 161.11 114.252 162.557 115.423 164.5C116.601 166.433 117.277 168.808 117.452 171.624ZM112.692 171.918C112.57 169.936 112.156 168.284 111.451 166.961C110.753 165.63 109.839 164.649 108.707 164.018C107.574 163.38 106.298 163.104 104.877 163.192C103.457 163.28 102.224 163.711 101.179 164.484C100.133 165.249 99.3419 166.336 98.8057 167.744C98.2774 169.143 98.0746 170.833 98.1973 172.815C98.3199 174.797 98.7298 176.454 99.427 177.785C100.132 179.108 101.051 180.089 102.184 180.727C103.316 181.358 104.592 181.629 106.012 181.541C107.433 181.453 108.666 181.026 109.712 180.262C110.757 179.488 111.544 178.402 112.072 177.003C112.608 175.595 112.815 173.9 112.692 171.918ZM122.736 184.413L121.119 158.281L125.852 157.988L127.224 180.151L138.733 179.439L138.979 183.408L122.736 184.413Z" fill="white"/>
<path d="M193.478 157.791L193.232 153.822L214.082 152.532L214.327 156.5L206.25 157L207.622 179.164L202.926 179.454L201.555 157.291L193.478 157.791ZM219.718 178.415L218.101 152.283L222.835 151.991L223.519 163.053L235.628 162.304L234.944 151.241L239.69 150.948L241.307 177.079L236.561 177.373L235.874 166.272L223.765 167.021L224.452 178.122L219.718 178.415ZM246.456 176.761L244.839 150.629L261.835 149.577L262.08 153.546L249.818 154.304L250.257 161.399L261.639 160.694L261.885 164.663L250.503 165.367L250.944 172.5L263.308 171.735L263.554 175.703L246.456 176.761ZM277.194 174.859L275.577 148.727L285.581 148.108C287.469 147.991 289.057 148.192 290.344 148.71C291.64 149.219 292.629 149.965 293.313 150.947C294.006 151.929 294.392 153.066 294.472 154.359C294.538 155.422 294.39 156.345 294.029 157.128C293.667 157.901 293.156 158.544 292.496 159.054C291.836 159.565 291.087 159.948 290.249 160.205L290.264 160.46C291.195 160.454 292.101 160.684 292.984 161.15C293.875 161.607 294.621 162.287 295.224 163.189C295.826 164.091 296.168 165.206 296.25 166.533C296.334 167.885 296.082 169.122 295.494 170.243C294.905 171.355 293.971 172.262 292.691 172.965C291.41 173.668 289.771 174.081 287.772 174.204L277.194 174.859ZM281.683 170.61L286.774 170.295C288.493 170.189 289.71 169.785 290.427 169.083C291.151 168.372 291.481 167.498 291.417 166.46C291.369 165.686 291.135 165 290.713 164.403C290.292 163.797 289.717 163.338 288.989 163.024C288.26 162.702 287.406 162.571 286.428 162.632L281.209 162.955L281.683 170.61ZM280.999 159.548L285.681 159.258C286.498 159.208 287.225 159.013 287.861 158.675C288.497 158.328 288.985 157.867 289.325 157.291C289.673 156.705 289.824 156.03 289.776 155.265C289.714 154.252 289.305 153.441 288.55 152.83C287.803 152.219 286.733 151.956 285.337 152.043L280.553 152.339L280.999 159.548ZM300.809 173.398L299.192 147.266L316.188 146.214L316.434 150.182L304.172 150.941L304.61 158.036L315.992 157.331L316.238 161.3L304.856 162.004L305.297 169.136L317.662 168.371L317.907 172.34L300.809 173.398ZM335.664 152.22C335.476 151.113 334.92 150.277 333.997 149.71C333.082 149.144 331.923 148.904 330.52 148.991C329.533 149.052 328.696 149.253 328.008 149.594C327.32 149.936 326.805 150.373 326.463 150.907C326.12 151.44 325.965 152.035 325.997 152.69C326.03 153.235 326.183 153.699 326.454 154.084C326.734 154.468 327.1 154.787 327.551 155.041C328.002 155.286 328.496 155.486 329.035 155.64C329.574 155.795 330.116 155.919 330.66 156.014L333.147 156.475C334.148 156.643 335.116 156.895 336.05 157.23C336.993 157.565 337.845 158.007 338.605 158.558C339.373 159.108 339.996 159.791 340.473 160.607C340.951 161.423 341.225 162.396 341.295 163.528C341.389 165.059 341.081 166.431 340.371 167.645C339.66 168.85 338.585 169.826 337.145 170.573C335.713 171.31 333.951 171.744 331.859 171.873C329.826 171.999 328.041 171.794 326.505 171.257C324.977 170.72 323.755 169.873 322.838 168.717C321.93 167.561 321.388 166.117 321.213 164.386L325.87 164.098C325.994 165.004 326.322 165.743 326.853 166.317C327.383 166.89 328.053 167.301 328.863 167.55C329.681 167.798 330.583 167.892 331.57 167.831C332.599 167.767 333.492 167.558 334.247 167.204C335.01 166.841 335.596 166.369 336.004 165.789C336.411 165.2 336.596 164.531 336.558 163.782C336.508 163.102 336.273 162.553 335.854 162.135C335.435 161.708 334.863 161.368 334.139 161.114C333.422 160.851 332.589 160.629 331.639 160.449L328.618 159.867C326.432 159.448 324.679 158.715 323.359 157.67C322.047 156.615 321.333 155.152 321.217 153.281C321.122 151.741 321.455 150.367 322.217 149.158C322.988 147.949 324.076 146.981 325.483 146.254C326.889 145.518 328.507 145.093 330.336 144.98C332.19 144.865 333.835 145.088 335.27 145.648C336.713 146.199 337.869 147.02 338.74 148.111C339.609 149.192 340.102 150.468 340.219 151.938L335.664 152.22ZM343.449 148.511L343.203 144.543L364.053 143.252L364.298 147.221L356.221 147.72L357.593 169.884L352.897 170.175L351.526 148.011L343.449 148.511ZM378.602 168.584L376.985 142.452L381.719 142.159L383.09 164.323L394.599 163.611L394.845 167.579L378.602 168.584ZM402.07 140.9L403.687 167.032L398.953 167.325L397.336 141.193L402.07 140.9ZM421.843 146.888C421.654 145.781 421.099 144.944 420.176 144.378C419.261 143.811 418.102 143.571 416.699 143.658C415.712 143.719 414.875 143.92 414.187 144.262C413.499 144.603 412.984 145.041 412.642 145.574C412.299 146.108 412.144 146.702 412.176 147.358C412.209 147.902 412.362 148.367 412.633 148.751C412.913 149.135 413.279 149.454 413.73 149.708C414.181 149.953 414.675 150.153 415.214 150.308C415.753 150.462 416.295 150.587 416.839 150.681L419.326 151.142C420.327 151.311 421.295 151.563 422.229 151.898C423.172 152.232 424.024 152.675 424.784 153.225C425.552 153.776 426.175 154.459 426.652 155.274C427.13 156.09 427.403 157.064 427.473 158.195C427.568 159.726 427.26 161.099 426.55 162.313C425.839 163.518 424.764 164.494 423.324 165.24C421.892 165.978 420.13 166.411 418.038 166.541C416.005 166.667 414.22 166.461 412.684 165.924C411.156 165.387 409.934 164.54 409.017 163.385C408.109 162.228 407.567 160.785 407.392 159.053L412.049 158.765C412.173 159.671 412.501 160.411 413.032 160.984C413.562 161.558 414.232 161.969 415.042 162.218C415.86 162.466 416.762 162.56 417.749 162.498C418.778 162.435 419.671 162.226 420.426 161.872C421.189 161.509 421.774 161.037 422.183 160.457C422.59 159.868 422.775 159.199 422.737 158.45C422.687 157.77 422.452 157.221 422.033 156.803C421.614 156.376 421.042 156.036 420.318 155.782C419.601 155.518 418.768 155.297 417.817 155.117L414.797 154.535C412.611 154.115 410.858 153.383 409.538 152.337C408.226 151.283 407.512 149.82 407.396 147.948C407.301 146.408 407.634 145.034 408.396 143.826C409.167 142.617 410.255 141.649 411.662 140.921C413.068 140.185 414.686 139.761 416.514 139.648C418.369 139.533 420.014 139.756 421.449 140.316C422.892 140.867 424.048 141.688 424.918 142.778C425.788 143.86 426.281 145.136 426.398 146.606L421.843 146.888ZM429.628 143.178L429.382 139.21L450.232 137.92L450.477 141.888L442.4 142.388L443.772 164.552L439.076 164.842L437.705 142.678L429.628 143.178ZM458.985 137.378L460.602 163.51L455.868 163.803L454.251 137.671L458.985 137.378ZM485.586 135.732L487.203 161.864L482.992 162.125L469.577 145.087L469.36 145.1L470.462 162.9L465.728 163.193L464.111 137.061L468.347 136.799L481.75 153.85L481.979 153.836L480.877 136.024L485.586 135.732ZM508.766 142.675C508.511 141.999 508.179 141.4 507.771 140.879C507.371 140.349 506.9 139.904 506.357 139.545C505.822 139.185 505.217 138.928 504.542 138.773C503.865 138.61 503.136 138.553 502.353 138.601C500.95 138.688 499.721 139.119 498.668 139.893C497.614 140.666 496.815 141.758 496.27 143.166C495.733 144.566 495.525 146.244 495.646 148.2C495.769 150.174 496.183 151.826 496.888 153.157C497.594 154.488 498.522 155.477 499.672 156.123C500.821 156.76 502.128 157.034 503.591 156.943C504.918 156.861 506.05 156.535 506.989 155.965C507.935 155.394 508.643 154.624 509.113 153.656C509.582 152.679 509.777 151.557 509.699 150.289L510.781 150.389L503.686 150.828L503.457 147.128L514.061 146.471L514.255 149.61C514.393 151.848 514.037 153.812 513.185 155.504C512.333 157.197 511.101 158.537 509.489 159.524C507.876 160.504 505.989 161.06 503.828 161.194C501.421 161.343 499.274 160.934 497.386 159.966C495.507 158.989 493.995 157.533 492.851 155.597C491.714 153.652 491.061 151.302 490.89 148.546C490.76 146.436 490.941 144.533 491.434 142.838C491.935 141.142 492.69 139.682 493.699 138.458C494.707 137.226 495.92 136.263 497.337 135.569C498.754 134.866 500.317 134.462 502.027 134.356C503.473 134.267 504.834 134.396 506.111 134.744C507.387 135.083 508.534 135.61 509.552 136.324C510.578 137.038 511.439 137.907 512.134 138.931C512.829 139.956 513.314 141.104 513.59 142.376L508.766 142.675ZM531.514 132.89L533.131 159.022L528.397 159.315L526.78 133.183L531.514 132.89ZM558.115 131.244L559.732 157.376L555.521 157.637L542.107 140.599L541.89 140.612L542.991 158.412L538.257 158.705L536.64 132.573L540.877 132.311L554.279 149.362L554.509 149.348L553.407 131.536L558.115 131.244ZM571.283 134.413L571.037 130.445L591.887 129.155L592.132 133.123L584.055 133.623L585.427 155.786L580.731 156.077L579.36 133.913L571.283 134.413ZM597.523 155.038L595.906 128.906L600.64 128.613L601.324 139.676L613.433 138.926L612.749 127.864L617.495 127.57L619.112 153.702L614.366 153.996L613.679 142.895L601.57 143.644L602.257 154.745L597.523 155.038ZM624.261 153.383L622.644 127.252L639.64 126.2L639.885 130.168L627.623 130.927L628.062 138.021L639.444 137.317L639.689 141.285L628.308 141.99L628.749 149.122L641.113 148.357L641.359 152.325L624.261 153.383ZM660.498 151.141L651.506 125.466L656.597 125.151L662.494 144.063L662.736 144.048L666.575 124.533L671.207 124.247L677.436 143.151L677.666 143.137L681.185 123.629L686.276 123.314L680.518 149.902L675.848 150.191L669.482 132.179L669.278 132.192L665.168 150.852L660.498 151.141ZM712.314 134.819C712.488 137.635 712.11 140.079 711.179 142.152C710.257 144.215 708.922 145.835 707.176 147.01C705.439 148.185 703.426 148.843 701.138 148.985C698.849 149.127 696.766 148.722 694.889 147.771C693.019 146.81 691.495 145.363 690.317 143.43C689.146 141.487 688.474 139.112 688.3 136.305C688.126 133.489 688.5 131.049 689.423 128.986C690.353 126.913 691.687 125.289 693.425 124.114C695.171 122.939 697.188 122.28 699.476 122.139C701.765 121.997 703.843 122.402 705.713 123.354C707.59 124.305 709.114 125.752 710.285 127.695C711.463 129.629 712.14 132.003 712.314 134.819ZM707.555 135.113C707.432 133.131 707.018 131.479 706.313 130.157C705.616 128.825 704.701 127.844 703.569 127.214C702.437 126.575 701.16 126.3 699.739 126.388C698.319 126.476 697.086 126.906 696.041 127.68C694.995 128.445 694.204 129.531 693.668 130.939C693.14 132.338 692.937 134.028 693.06 136.01C693.182 137.992 693.592 139.649 694.289 140.981C694.995 142.303 695.913 143.284 697.046 143.923C698.178 144.553 699.454 144.824 700.875 144.736C702.295 144.648 703.528 144.222 704.574 143.457C705.619 142.683 706.406 141.597 706.934 140.198C707.47 138.79 707.677 137.095 707.555 135.113ZM717.598 147.608L715.981 121.476L720.715 121.183L722.086 143.347L733.595 142.635L733.841 146.603L717.598 147.608Z" fill="white"/>
<path d="M788.34 120.986L788.095 117.018L808.944 115.728L809.19 119.696L801.113 120.196L802.484 142.359L797.789 142.65L796.417 120.486L788.34 120.986ZM814.58 141.611L812.963 115.479L817.697 115.186L818.382 126.249L830.491 125.499L829.806 114.437L834.553 114.143L836.17 140.275L831.423 140.568L830.736 129.468L818.627 130.217L819.314 141.318L814.58 141.611ZM841.318 139.956L839.701 113.824L856.697 112.773L856.943 116.741L844.681 117.5L845.12 124.594L856.501 123.89L856.747 127.858L845.365 128.562L845.807 135.695L858.171 134.93L858.416 138.898L841.318 139.956ZM872.056 138.054L870.439 111.922L880.443 111.303C882.331 111.187 883.919 111.387 885.207 111.905C886.502 112.414 887.492 113.16 888.176 114.142C888.868 115.124 889.255 116.262 889.335 117.555C889.4 118.618 889.253 119.541 888.891 120.323C888.529 121.097 888.018 121.739 887.358 122.249C886.698 122.76 885.949 123.144 885.111 123.4L885.127 123.656C886.057 123.649 886.964 123.879 887.846 124.345C888.737 124.803 889.484 125.482 890.086 126.384C890.688 127.286 891.031 128.401 891.113 129.728C891.196 131.08 890.944 132.317 890.356 133.438C889.767 134.55 888.833 135.458 887.553 136.16C886.273 136.863 884.633 137.276 882.634 137.4L872.056 138.054ZM876.545 133.806L881.637 133.491C883.355 133.384 884.572 132.98 885.289 132.278C886.013 131.568 886.344 130.693 886.279 129.656C886.231 128.881 885.997 128.196 885.576 127.598C885.154 126.993 884.579 126.533 883.851 126.219C883.122 125.897 882.269 125.767 881.29 125.827L876.072 126.15L876.545 133.806ZM875.861 122.743L880.544 122.453C881.36 122.403 882.087 122.208 882.724 121.87C883.36 121.523 883.848 121.062 884.188 120.486C884.536 119.901 884.686 119.225 884.639 118.46C884.576 117.448 884.167 116.636 883.412 116.025C882.666 115.414 881.595 115.151 880.2 115.238L875.415 115.534L875.861 122.743ZM895.671 136.593L894.054 110.461L911.05 109.409L911.296 113.378L899.034 114.136L899.473 121.231L910.854 120.527L911.1 124.495L899.718 125.199L900.16 132.332L912.524 131.567L912.769 135.535L895.671 136.593ZM930.526 115.416C930.338 114.309 929.782 113.472 928.859 112.906C927.945 112.339 926.786 112.099 925.382 112.186C924.395 112.247 923.558 112.448 922.87 112.79C922.183 113.131 921.668 113.569 921.325 114.102C920.982 114.636 920.827 115.23 920.859 115.886C920.893 116.43 921.045 116.895 921.317 117.279C921.597 117.663 921.962 117.982 922.413 118.236C922.864 118.481 923.359 118.681 923.898 118.836C924.437 118.99 924.978 119.115 925.522 119.209L928.01 119.67C929.011 119.839 929.978 120.09 930.913 120.425C931.856 120.76 932.707 121.202 933.467 121.753C934.235 122.303 934.858 122.986 935.336 123.802C935.813 124.618 936.087 125.592 936.157 126.723C936.252 128.254 935.944 129.627 935.233 130.84C934.522 132.046 933.447 133.022 932.007 133.768C930.576 134.506 928.814 134.939 926.721 135.069C924.688 135.195 922.903 134.989 921.367 134.452C919.84 133.915 918.618 133.068 917.701 131.912C916.792 130.756 916.25 129.312 916.075 127.581L920.732 127.293C920.857 128.199 921.184 128.939 921.715 129.512C922.246 130.086 922.916 130.497 923.725 130.746C924.543 130.994 925.446 131.087 926.432 131.026C927.462 130.963 928.354 130.754 929.109 130.4C929.872 130.036 930.458 129.565 930.866 128.984C931.274 128.396 931.458 127.727 931.421 126.978C931.37 126.298 931.135 125.749 930.717 125.33C930.298 124.904 929.726 124.563 929.001 124.309C928.285 124.046 927.451 123.825 926.501 123.644L923.48 123.063C921.294 122.643 919.541 121.91 918.221 120.865C916.909 119.81 916.195 118.347 916.079 116.476C915.984 114.936 916.318 113.562 917.08 112.354C917.85 111.145 918.939 110.177 920.345 109.449C921.751 108.713 923.369 108.289 925.198 108.175C927.052 108.061 928.697 108.283 930.132 108.844C931.575 109.395 932.732 110.215 933.602 111.306C934.471 112.388 934.965 113.664 935.081 115.134L930.526 115.416ZM938.311 111.706L938.066 107.738L958.915 106.448L959.161 110.416L951.084 110.916L952.455 133.079L947.76 133.37L946.388 111.206L938.311 111.706ZM973.464 131.779L971.847 105.648L976.581 105.355L977.952 127.518L989.462 126.806L989.707 130.774L973.464 131.779ZM996.933 104.095L998.55 130.227L993.816 130.52L992.199 104.388L996.933 104.095ZM1016.7 110.083C1016.52 108.976 1015.96 108.139 1015.04 107.573C1014.12 107.006 1012.96 106.767 1011.56 106.853C1010.57 106.914 1009.74 107.116 1009.05 107.457C1008.36 107.799 1007.85 108.236 1007.5 108.77C1007.16 109.303 1007.01 109.898 1007.04 110.553C1007.07 111.098 1007.22 111.562 1007.5 111.947C1007.78 112.331 1008.14 112.65 1008.59 112.903C1009.04 113.149 1009.54 113.349 1010.08 113.503C1010.62 113.658 1011.16 113.782 1011.7 113.877L1014.19 114.337C1015.19 114.506 1016.16 114.758 1017.09 115.093C1018.03 115.427 1018.89 115.87 1019.65 116.421C1020.41 116.971 1021.04 117.654 1021.51 118.47C1021.99 119.285 1022.27 120.259 1022.34 121.39C1022.43 122.922 1022.12 124.294 1021.41 125.508C1020.7 126.713 1019.63 127.689 1018.19 128.436C1016.75 129.173 1014.99 129.607 1012.9 129.736C1010.87 129.862 1009.08 129.657 1007.55 129.12C1006.02 128.582 1004.8 127.736 1003.88 126.58C1002.97 125.424 1002.43 123.98 1002.25 122.249L1006.91 121.961C1007.04 122.867 1007.36 123.606 1007.89 124.18C1008.42 124.753 1009.09 125.164 1009.9 125.413C1010.72 125.661 1011.62 125.755 1012.61 125.694C1013.64 125.63 1014.53 125.421 1015.29 125.067C1016.05 124.704 1016.64 124.232 1017.04 123.652C1017.45 123.063 1017.64 122.394 1017.6 121.645C1017.55 120.965 1017.31 120.416 1016.9 119.998C1016.48 119.571 1015.9 119.231 1015.18 118.977C1014.46 118.714 1013.63 118.492 1012.68 118.312L1009.66 117.73C1007.47 117.31 1005.72 116.578 1004.4 115.532C1003.09 114.478 1002.37 113.015 1002.26 111.143C1002.16 109.604 1002.5 108.23 1003.26 107.021C1004.03 105.812 1005.12 104.844 1006.52 104.117C1007.93 103.381 1009.55 102.956 1011.38 102.843C1013.23 102.728 1014.88 102.951 1016.31 103.511C1017.75 104.062 1018.91 104.883 1019.78 105.973C1020.65 107.055 1021.14 108.331 1021.26 109.801L1016.7 110.083ZM1024.49 106.374L1024.24 102.405L1045.09 101.115L1045.34 105.083L1037.26 105.583L1038.63 127.747L1033.94 128.037L1032.57 105.874L1024.49 106.374ZM1053.85 100.574L1055.46 126.705L1050.73 126.998L1049.11 100.867L1053.85 100.574ZM1080.45 98.9276L1082.06 125.059L1077.85 125.32L1064.44 108.282L1064.22 108.296L1065.32 126.095L1060.59 126.388L1058.97 100.256L1063.21 99.9943L1076.61 117.046L1076.84 117.031L1075.74 99.2189L1080.45 98.9276ZM1103.63 105.87C1103.37 105.194 1103.04 104.596 1102.63 104.074C1102.23 103.544 1101.76 103.099 1101.22 102.74C1100.68 102.38 1100.08 102.123 1099.4 101.969C1098.73 101.806 1098 101.748 1097.22 101.797C1095.81 101.884 1094.58 102.314 1093.53 103.088C1092.48 103.862 1091.68 104.953 1091.13 106.361C1090.6 107.761 1090.39 109.439 1090.51 111.395C1090.63 113.369 1091.04 115.021 1091.75 116.352C1092.46 117.683 1093.38 118.672 1094.53 119.318C1095.68 119.956 1096.99 120.229 1098.45 120.139C1099.78 120.057 1100.91 119.73 1101.85 119.16C1102.8 118.589 1103.51 117.819 1103.98 116.851C1104.44 115.874 1104.64 114.752 1104.56 113.485L1105.64 113.584L1098.55 114.023L1098.32 110.323L1108.92 109.667L1109.12 112.806C1109.26 115.043 1108.9 117.008 1108.05 118.7C1107.2 120.392 1105.96 121.732 1104.35 122.72C1102.74 123.699 1100.85 124.256 1098.69 124.389C1096.28 124.538 1094.14 124.129 1092.25 123.161C1090.37 122.185 1088.86 120.728 1087.71 118.792C1086.58 116.848 1085.92 114.497 1085.75 111.741C1085.62 109.631 1085.8 107.729 1086.3 106.033C1086.8 104.337 1087.55 102.877 1088.56 101.653C1089.57 100.421 1090.78 99.458 1092.2 98.764C1093.62 98.0616 1095.18 97.6574 1096.89 97.5516C1098.34 97.4622 1099.7 97.5914 1100.97 97.9393C1102.25 98.2788 1103.4 98.8055 1104.41 99.5196C1105.44 100.233 1106.3 101.102 1107 102.127C1107.69 103.151 1108.18 104.299 1108.45 105.572L1103.63 105.87ZM1126.38 96.0857L1127.99 122.218L1123.26 122.51L1121.64 96.3786L1126.38 96.0857ZM1152.98 94.4397L1154.59 120.572L1150.38 120.832L1136.97 103.794L1136.75 103.808L1137.85 121.607L1133.12 121.9L1131.5 95.7685L1135.74 95.5064L1149.14 112.558L1149.37 112.544L1148.27 94.731L1152.98 94.4397ZM1166.15 97.6084L1165.9 93.6401L1186.75 92.35L1186.99 96.3183L1178.92 96.818L1180.29 118.982L1175.59 119.272L1174.22 97.1086L1166.15 97.6084ZM1192.39 118.233L1190.77 92.1013L1195.5 91.8084L1196.19 102.871L1208.3 102.122L1207.61 91.0591L1212.36 90.7654L1213.97 116.897L1209.23 117.191L1208.54 106.09L1196.43 106.839L1197.12 117.94L1192.39 118.233ZM1219.12 116.579L1217.51 90.4468L1234.5 89.3952L1234.75 93.3634L1222.49 94.1222L1222.92 101.217L1234.31 100.512L1234.55 104.481L1223.17 105.185L1223.61 112.317L1235.98 111.552L1236.22 115.521L1219.12 116.579ZM1255.36 114.336L1246.37 88.6609L1251.46 88.3459L1257.36 107.258L1257.6 107.243L1261.44 87.7285L1266.07 87.4419L1272.3 106.346L1272.53 106.332L1276.05 86.8244L1281.14 86.5094L1275.38 113.098L1270.71 113.387L1264.34 95.3746L1264.14 95.3873L1260.03 114.047L1255.36 114.336ZM1307.18 98.0142C1307.35 100.83 1306.97 103.274 1306.04 105.347C1305.12 107.411 1303.78 109.03 1302.04 110.206C1300.3 111.381 1298.29 112.039 1296 112.18C1293.71 112.322 1291.63 111.917 1289.75 110.966C1287.88 110.006 1286.36 108.559 1285.18 106.625C1284.01 104.682 1283.34 102.307 1283.16 99.5001C1282.99 96.6845 1283.36 94.2448 1284.29 92.181C1285.22 90.1083 1286.55 88.4844 1288.29 87.3095C1290.03 86.1341 1292.05 85.4756 1294.34 85.334C1296.63 85.1924 1298.71 85.5975 1300.57 86.5492C1302.45 87.5004 1303.98 88.9474 1305.15 90.8902C1306.33 92.8239 1307 95.1986 1307.18 98.0142ZM1302.42 98.3087C1302.29 96.3267 1301.88 94.6744 1301.18 93.3518C1300.48 92.0202 1299.56 91.0393 1298.43 90.4091C1297.3 89.7705 1296.02 89.4951 1294.6 89.583C1293.18 89.6709 1291.95 90.1015 1290.9 90.8749C1289.86 91.6398 1289.07 92.7263 1288.53 94.1342C1288 95.5332 1287.8 97.2236 1287.92 99.2056C1288.04 101.188 1288.45 102.844 1289.15 104.176C1289.86 105.499 1290.78 106.479 1291.91 107.118C1293.04 107.748 1294.32 108.019 1295.74 107.931C1297.16 107.844 1298.39 107.417 1299.44 106.652C1300.48 105.879 1301.27 104.793 1301.8 103.394C1302.33 101.986 1302.54 100.291 1302.42 98.3087ZM1312.46 110.803L1310.84 84.6714L1315.58 84.3785L1316.95 106.542L1328.46 105.83L1328.7 109.798L1312.46 110.803Z" fill="white"/>
<path d="M1383.2 84.1734L1382.96 80.2051L1403.81 78.915L1404.05 82.8833L1395.98 83.383L1397.35 105.547L1392.65 105.837L1391.28 83.6736L1383.2 84.1734ZM1409.44 104.798L1407.83 78.6663L1412.56 78.3734L1413.24 89.436L1425.35 88.6868L1424.67 77.6241L1429.42 77.3304L1431.03 103.462L1426.29 103.756L1425.6 92.655L1413.49 93.4043L1414.18 104.505L1409.44 104.798ZM1436.18 103.144L1434.56 77.0118L1451.56 75.9602L1451.81 79.9284L1439.54 80.6872L1439.98 87.7816L1451.36 87.0773L1451.61 91.0456L1440.23 91.7498L1440.67 98.8825L1453.03 98.1174L1453.28 102.086L1436.18 103.144ZM1466.92 101.242L1465.3 75.1099L1475.31 74.4909C1477.19 74.374 1478.78 74.5746 1480.07 75.0927C1481.36 75.6017 1482.35 76.3474 1483.04 77.3298C1483.73 78.3116 1484.12 79.449 1484.2 80.742C1484.26 81.8053 1484.11 82.7281 1483.75 83.5105C1483.39 84.2843 1482.88 84.9265 1482.22 85.437C1481.56 85.9474 1480.81 86.3311 1479.97 86.5879L1479.99 86.8431C1480.92 86.8367 1481.83 87.0667 1482.71 87.533C1483.6 87.9902 1484.35 88.6698 1484.95 89.5718C1485.55 90.4739 1485.89 91.5884 1485.97 92.9154C1486.06 94.2679 1485.81 95.5046 1485.22 96.6254C1484.63 97.7378 1483.7 98.6452 1482.42 99.3478C1481.14 100.05 1479.5 100.463 1477.5 100.587L1466.92 101.242ZM1471.41 96.9933L1476.5 96.6782C1478.22 96.5719 1479.43 96.1678 1480.15 95.466C1480.88 94.7551 1481.21 93.8808 1481.14 92.843C1481.09 92.0689 1480.86 91.3832 1480.44 90.7859C1480.02 90.1801 1479.44 89.7205 1478.71 89.4069C1477.98 89.0848 1477.13 88.954 1476.15 89.0145L1470.93 89.3375L1471.41 96.9933ZM1470.72 85.9306L1475.41 85.6409C1476.22 85.5903 1476.95 85.3959 1477.59 85.0577C1478.22 84.7109 1478.71 84.2495 1479.05 83.6734C1479.4 83.0883 1479.55 82.413 1479.5 81.6474C1479.44 80.6351 1479.03 79.8236 1478.27 79.2128C1477.53 78.6015 1476.46 78.339 1475.06 78.4253L1470.28 78.7214L1470.72 85.9306ZM1490.53 99.7805L1488.92 73.6486L1505.91 72.597L1506.16 76.5652L1493.9 77.324L1494.34 84.4184L1505.72 83.7141L1505.96 87.6824L1494.58 88.3866L1495.02 95.5193L1507.39 94.7542L1507.63 98.7225L1490.53 99.7805ZM1525.39 78.6031C1525.2 77.4961 1524.64 76.6595 1523.72 76.0933C1522.81 75.5265 1521.65 75.2866 1520.24 75.3734C1519.26 75.4345 1518.42 75.6357 1517.73 75.9771C1517.05 76.3185 1516.53 76.756 1516.19 77.2895C1515.84 77.8231 1515.69 78.4176 1515.72 79.0732C1515.75 79.6176 1515.91 80.082 1516.18 80.4666C1516.46 80.8506 1516.82 81.1695 1517.28 81.4234C1517.73 81.6688 1518.22 81.8687 1518.76 82.0232C1519.3 82.1777 1519.84 82.3022 1520.38 82.3966L1522.87 82.8575C1523.87 83.0261 1524.84 83.2779 1525.78 83.6129C1526.72 83.9473 1527.57 84.3899 1528.33 84.9406C1529.1 85.4908 1529.72 86.1738 1530.2 86.9897C1530.68 87.8055 1530.95 88.7791 1531.02 89.9104C1531.11 91.4416 1530.81 92.8141 1530.1 94.0279C1529.38 95.2332 1528.31 96.2091 1526.87 96.9557C1525.44 97.6933 1523.68 98.1268 1521.58 98.2563C1519.55 98.3821 1517.77 98.1765 1516.23 97.6397C1514.7 97.1023 1513.48 96.2557 1512.56 95.0999C1511.65 93.9436 1511.11 92.4999 1510.94 90.7688L1515.59 90.4806C1515.72 91.3866 1516.05 92.1263 1516.58 92.6997C1517.11 93.2731 1517.78 93.6842 1518.59 93.933C1519.41 94.1813 1520.31 94.2749 1521.29 94.2138C1522.32 94.1501 1523.22 93.9412 1523.97 93.5871C1524.73 93.2239 1525.32 92.7522 1525.73 92.1719C1526.14 91.5831 1526.32 90.9142 1526.28 90.1651C1526.23 89.4851 1526 88.936 1525.58 88.5179C1525.16 88.0913 1524.59 87.7509 1523.86 87.4969C1523.15 87.2338 1522.31 87.0121 1521.36 86.8319L1518.34 86.2502C1516.16 85.8305 1514.4 85.0979 1513.08 84.0524C1511.77 82.9979 1511.06 81.5349 1510.94 79.6635C1510.85 78.1238 1511.18 76.7498 1511.94 75.5413C1512.71 74.3323 1513.8 73.3641 1515.21 72.6366C1516.61 71.9006 1518.23 71.4761 1520.06 71.3629C1521.91 71.2482 1523.56 71.4709 1524.99 72.031C1526.44 72.5822 1527.59 73.4029 1528.46 74.4933C1529.33 75.5752 1529.83 76.8512 1529.94 78.3212L1525.39 78.6031ZM1533.17 74.8936L1532.93 70.9253L1553.78 69.6352L1554.02 73.6035L1545.95 74.1033L1547.32 96.2668L1542.62 96.5574L1541.25 74.3938L1533.17 74.8936ZM1568.33 94.9669L1566.71 68.835L1571.44 68.5421L1572.81 90.7057L1584.32 89.9935L1584.57 93.9618L1568.33 94.9669ZM1591.79 67.2828L1593.41 93.4146L1588.68 93.7076L1587.06 67.5757L1591.79 67.2828ZM1611.57 73.2706C1611.38 72.1636 1610.82 71.327 1609.9 70.7608C1608.99 70.194 1607.83 69.954 1606.42 70.0409C1605.44 70.1019 1604.6 70.3032 1603.91 70.6446C1603.22 70.986 1602.71 71.4235 1602.37 71.957C1602.02 72.4906 1601.87 73.0851 1601.9 73.7406C1601.93 74.2851 1602.09 74.7495 1602.36 75.1341C1602.64 75.5181 1603 75.837 1603.45 76.0909C1603.91 76.3363 1604.4 76.5362 1604.94 76.6907C1605.48 76.8452 1606.02 76.9697 1606.56 77.0641L1609.05 77.525C1610.05 77.6936 1611.02 77.9454 1611.95 78.2804C1612.9 78.6148 1613.75 79.0574 1614.51 79.6081C1615.28 80.1583 1615.9 80.8413 1616.38 81.6571C1616.85 82.473 1617.13 83.4466 1617.2 84.5779C1617.29 86.1091 1616.98 87.4816 1616.27 88.6954C1615.56 89.9007 1614.49 90.8766 1613.05 91.6232C1611.62 92.3607 1609.85 92.7943 1607.76 92.9237C1605.73 93.0495 1603.94 92.844 1602.41 92.3072C1600.88 91.7698 1599.66 90.9232 1598.74 89.7674C1597.83 88.6111 1597.29 87.1674 1597.12 85.4363L1601.77 85.1481C1601.9 86.0541 1602.23 86.7938 1602.76 87.3672C1603.29 87.9406 1603.96 88.3517 1604.77 88.6005C1605.58 88.8488 1606.49 88.9424 1607.47 88.8813C1608.5 88.8176 1609.4 88.6087 1610.15 88.2546C1610.91 87.8914 1611.5 87.4197 1611.91 86.8394C1612.31 86.2506 1612.5 85.5816 1612.46 84.8325C1612.41 84.1526 1612.18 83.6035 1611.76 83.1854C1611.34 82.7587 1610.77 82.4184 1610.04 82.1644C1609.33 81.9013 1608.49 81.6796 1607.54 81.4993L1604.52 80.9177C1602.34 80.498 1600.58 79.7654 1599.26 78.7199C1597.95 77.6654 1597.24 76.2024 1597.12 74.331C1597.03 72.7913 1597.36 71.4172 1598.12 70.2088C1598.89 68.9998 1599.98 68.0316 1601.39 67.3041C1602.79 66.5681 1604.41 66.1436 1606.24 66.0304C1608.09 65.9157 1609.74 66.1384 1611.17 66.6985C1612.62 67.2497 1613.77 68.0704 1614.64 69.1608C1615.51 70.2427 1616.01 71.5187 1616.12 72.9887L1611.57 73.2706ZM1619.35 69.5611L1619.11 65.5928L1639.96 64.3027L1640.2 68.271L1632.12 68.7707L1633.5 90.9343L1628.8 91.2249L1627.43 69.0613L1619.35 69.5611ZM1648.71 63.7611L1650.33 89.8929L1645.59 90.1858L1643.98 64.054L1648.71 63.7611ZM1675.31 62.1151L1676.93 88.247L1672.72 88.5075L1659.3 71.4696L1659.09 71.4831L1660.19 89.2828L1655.45 89.5757L1653.84 63.4439L1658.07 63.1818L1671.47 80.2332L1671.7 80.219L1670.6 62.4064L1675.31 62.1151ZM1698.49 69.0575C1698.24 68.3817 1697.9 67.7831 1697.5 67.2619C1697.1 66.7316 1696.62 66.2868 1696.08 65.9276C1695.55 65.5679 1694.94 65.3108 1694.27 65.1562C1693.59 64.9931 1692.86 64.9357 1692.08 64.9842C1690.67 65.071 1689.45 65.5014 1688.39 66.2753C1687.34 67.0493 1686.54 68.1405 1685.99 69.549C1685.46 70.9484 1685.25 72.6264 1685.37 74.5829C1685.49 76.5564 1685.91 78.2087 1686.61 79.5398C1687.32 80.8709 1688.25 81.8596 1689.4 82.5057C1690.55 83.1433 1691.85 83.4168 1693.32 83.3263C1694.64 83.2442 1695.78 82.9179 1696.71 82.3475C1697.66 81.7766 1698.37 81.007 1698.84 80.0386C1699.31 79.0618 1699.5 77.9396 1699.42 76.6722L1700.51 76.7717L1693.41 77.2107L1693.18 73.5104L1703.79 72.8543L1703.98 75.9932C1704.12 78.2304 1703.76 80.1951 1702.91 81.8873C1702.06 83.5795 1700.83 84.9195 1699.21 85.9073C1697.6 86.8866 1695.71 87.4431 1693.55 87.5768C1691.15 87.7258 1689 87.3164 1687.11 86.3488C1685.23 85.372 1683.72 83.9158 1682.58 81.9799C1681.44 80.035 1680.79 77.6845 1680.61 74.9284C1680.48 72.8188 1680.67 70.9162 1681.16 69.2206C1681.66 67.5245 1682.41 66.0646 1683.42 64.8408C1684.43 63.6086 1685.64 62.6455 1687.06 61.9515C1688.48 61.2491 1690.04 60.8449 1691.75 60.7391C1693.2 60.6497 1694.56 60.7789 1695.84 61.1268C1697.11 61.4663 1698.26 61.993 1699.28 62.7071C1700.3 63.4207 1701.16 64.2896 1701.86 65.314C1702.55 66.3384 1703.04 67.4867 1703.31 68.7591L1698.49 69.0575ZM1721.24 59.2732L1722.86 85.405L1718.12 85.6979L1716.5 59.5661L1721.24 59.2732ZM1747.84 57.6272L1749.46 83.759L1745.25 84.0196L1731.83 66.9817L1731.61 66.9951L1732.72 84.7949L1727.98 85.0878L1726.36 58.956L1730.6 58.6939L1744 75.7453L1744.23 75.7311L1743.13 57.9185L1747.84 57.6272ZM1761.01 60.7959L1760.76 56.8276L1781.61 55.5375L1781.86 59.5058L1773.78 60.0055L1775.15 82.1691L1770.46 82.4597L1769.08 60.2961L1761.01 60.7959ZM1787.25 81.4206L1785.63 55.2888L1790.36 54.9959L1791.05 66.0585L1803.16 65.3093L1802.47 54.2466L1807.22 53.9529L1808.84 80.0847L1804.09 80.3785L1803.4 69.2775L1791.29 70.0268L1791.98 81.1277L1787.25 81.4206ZM1813.99 79.7662L1812.37 53.6343L1829.36 52.5827L1829.61 56.5509L1817.35 57.3097L1817.79 64.4041L1829.17 63.6998L1829.41 67.6681L1818.03 68.3723L1818.47 75.505L1830.84 74.7399L1831.08 78.7082L1813.99 79.7662ZM1850.22 77.5239L1841.23 51.8484L1846.32 51.5334L1852.22 70.4454L1852.46 70.4304L1856.3 50.916L1860.93 50.6294L1867.16 69.5336L1867.39 69.5194L1870.91 50.0119L1876 49.6969L1870.24 76.2851L1865.57 76.5741L1859.21 58.5621L1859 58.5748L1854.89 77.2349L1850.22 77.5239ZM1902.04 61.2017C1902.21 64.0174 1901.83 66.4616 1900.9 68.5344C1899.98 70.5981 1898.65 72.2177 1896.9 73.3932C1895.16 74.5681 1893.15 75.2263 1890.86 75.3679C1888.57 75.5095 1886.49 75.1047 1884.61 74.1535C1882.74 73.1933 1881.22 71.7463 1880.04 69.8125C1878.87 67.8697 1878.2 65.4948 1878.02 62.6876C1877.85 59.872 1878.22 57.4323 1879.15 55.3685C1880.08 53.2958 1881.41 51.6719 1883.15 50.497C1884.9 49.3216 1886.91 48.6631 1889.2 48.5215C1891.49 48.3799 1893.57 48.785 1895.44 49.7367C1897.31 50.6879 1898.84 52.1349 1900.01 54.0777C1901.19 56.0114 1901.86 58.3861 1902.04 61.2017ZM1897.28 61.4962C1897.16 59.5142 1896.74 57.8619 1896.04 56.5393C1895.34 55.2077 1894.43 54.2268 1893.29 53.5966C1892.16 52.958 1890.88 52.6826 1889.46 52.7705C1888.04 52.8584 1886.81 53.289 1885.77 54.0624C1884.72 54.8273 1883.93 55.9138 1883.39 57.3217C1882.86 58.7207 1882.66 60.4111 1882.78 62.3931C1882.91 64.3752 1883.32 66.032 1884.01 67.3636C1884.72 68.6862 1885.64 69.6669 1886.77 70.3055C1887.9 70.9357 1889.18 71.2068 1890.6 71.1189C1892.02 71.031 1893.25 70.6046 1894.3 69.8397C1895.34 69.0663 1896.13 67.9801 1896.66 66.5812C1897.2 65.1732 1897.4 63.4782 1897.28 61.4962ZM1907.32 73.9907L1905.71 47.8589L1910.44 47.566L1911.81 69.7296L1923.32 69.0174L1923.57 72.9857L1907.32 73.9907Z" fill="white"/>
<path d="M153.769 168.484L152.653 168.879L153.846 169.155C159.476 170.46 164.029 174.488 165.922 179.839L166.449 181.327L166.788 179.785C168.006 174.242 172.028 169.683 177.455 167.694L178.604 167.273L177.448 167.019C171.8 165.778 167.198 161.799 165.243 156.468L164.843 155.377L164.58 156.509C163.298 162.041 159.221 166.557 153.769 168.484Z" fill="white"/>
<path d="M745.637 131.867L744.521 132.262L745.713 132.538C751.344 133.843 755.897 137.871 757.79 143.222L758.316 144.71L758.655 143.168C759.874 137.625 763.896 133.066 769.322 131.077L770.472 130.656L769.316 130.402C763.668 129.161 759.065 125.182 757.111 119.851L756.711 118.76L756.448 119.892C755.165 125.424 751.089 129.939 745.637 131.867Z" fill="white"/>
<path d="M1340.5 95.0547L1339.38 95.4491L1340.58 95.7254C1346.21 97.0301 1350.76 101.058 1352.65 106.409L1353.18 107.898L1353.52 106.356C1354.74 100.812 1358.76 96.2534 1364.18 94.2646L1365.33 93.8434L1364.18 93.5895C1358.53 92.3486 1353.93 88.3698 1351.97 83.038L1351.57 81.9471L1351.31 83.079C1350.03 88.6111 1345.95 93.127 1340.5 95.0547Z" fill="white"/>
</svg>
