<svg width="80" height="80" viewBox="0 0 80 80" fill="none" xmlns="http://www.w3.org/2000/svg">
<circle cx="40" cy="40" r="40" fill="#F96261"/>
<path d="M28.4453 50.6723H24.0547C23.4722 50.6723 23 50.2001 23 49.6177V25.0547C23 24.4722 23.4722 24 24.0547 24H55.8359C56.4184 24 56.8906 24.4722 56.8906 25.0547V49.6177C56.8906 50.2001 56.4184 50.6723 55.8359 50.6723H50.9453" stroke="#FDFCFC" stroke-width="2" stroke-miterlimit="10" stroke-linecap="round" stroke-linejoin="round"/>
<path d="M37.4453 50.6724H33.6771" stroke="#FDFCFC" stroke-width="2" stroke-miterlimit="10" stroke-linecap="round" stroke-linejoin="round"/>
<path d="M45.9453 50.6724H41.9856" stroke="#FDFCFC" stroke-width="2" stroke-miterlimit="10" stroke-linecap="round" stroke-linejoin="round"/>
<path d="M56.8906 28.2417H23" stroke="#FDFCFC" stroke-width="2" stroke-miterlimit="10" stroke-linecap="round" stroke-linejoin="round"/>
<path d="M52.3955 55.9453H26.9453" stroke="#FDFCFC" stroke-width="2" stroke-miterlimit="10" stroke-linecap="round" stroke-linejoin="round"/>
<path d="M45.9562 55.9453L50.1614 55.9453L50.1614 37.8392L45.9562 37.8392L45.9562 55.9453Z" stroke="#FDFCFC" stroke-width="2" stroke-miterlimit="10" stroke-linecap="round" stroke-linejoin="round"/>
<path d="M37.5054 55.9453L41.7107 55.9453L41.7107 35.9454L37.5054 35.9454L37.5054 55.9453Z" stroke="#FDFCFC" stroke-width="2" stroke-miterlimit="10" stroke-linecap="round" stroke-linejoin="round"/>
<path d="M29.0548 55.9453L33.26 55.9453L33.26 41.3547L29.0548 41.3547L29.0548 55.9453Z" stroke="#FDFCFC" stroke-width="2" stroke-miterlimit="10" stroke-linecap="round" stroke-linejoin="round"/>
</svg>
