<svg width="56" height="182" viewBox="0 0 56 182" fill="none" xmlns="http://www.w3.org/2000/svg">
<path d="M29 56H27V181.5" stroke="#B1E0EF" stroke-width="2" stroke-dasharray="10 10"/>
<circle cx="28" cy="28" r="27" fill="#FDFCFC" stroke="#FFA6DE" stroke-width="2"/>
<path d="M24.1159 35.24C22.9693 35.24 21.9426 34.96 21.0359 34.4C20.1293 33.8267 19.4159 33 18.8959 31.92C18.3759 30.84 18.1159 29.5333 18.1159 28C18.1159 26.4667 18.3759 25.16 18.8959 24.08C19.4159 23 20.1293 22.18 21.0359 21.62C21.9426 21.0467 22.9693 20.76 24.1159 20.76C25.2759 20.76 26.3026 21.0467 27.1959 21.62C28.1026 22.18 28.8159 23 29.3359 24.08C29.8559 25.16 30.1159 26.4667 30.1159 28C30.1159 29.5333 29.8559 30.84 29.3359 31.92C28.8159 33 28.1026 33.8267 27.1959 34.4C26.3026 34.96 25.2759 35.24 24.1159 35.24ZM24.1159 32.5C24.6626 32.5 25.1359 32.3467 25.5359 32.04C25.9493 31.7333 26.2693 31.2467 26.4959 30.58C26.7359 29.9133 26.8559 29.0533 26.8559 28C26.8559 26.9467 26.7359 26.0867 26.4959 25.42C26.2693 24.7533 25.9493 24.2667 25.5359 23.96C25.1359 23.6533 24.6626 23.5 24.1159 23.5C23.5826 23.5 23.1093 23.6533 22.6959 23.96C22.2959 24.2667 21.9759 24.7533 21.7359 25.42C21.5093 26.0867 21.3959 26.9467 21.3959 28C21.3959 29.0533 21.5093 29.9133 21.7359 30.58C21.9759 31.2467 22.2959 31.7333 22.6959 32.04C23.1093 32.3467 23.5826 32.5 24.1159 32.5ZM33.772 35V22.2L35.172 23.6H30.972V21H37.012V35H33.772Z" fill="#F96261"/>
</svg>
