<svg width="56" height="56" viewBox="0 0 56 56" fill="none" xmlns="http://www.w3.org/2000/svg">
<circle cx="28" cy="28" r="27" fill="#FDFCFC" stroke="#FFA6DE" stroke-width="2"/>
<path d="M21.0984 35.24C19.9517 35.24 18.925 34.96 18.0184 34.4C17.1117 33.8267 16.3984 33 15.8784 31.92C15.3584 30.84 15.0984 29.5333 15.0984 28C15.0984 26.4667 15.3584 25.16 15.8784 24.08C16.3984 23 17.1117 22.18 18.0184 21.62C18.925 21.0467 19.9517 20.76 21.0984 20.76C22.2584 20.76 23.285 21.0467 24.1784 21.62C25.085 22.18 25.7984 23 26.3184 24.08C26.8384 25.16 27.0984 26.4667 27.0984 28C27.0984 29.5333 26.8384 30.84 26.3184 31.92C25.7984 33 25.085 33.8267 24.1784 34.4C23.285 34.96 22.2584 35.24 21.0984 35.24ZM21.0984 32.5C21.645 32.5 22.1184 32.3467 22.5184 32.04C22.9317 31.7333 23.2517 31.2467 23.4784 30.58C23.7184 29.9133 23.8384 29.0533 23.8384 28C23.8384 26.9467 23.7184 26.0867 23.4784 25.42C23.2517 24.7533 22.9317 24.2667 22.5184 23.96C22.1184 23.6533 21.645 23.5 21.0984 23.5C20.565 23.5 20.0917 23.6533 19.6784 23.96C19.2784 24.2667 18.9584 24.7533 18.7184 25.42C18.4917 26.0867 18.3784 26.9467 18.3784 28C18.3784 29.0533 18.4917 29.9133 18.7184 30.58C18.9584 31.2467 19.2784 31.7333 19.6784 32.04C20.0917 32.3467 20.565 32.5 21.0984 32.5ZM28.5126 32.06V29.88L35.1126 21H38.5126L32.0526 29.88L30.4726 29.42H41.4926V32.06H28.5126ZM36.0526 35V32.06L36.1526 29.42V26.8H39.2126V35H36.0526Z" fill="#F96261"/>
</svg>
