<svg width="56" height="56" viewBox="0 0 56 56" fill="none" xmlns="http://www.w3.org/2000/svg">
<circle cx="28" cy="28" r="27" fill="#FDFCFC" stroke="#FFA6DE" stroke-width="2"/>
<path d="M22.0456 35.24C20.899 35.24 19.8723 34.96 18.9656 34.4C18.059 33.8267 17.3456 33 16.8256 31.92C16.3056 30.84 16.0456 29.5333 16.0456 28C16.0456 26.4667 16.3056 25.16 16.8256 24.08C17.3456 23 18.059 22.18 18.9656 21.62C19.8723 21.0467 20.899 20.76 22.0456 20.76C23.2056 20.76 24.2323 21.0467 25.1256 21.62C26.0323 22.18 26.7456 23 27.2656 24.08C27.7856 25.16 28.0456 26.4667 28.0456 28C28.0456 29.5333 27.7856 30.84 27.2656 31.92C26.7456 33 26.0323 33.8267 25.1256 34.4C24.2323 34.96 23.2056 35.24 22.0456 35.24ZM22.0456 32.5C22.5923 32.5 23.0656 32.3467 23.4656 32.04C23.879 31.7333 24.199 31.2467 24.4256 30.58C24.6656 29.9133 24.7856 29.0533 24.7856 28C24.7856 26.9467 24.6656 26.0867 24.4256 25.42C24.199 24.7533 23.879 24.2667 23.4656 23.96C23.0656 23.6533 22.5923 23.5 22.0456 23.5C21.5123 23.5 21.039 23.6533 20.6256 23.96C20.2256 24.2667 19.9056 24.7533 19.6656 25.42C19.439 26.0867 19.3256 26.9467 19.3256 28C19.3256 29.0533 19.439 29.9133 19.6656 30.58C19.9056 31.2467 20.2256 31.7333 20.6256 32.04C21.039 32.3467 21.5123 32.5 22.0456 32.5ZM34.3798 35.24C33.4065 35.24 32.4398 35.1133 31.4798 34.86C30.5332 34.5933 29.7198 34.22 29.0398 33.74L30.3198 31.26C30.8532 31.6467 31.4665 31.9533 32.1598 32.18C32.8665 32.4067 33.5798 32.52 34.2998 32.52C35.1132 32.52 35.7532 32.36 36.2198 32.04C36.6865 31.72 36.9198 31.2733 36.9198 30.7C36.9198 30.34 36.8265 30.02 36.6398 29.74C36.4532 29.46 36.1198 29.2467 35.6398 29.1C35.1732 28.9533 34.5132 28.88 33.6598 28.88H30.0798L30.7998 21H39.3398V23.6H31.9598L33.6398 22.12L33.1398 27.74L31.4598 26.26H34.4198C35.8065 26.26 36.9198 26.4533 37.7598 26.84C38.6132 27.2133 39.2332 27.7267 39.6198 28.38C40.0065 29.0333 40.1998 29.7733 40.1998 30.6C40.1998 31.4267 39.9932 32.1933 39.5798 32.9C39.1665 33.5933 38.5265 34.16 37.6598 34.6C36.8065 35.0267 35.7132 35.24 34.3798 35.24Z" fill="#F96261"/>
</svg>
