<svg width="56" height="56" viewBox="0 0 56 56" fill="none" xmlns="http://www.w3.org/2000/svg">
<circle cx="28" cy="28" r="27" fill="#FDFCFC" stroke="#FFA6DE" stroke-width="2"/>
<path d="M21.1335 35.24C19.9868 35.24 18.9602 34.96 18.0535 34.4C17.1468 33.8267 16.4335 33 15.9135 31.92C15.3935 30.84 15.1335 29.5333 15.1335 28C15.1335 26.4667 15.3935 25.16 15.9135 24.08C16.4335 23 17.1468 22.18 18.0535 21.62C18.9602 21.0467 19.9868 20.76 21.1335 20.76C22.2935 20.76 23.3202 21.0467 24.2135 21.62C25.1202 22.18 25.8335 23 26.3535 24.08C26.8735 25.16 27.1335 26.4667 27.1335 28C27.1335 29.5333 26.8735 30.84 26.3535 31.92C25.8335 33 25.1202 33.8267 24.2135 34.4C23.3202 34.96 22.2935 35.24 21.1335 35.24ZM21.1335 32.5C21.6802 32.5 22.1535 32.3467 22.5535 32.04C22.9668 31.7333 23.2868 31.2467 23.5135 30.58C23.7535 29.9133 23.8735 29.0533 23.8735 28C23.8735 26.9467 23.7535 26.0867 23.5135 25.42C23.2868 24.7533 22.9668 24.2667 22.5535 23.96C22.1535 23.6533 21.6802 23.5 21.1335 23.5C20.6002 23.5 20.1268 23.6533 19.7135 23.96C19.3135 24.2667 18.9935 24.7533 18.7535 25.42C18.5268 26.0867 18.4135 26.9467 18.4135 28C18.4135 29.0533 18.5268 29.9133 18.7535 30.58C18.9935 31.2467 19.3135 31.7333 19.7135 32.04C20.1268 32.3467 20.6002 32.5 21.1335 32.5ZM28.5096 35V32.9L33.9096 27.8C34.3363 27.4133 34.6496 27.0667 34.8496 26.76C35.0496 26.4533 35.1829 26.1733 35.2496 25.92C35.3296 25.6667 35.3696 25.4333 35.3696 25.22C35.3696 24.66 35.1763 24.2333 34.7896 23.94C34.4163 23.6333 33.8629 23.48 33.1296 23.48C32.5429 23.48 31.9963 23.5933 31.4896 23.82C30.9963 24.0467 30.5763 24.4 30.2296 24.88L27.8696 23.36C28.4029 22.56 29.1496 21.9267 30.1096 21.46C31.0696 20.9933 32.1763 20.76 33.4296 20.76C34.4696 20.76 35.3763 20.9333 36.1496 21.28C36.9363 21.6133 37.5429 22.0867 37.9696 22.7C38.4096 23.3133 38.6296 24.0467 38.6296 24.9C38.6296 25.3533 38.5696 25.8067 38.4496 26.26C38.3429 26.7 38.1163 27.1667 37.7696 27.66C37.4363 28.1533 36.9429 28.7067 36.2896 29.32L31.8096 33.54L31.1896 32.36H39.0896V35H28.5096Z" fill="#F96261"/>
</svg>
