<svg width="56" height="165" viewBox="0 0 56 165" fill="none" xmlns="http://www.w3.org/2000/svg">
<path d="M29 39H27V101.75V164.5" stroke="#B1E0EF" stroke-width="2" stroke-dasharray="10 10"/>
<circle cx="28" cy="28" r="27" fill="#FDFCFC" stroke="#FFA6DE" stroke-width="2"/>
<path d="M22.1726 35.24C21.0259 35.24 19.9992 34.96 19.0926 34.4C18.1859 33.8267 17.4726 33 16.9526 31.92C16.4326 30.84 16.1726 29.5333 16.1726 28C16.1726 26.4667 16.4326 25.16 16.9526 24.08C17.4726 23 18.1859 22.18 19.0926 21.62C19.9992 21.0467 21.0259 20.76 22.1726 20.76C23.3326 20.76 24.3592 21.0467 25.2526 21.62C26.1592 22.18 26.8726 23 27.3926 24.08C27.9126 25.16 28.1726 26.4667 28.1726 28C28.1726 29.5333 27.9126 30.84 27.3926 31.92C26.8726 33 26.1592 33.8267 25.2526 34.4C24.3592 34.96 23.3326 35.24 22.1726 35.24ZM22.1726 32.5C22.7192 32.5 23.1926 32.3467 23.5926 32.04C24.0059 31.7333 24.3259 31.2467 24.5526 30.58C24.7926 29.9133 24.9126 29.0533 24.9126 28C24.9126 26.9467 24.7926 26.0867 24.5526 25.42C24.3259 24.7533 24.0059 24.2667 23.5926 23.96C23.1926 23.6533 22.7192 23.5 22.1726 23.5C21.6392 23.5 21.1659 23.6533 20.7526 23.96C20.3526 24.2667 20.0326 24.7533 19.7926 25.42C19.5659 26.0867 19.4526 26.9467 19.4526 28C19.4526 29.0533 19.5659 29.9133 19.7926 30.58C20.0326 31.2467 20.3526 31.7333 20.7526 32.04C21.1659 32.3467 21.6392 32.5 22.1726 32.5ZM34.0915 35.24C33.1182 35.24 32.1515 35.1133 31.1915 34.86C30.2315 34.5933 29.4182 34.22 28.7515 33.74L30.0115 31.26C30.5448 31.6467 31.1648 31.9533 31.8715 32.18C32.5782 32.4067 33.2915 32.52 34.0115 32.52C34.8248 32.52 35.4648 32.36 35.9315 32.04C36.3982 31.72 36.6315 31.28 36.6315 30.72C36.6315 30.1867 36.4248 29.7667 36.0115 29.46C35.5982 29.1533 34.9315 29 34.0115 29H32.5315V26.86L36.4315 22.44L36.7915 23.6H29.4515V21H39.2515V23.1L35.3715 27.52L33.7315 26.58H34.6715C36.3915 26.58 37.6915 26.9667 38.5715 27.74C39.4515 28.5133 39.8915 29.5067 39.8915 30.72C39.8915 31.5067 39.6848 32.2467 39.2715 32.94C38.8582 33.62 38.2248 34.1733 37.3715 34.6C36.5182 35.0267 35.4248 35.24 34.0915 35.24Z" fill="#F96261"/>
</svg>
